<svg xmlns="http://www.w3.org/2000/svg" xmlns:serif="http://www.serif.com/" xmlns:xlink="http://www.w3.org/1999/xlink" height="100%" style="fill-rule:evenodd;clip-rule:evenodd;stroke-linejoin:round;stroke-miterlimit:2;" version="1.1" viewBox="0 0 300 300" width="100%" xml:space="preserve"><path d="M25.61,254.778v-.288l.02,0c-.009,.095-.016,.191-.02,.288Zm10.072,5.251s.428-.434 .428-1.318c0-.181-2.499-4.585 .02-4.243 28.846-.093 49.621-.434 48.427-.775 -1.4-.4-5.5-.7-9.2-.8 -3.8-.1-6.8-.5-6.8-1 0-.8 11.6-2.1 19.2-2.1 2.1,0 3.8-.4 3.8-.8 0-.945-52.764-1.927-63.899-2.123a2.062,2.062,0,01-2.026-2.083l.048-4.635c3.834,.329 5.877-4.007 5.877-4.959 0-1.9 7.3-7.9 13.9-11.4 7.9-4.2 14.6-10.2 17.1-15.1 3-5.8 5-15.5 5-24.4v-8.1l-3.4-1.2c-5.6-2.1-8.6-5.8-8.6-10.8 0-4.8 1.7-7.1 6.9-9.9 2.9-1.5 3.1-1.9 3.1-7.3v-5.7l-6.9-3.2c-12.5-5.9-24-18.6-31.8-35.1 -4.3-9.1-8.8-25.1-11.3-40.2 -.7-4.1-1.9-7.9-2.7-8.5 -1.5-1.1-5.1-20-4-21.1 .4-.4 6.5-1.3 13.5-2 12.1-1.2 92.5-1.2 104.2,0 2.5,.3 7.7,.7 11.5,1.1 11.2,.9 14.5,2.1 14.5,5.1 0,4.5-3.2,16.9-4.8,18.7 -1,1.1-2.5,7.3-3.9,15.5 -1.3,7.5-3.3,16.6-4.4,20.2 -2.5,7.5-8.8,20.6-12.9,26.5 -4.8,7-15,16.3-22,20 -7.1,3.7-8,4.9-8,11.6 0,3.2 .4,3.7 4.5,5.7 5.2,2.5 7,5.8 6.1,11.2 -.5,3.6-2.9,6.2-8.5,9.2 -2.8,1.5-3.1,2.2-3.1,6.3 0,4.2 1.1,5.8 2.5,3.5 1.9-3.1 21.5-11 27.3-11 1.3,0 3.9-1.2 5.7-2.6 1.9-1.4 6.7-3.8 10.7-5.2 6.5-2.4 8.7-2.7 20.3-2.6 11.1,0 13.8,.3 18.7,2.2 3.3,1.3 8.6,2.5 12.5,2.7 8.6,.4 22.2,5.3 30.6,10.8 9.2,6.1 18.9,16.3 22.6,23.9 5.7,11.6 5.2,24.8-1.4,34.9l-2.4,3.7 3.2,.5c1.8,.2 5.4-.2 8-1 4-1.2 4.7-1.7 4.1-3.1 -1.4-3.3-1.6-9.3-.4-12.3 1.6-3.8 5.6-5.9 11.2-5.9 13.6,0 20.6,17.8 11.3,28.8 -3,3.5-3.1,5.2-.7,8.1 1.2,1.4 3.2,2.2 6.5,2.5 2.6,.2 5,.6 5.3,.9 .9,.9-1.6,7.5-3,8 -.7,.3-14.7,.6-31.2,.6 -27.6,.1-37.3-.3-68.4-2.9a1742.846,1742.846,0,00-25.729-1.962c-38.825-2.673-78.9-4.114-127.111-4.497 -.058-.001-.11-.037-.13-.091 -.021-.054-.006-.116 .037-.155 .042-.023 .058-.059 .058-.059Zm199.575-53.236c-.3-1.1-1-2-1.5-2 -1.2,0-.1,5 1.1,5 .9,0 1-.6 .4-3Zm-5.7,23c0-.6-1.3-1-3-1 -3,0-4.3,2.4-1.7,3.3 1.5,.5 4.7-1 4.7-2.3Zm-98.5-192c-11.2-1.1-83.6-2.2-93.5-1.4 -2.5,.2-8.3,.6-12.9,1l-8.3,.6 .5,4c.3,2.2 .7,4.2 1,4.4 .2,.3 15.7,1 34.3,1.6 25.2,.7 41.1,.7 61.9-.2 15.4-.6 28.3-1.4 28.7-1.6 .4-.3 .8-1.1 .8-1.8 0-1.1-3.4-1.6-14-2.1 -7.7-.4-14.3-1.1-14.6-1.6s6-.6 14.8-.3c18.5,.8 19.2-.8 1.3-2.6Zm-41.5,121.5c-4.7-.8-9.2-1.4-10-1.4 -6.5,.6-14.2,2-16,2.9 -2.9,1.6-2.2,5.1 1.4,6.8 4.2,2.1 23.3,3.9 24.8,2.4 .9-.9 .2-1.2-3-1.2 -2.3,0-4.2-.5-4.2-1 0-.6 1.2-1 2.6-1 1.4,0 2.3-.4 1.9-1 -.3-.6 .4-1 1.7-1.1 2.3-.1 2.2-.1-.2-.8l-2.5-.7 2.5-.7c1.4-.4 4-.7 5.9-.7 2.5,0 3.2,.3 2.7,1.5 -.3,.8-.1,1.5 .5,1.5 .6,0 .8,.8 .5,1.7 -.5,1.6-.4,1.5 .9-.1 1-1.4 1.1-2.4 .4-3.7 -.5-1.1-1.1-1.9-1.2-1.9s-4-.7-8.7-1.5Zm39.5-90.8c.4-2.6 .6-4.7 .4-4.6 -1.6,.3-4.1,1.8-3.1,1.8 1.7,.1 1.5,3-.3,3.7 -.8,.4-1.5,1-1.5,1.5s.7,.9 1.5,.9c2.3,0 1.8,1.8-1,3.6s-3.3,3.4-1,3.4 1.8,1.8-1,3.6c-2.9,1.9-3.3,4.4-.7,4.4 1.3,.1 1.1,.5-1,2.3 -3,2.4-3.5,4.2-1.5,5.1 .8,.3 .3,1.2-1.5,2.6 -3.2,2.4-3.8,5.3-1.1,4.8 2.8-.5 10.1-21 11.8-33.1Zm-39.5,74.4c0-.3-4.1-.6-9.1-.6 -8.5,0-9,.1-8.5,2 .3,1.1 .6,3.8 .6,6v4l8-.3c4.4-.2 8-.7 8-1.1 0-.4-.8-.7-1.7-.8 -3.4-.3-11.3-2.9-12.5-4.1 -1.7-1.7 .5-3.2 4.7-3.2 4.3,0 10.5-1.2 10.5-1.9Zm27-37c.8-1.7 .8-2.1-.3-2.1 -1.7,0-5.3,3.8-4.4,4.6 1,1 3.5-.3 4.7-2.5Zm156.2,122c-7.7-4.1-13.5,2.8-7.6,9.1 2.6,2.6 2.6,2.8 1,5.2 -.9,1.4-2.9,3.2-4.5,4 -4.3,2.3-14.2,3.5-20.7,2.7 -4.9-.7-6.3-.5-9.2,1.2l-3.5,2.1 2.4,.9c4.3,1.7 24.9,1.2 31.1-.8 11.4-3.5 17.6-12.2 14.4-19.9 -.8-1.9-2.3-3.9-3.4-4.5Zm-40.2-4.1c0-.6-1.6-1-3.5-1 -2.5,0-3.5,.4-3.5,1.5 0,.9 .6,1.8 1.4,2.1 1.7,.6 5.6-1.2 5.6-2.6Zm-66.5-20.9c-.3-.6-1.1-1.1-1.7-1.1 -.6,0-.6,.6 .2,1.5 1.4,1.7 2.6,1.3 1.5-.4Zm33,47.9c-2.9-1.3-9.4-1.3-7.5,0 .8,.5 3.3,.9 5.5,.9 3.1,0 3.6-.2 2-.9Zm-121.6-196.6c-29.3-.2-54.1-.6-55.1-1 -1.9-.6-2.2,.3-1.2,3 .4,1 1.8,1.6 3.8,1.5 1.7,0 2.5-.3 1.9-.6 -3.1-1.2-.9-2.4 4-2.1 3.2,.2 5.1,.7 5,1.5 -.4,1.9 20.8,2.6 60.2,1.9 39-.6 43.5-1 43.5-3.2 0-1.6-1.6-1.9-2.5-.4 -.7,1.1-4.8,1.4-5.7,.4 -.4-.3-24.6-.7-53.9-1Zm164.1,173.7c1.1-2.1-.3-3.1-1.5-1.1 -.3,.5-1.5,1-2.5,1 -1.7,0-5.5,3.9-4.6,4.7 .9,.9 7.5-2.7 8.6-4.6Zm-177.1,9c-8.1-.7-16.3-1.6-18.2-2.1 -3.9-.8-5.7,.2-5.7,3.2 0,1.5 .9,1.8 5.8,1.8 3.1,0 12.5,.3 20.7,.6 13.2,.6 14.8,.5 13.5-.8 -1-1-6-1.9-16.1-2.7Zm45.4-171.6c-6-.4-27.9-.9-48.9-1l-38.1-.4 .8,4.3c5.9,31.5 18.3,52.6 36.9,62.6 6.2,3.3 7,3.5 18.7,3.8 11.9,.4 12.4,.3 18.8-2.6 11.5-5.4 19.8-14 26.5-27.2 5.8-11.5 8.2-18.9 12.5-38.8 .4-1.4 .1-2.2-.8-2.2s-1.8,2.6-2.6,7.7c-2.9,17-13.3,39.8-22.5,49.3 -3,3-7.6,6.8-10.3,8.5 -4.5,2.8-5.6,3-16.2,3.4 -9.3,.3-11.7,0-12.5-1.2 -.6-.8-3.2-1.8-5.6-2.2 -5.8-.9-11-3.1-11-4.6 0-.8 1.2-.9 3.7-.4 2.1,.4 10.1,.7 18,.6 11.9,0 14.7-.3 17-1.8l2.7-1.8 -2.4-.3c-10.9-1.2-11.6-3.2-1.1-3.2 5.9,0 7-.3 9.1-2.5l2.3-2.5h-6.7c-4.2,0-6.5-.4-6.1-1 .3-.6 3.5-1 7-1 5.5,0 6.6-.3 8-2.3l1.5-2.2 -6-.3c-3.3-.2-6-.7-6-1.1 0-.5 3-1.1 6.6-1.4 6.1-.4 8.3-1.5 8.4-4 0-.4-2.7-.7-6-.7 -7.6,0-7.8-1.7-.2-2.5 6.6-.7 8.6-1.5 9-3.8 .3-1.4-.3-1.6-4.2-1.1 -5.3,.8-8.9-.2-6.6-1.6 .8-.6 3.4-1 5.8-1 3,0 4.8-.6 6.5-2.3l2.2-2.2 -7.3-.3c-7.7-.3-9.2-2.1-1.9-2.3 6-.1 9.1-1.2 9.5-3.3 .4-1.6-.1-1.7-4.6-1.1 -5.6,.7-10.9-.9-6.2-1.9 1.4-.2 4.5-.7 6.9-1 2.4-.2 4.8-1 5.2-1.8 .7-1-.6-1.4-6.1-1.6 -3.9-.2-7-.7-7-1.1 0-.5 3.2-1.2 7-1.5 3.9-.4 7-1.1 7-1.5 0-.4-4.8-1.1-10.7-1.6Zm132.7,154.3c0-1.5-.2-2.8-.4-2.8 -.2,0-1.8,1.6-3.5,3.6 -3.7,4.2-3.2,6.2 1,3.7 2.1-1.3 2.9-2.5 2.9-4.5Zm-92-48.6c2.5-.5 3.4-1 2-1 -3.2,0-6.6,1-11,3.3l-3.5,1.9 3.8,.8c8.5,1.8 17.7,8 22.6,15.2 5,7.3 9.1,21.6 6.2,21.6 -.4,0-4.4-3.3-8.7-7.3 -14.7-13.4-26-20.6-36.5-23.1 -6.2-1.4-23.7,7.1-32.4,15.9 -10.1,10-12.8,19.3-8.5,28.6 2.9,6.2 3.7,5.6 1.5-1 -.9-2.8-1.5-6.1-1.2-7.3 .4-2.7 .8-1.8 2.6,5.7 1.6,6.9 4.2,11.8 6.7,13 1.2,.6 3,1.7 4,2.5 1.6,1.4 1.7,1.3 1-.5 -2.1-5.5-4.7-14.8-4.2-15.2 .6-.6 3.9,6.7 5,11 .7,2.8 6.5,10 6.6,8.1 0-.6-.6-1.7-1.4-2.3 -1.9-1.6-5.9-11.5-5.4-13.7 .2-1.1 1.7,1.1 4,5.7 3.5,7 8.9,13.9 11,13.9 .5,0 .1-1.2-1-2.8 -2.3-3.2-6.6-11.8-7.6-15 -1.5-4.5 1.1-2 4.8,4.9 4.3,8 9.1,13.9 11.2,13.9 2,0 1.8-.4-2.1-6.3 -3.8-5.8-7-12.7-5.8-12.7 .5,0 3.1,3.7 6,8.3 6,9.6 7.6,11.3 11.8,12.3l3,.7 -2.7-2.9c-2.8-3-9.8-14.2-9.8-15.6 0-2.1 2.1-.3 5.1,4.4 5.1,8 11.8,14.8 14.6,14.8 2.2,0 1.9-.5-3.1-6.4 -6-7.1-7.9-10.2-7.4-11.8 .2-.6 2.8,2 5.8,5.7 6.2,7.8 14.2,14.5 17.3,14.5l2.2-.1 -2.1-1.2c-2.5-1.5-12.8-12.7-14.4-15.7 -2.4-4.5 .1-2.9 7.2,4.5 6.8,7.2 11.3,10.4 12.7,8.9 .3-.3-.6-1.4-2-2.5 -3-2.2-11.4-12.7-10.7-13.4 .3-.3 4,2.9 8.4,7.1 7.5,7.2 11.9,10.2 13.3,8.9 .3-.3-1.8-2.7-4.6-5.3 -5.2-4.8-9.3-10.2-7.6-10.2 .5,0 2.7,1.8 4.8,4.1 6.3,6.4 12.9,10.9 16.1,10.9l2.9-.1 -3-2.2c-5.5-4-12.5-11-12.5-12.4 0-.8 2.4,.6 5.8,3.5 7.5,6.5 13.6,10.2 16.7,10.2 3.6,0 3.1-1.2-1.6-3.8 -4.7-2.7-11.9-9-11.9-10.4 0-.5 1.7,.4 3.8,2 4.8,3.8 14.2,9 18.2,10.2 5.9,1.7 5.3-.2-1.3-3.9 -7.6-4.3-12.3-7.9-11.3-8.8 .3-.4 1.9,.3 3.4,1.4 4.4,3.2 14.9,8.3 17.3,8.3 3.2,0 1.8-2.2-3.2-4.8 -4.7-2.5-7.9-5-7.9-6.2 0-.4 3.3,1 7.3,3.1 8.7,4.7 13.5,5.2 10.9,1.3 -.4-.6-2.8-2.1-5.4-3.2 -2.7-1.1-4.8-2.6-4.8-3.1 0-.6 .2-1.1 .5-1.1 1.1,0 9,4.2 10.6,5.6 1.4,1.3 1.8,1.3 2.8,0 .9-1.1 .3-1.9-3.1-3.9 -4.9-3-4-3.4 2.3-1.2 3.8,1.4 4.5,1.4 5.8,.1 1.5-1.6 1.1-1.9-6.9-4.7 -1.7-.6-.6-.8 3.8-.4 4.9,.4 6.2,.2 6.2-.9 0-.8-1.2-1.9-2.7-2.4 -2.4-.9-1.6-1.1 4.5-1.1 6.5-.1 7.2-.3 7.2-2.1 0-1.7-.7-2-4.9-2 -2.8,0-5.3-.5-5.6-1 -.7-1.1-.1-1.2 5.5-1.4 2.5-.1 3.6-.6 3.8-2 .6-2.7-1.2-4-3.5-2.5 -2.2,1.3-7.7,.4-6.8-1.1 .3-.6 2.1-1 4-1 3.9,0 5.2-1.4 3.4-3.6 -.8-1-2.1-1.3-4-.9 -1.6,.4-3.4,.3-4.1-.2 -.9-.5-.3-.9 1.7-1.3 2.2-.4 2.9-1.1 2.7-2.3 -.3-1.5 0-1.6 1.5-.9 1,.5 2.5,.7 3.3,.5 1.1-.3 1.2-.2 .3,.4 -1,.7-.9,1.4 .3,3.2 1.1,1.5 1.9,1.9 2.4,1.1 .9-1.5 6,5.1 6,7.9 0,2.7 1,5.1 2.2,5.1 .7,0 .8-1.6 .4-4.2 -.8-5.1-7.7-15-14.3-20.7 -5.4-4.6-18.8-11.5-25.1-12.9 -3.9-.9-5.9-.1-2.8,1.1 2.4,1 7.8,9.8 9.8,15.9 1.9,6.3 2.4,13.3 .9,14.2 -.8,.6-4.2-3.5-12.5-15.1 -11.3-15.8-27.6-23.8-43.1-21.3 -3.3,.5-6.9,1-7.9,1 -3.3,0-.5-1.7 4.4-2.8Zm12.3-1.5c1.2-.2 0-.4-2.8-.4 -2.7,0-3.8,.2-2.2,.4 1.5,.2 3.7,.2 5,0Zm-80.8,5.2c-5.8-1.2-10.4-1.1-8.5,.1 .8,.5 4,.9 7,.9l5.5-.1 -4-.9Zm58,6.1c.4-.6-1.1-1-3.7-1 -3.1,0-3.9,.3-2.8,1 2,1.3 5.7,1.3 6.5,0Zm-27.5-68.2c0-.4-.6-.8-1.4-.8 -1.9,0-5,4.4-3.6,4.8 1.2,.4 5-2.6 5-4Zm75,63.2c-4-2.1-5-2.4-5-1.5 0,.2 2.3,1.6 5.1,3.1 2.8,1.4 4.8,2 4.4,1.5 -.3-.6-2.4-2-4.5-3.1Zm-104.3,6.6c-3.1-.3-6.2-.9-7.1-1.2 -1.4-.5-1.6,.4-1.6,6.3 0,8.7-2.1,16.7-6.2,24 -4.1,7.2-8.8,11.8-17.3,16.8 -6.2,3.6-6.6,4-4.4,4.6 1.3,.4 8.7,.7 16.4,.7 14.7-.1 15-.3 2-1.7l-8-.8 9.5-.2 9.5-.1 -.3-7.4c-.4-7.9 1.7-17.7 4.5-20.9 1.5-1.5 1.5-1.7 0-1.7 -1,0-1.7-.5-1.7-1 0-.6 .8-1 1.8-1 .9,0 2.4-.5 3.2-1 1.2-.7 .8-1.1-1.8-1.6 -4.1-.8-3-2.1 2.3-2.6l4-.4 -4.2-.8c-4.5-.9-5.9-2.6-2-2.6 3.3,0 6.7-1.1 6.7-2.1 0-.5-2-.9-4.4-.9 -2.5,0-4.8-.5-5.1-1 -.4-.6 .9-1 3.2-1 6.4,0 7.1-1.6 1-2.4Zm13.3-53.6c1.2-.8 1-1-1-1 -1.4,0-3.2,.5-4,1 -1.2,.8-1,1 1,1 1.4,0 3.2-.5 4-1Zm8.5-7c1.5-1.7 1.6-2 .3-2 -.9,0-2.6,.9-3.9,2 -2.3,1.9-2.3,1.9-.3,2 1.1,0 2.9-.9 3.9-2Zm92.6,63.6c-1.8-1.9-4.3-3.7-5.5-4 -1.6-.4-1.3,.2 1.5,2.7 2,1.8 5.5,6.2 7.9,9.9 2.3,3.8 4.4,6.8 4.6,6.8 .9,0-2.9-7.7-4.8-9.7 -1.2-1.3-1.8-2.3-1.3-2.3s-.6-1.5-2.4-3.4Zm-44.8,.6c-5.4-3.8-9.6-5.2-11-3.7 -1.7,1.8-.6,2.5 3.8,2.5 4,0 6.2,1.6 3.2,2.3 -1.3,.3-.9,.6 1.2,1.1 5.7,1.4 6.2,1.7 4,2.6 -1.7,.7-1.3,1.1 2.8,2.9 5,2.3 6.3,3.7 2.5,2.8 -2.3-.6-2.3-.6-.3,.9 6,4.6 6.9,3.8 2.9-2.2 -3-4.4-4.5-6-9.1-9.2Zm58.2,62.8c-.3-.6-2.2-1-4.1-1 -2.1,0-3.3,.4-2.9,1 .3,.5 2.2,1 4.1,1 2.1,0 3.3-.4 2.9-1Zm8-9c.4-.6-.7-1-2.5-1s-2.9,.4-2.5,1c.3,.5 1.5,1 2.5,1s2.2-.5 2.5-1Zm47.5,23.1c-3.7-2-77.7-1.8-79.7,.3 -.4,.3 17.8,.6 40.3,.6 22.6,0 40.2-.4 39.4-.9Zm-90.5-10c-.6-.5-2.1-1.2-3.5-1.5 -2.4-.7-2.4-.6-.6,.8 2.1,1.7 5.7,2.3 4.1,.7Zm54-11.1c.4-.6-1-1-3.4-1 -2.2,0-4.3,.4-4.6,1 -.4,.6 1,1 3.4,1 2.2,0 4.3-.5 4.6-1Zm-8,4c.4-.6-1-1-3.4-1 -2.3,0-4.1,.4-4.1,1 0,.5 1.5,1 3.4,1 1.9,0 3.8-.5 4.1-1Zm-33.7,6.5c-.3-.3-2.2-.9-4.2-1.2 -4.8-.8-4.8,1.4-.1,2.3 3.4,.6 5.5,.1 4.3-1.1Zm22.1-9.6c-1.9-1.2-2.6-1.1-3.4,.2 -1,1.6 .1,2.2 2.6,1.4 1.7-.6 1.9-.9 .8-1.6Zm-45.9,9.6c-3.3-1.9-5-1.8-2.6,0 1.1,.8 2.7,1.5 3.5,1.5 1-.1 .7-.6-.9-1.5Zm105.7,4.1c.4-.3-.2-.6-1.3-.5 -1.1,0-1.4,.3-.6,.6 .7,.3 1.6,.2 1.9-.1Zm-45.3-21.1c.4-1.1-.2-1.5-2.3-1.5 -2.8,0-4.1,.7-4.1,2.2s5.8,.9 6.4-.7Zm12.6,0c0-.3-1.7-.5-3.9-.5 -4.5,0-7.7,2.6-3.9,3.2 2.1,.4 7.8-1.6 7.8-2.7Zm-.3-19.5c-.1-1.1-.5-2-.9-2 -.4,0-.8,.9-.8,2 0,1.1 .4,2 .9,2 .6,0 .9-.9 .8-2Z" fill="#5b2333"/><path d="M21.857,39.493c-3.2,.6-2.9,2.3 .5,2.4 1.6,.1 2,.3 1,.6 -2.8,.7-2.1,2 1.3,2.7 5.4,1 47.9,.7 47.9-.4 0-.6-6.1-1-16.2-1.1 -9-.1-18.8-.4-21.8-.8l-5.5-.7 5-.7c2.8-.4 15.7-.8 28.7-.9 13.1-.2 23.8-.6 23.8-1.1 0-.7-60.7-.8-64.7,0Zm96.7,16.3 -8.5,.6 9.3,.2c6,.1 9.1-.2 8.7-.8 -.3-.6-.7-.9-.8-.8 -.1,.1-4,.5-8.7,.8Zm-93,10.9c0,1.7 6.2,4.1 10.5,4.1 4.9,0 4.7-2.6-.2-3.3 -2.1-.3-5.3-.9-7-1.2 -2.3-.5-3.3-.4-3.3,.4Zm1.6,5.9c-1.1,1.8 4.2,4.2 9.4,4.2 3.6,0 5-.4 5-1.4 0-.8-1.2-1.7-2.7-2 -7.6-1.4-11.1-1.7-11.7-.8Zm5.4,5.7c0,.9 8.3,2.6 9.9,2 1.4-.6 1.4-.8-.4-1.5 -2.1-.9-9.5-1.3-9.5-.5Zm-3,2.3c0,2.6 4.3,4.4 12.4,5 5.6,.4 6.8,.2 6.4-.9 -.3-.8-2.5-1.7-5.4-2 -2.7-.4-6.6-1.4-8.8-2.3 -4.8-2-4.6-2-4.6,.2Zm1.5,7.2c-.4,.6 1,1.7 3.1,2.6 4.3,1.8 15.2,2.4 15.6,.9 .3-.9-2.8-1.7-14.9-4 -1.8-.3-3.4-.1-3.8,.5Zm2.5,7.1c0,1.5 5.7,3.6 12.3,4.4 4.7,.6 5.7,.5 5.7-.7 0-1.1-2.4-2-8.2-3.2 -9.8-1.9-9.8-1.9-9.8-.5Zm3.5,7c-1,1.5 6.4,4.1 13.4,4.7 5.1,.4 6.3,.2 5.9-.9 -.4-1.2-3.3-2-15.5-4.2 -1.8-.4-3.5-.2-3.8,.4Zm4.7,8c1,2.9 17.8,6.3 19.3,3.9 1.1-1.7-1-2.8-7-3.5 -2.7-.3-6.7-.8-8.9-1.1 -2.8-.5-3.7-.3-3.4,.7Zm5,7c.7,2.3 9.7,4.8 17.2,4.9 5.7,0 6.7-.2 5.7-1.4 -.6-.8-4.9-1.9-9.4-2.6 -4.5-.6-9.5-1.4-11.1-1.7 -2.2-.5-2.8-.3-2.4,.8Zm69.3,71.3c3.5,1.8 6.4,2.1 4.9,.6 -.5-.5-2.5-1.2-4.4-1.5l-3.5-.5 3,1.4Zm-8.5,2.4c0,1.2 7.8,4.7 8.6,3.9 .3-.3-1.2-1.5-3.5-2.6 -4.5-2.3-5.1-2.5-5.1-1.3Zm112.3,3.9c-2.5,.5-3.2,2.3-.9,2.3 2.2,0 4.6-1.1 4.6-2.1 0-.5-.3-.8-.7-.8 -.5,.1-1.8,.4-3,.6Zm-117.8,1.2c.7,1.3 7.5,3.5 8.2,2.7 .3-.3-1-1.3-3-2.1 -4.1-1.7-6.1-1.9-5.2-.6Zm-6.5,3.5c0,.7 4.6,3.1 7.8,4 1.2,.4 2.2,.3 2.2-.2s-1.7-1.4-3.7-2.1c-2.1-.7-4.4-1.5-5-1.7 -.7-.3-1.3-.3-1.3,0Zm-4,5.6c0,.4 1.2,1.3 2.8,1.8 1.5,.5 3.5,1.3 4.5,1.7 .9,.4 1.7,.3 1.7-.2s-2-1.6-4.5-2.5c-2.5-1-4.5-1.3-4.5-.8Zm-3,4.9c0,1 8,4.4 8.7,3.7 .5-.4-6.9-4.6-8.2-4.6 -.3,0-.5,.4-.5,.9Zm1,6.6c1.4,.8 3.2,1.4 4,1.4 .9,0 .4-.6-1-1.4 -1.4-.8-3.2-1.4-4-1.4 -.9,0-.4,.6 1,1.4Z" fill="#5b2333" fill-rule="nonzero"/><path d="M25.66,253.991v.045l-.042,.05c.016-.034 .03-.065 .042-.095Zm.036-6.837v.036l-.007,0 .007-.036Z" fill="#5b2333"/></svg>