<?xml version="1.0" encoding="UTF-8" standalone="no"?>
<!DOCTYPE svg PUBLIC "-//W3C//DTD SVG 1.1//EN" "http://www.w3.org/Graphics/SVG/1.1/DTD/svg11.dtd">
<svg width="100%" height="100%" viewBox="0 0 1024 1024" version="1.1" xmlns="http://www.w3.org/2000/svg" xmlns:xlink="http://www.w3.org/1999/xlink" xml:space="preserve" xmlns:serif="http://www.serif.com/" style="fill-rule:evenodd;clip-rule:evenodd;stroke-linejoin:round;stroke-miterlimit:2;">
    <g transform="matrix(0.1,0,0,-0.1,0,1024)">
        <path d="M5037,9447C4990,9399 4940,9335 4924,9306L4896,9252L4832,9247C4728,9239 4650,9171 4636,9077C4627,9020 4651,8958 4692,8929C4753,8885 4860,8898 4860,8949C4860,8971 4839,8982 4819,8969C4795,8954 4770,8959 4745,8985C4726,9004 4720,9020 4720,9056C4720,9095 4725,9107 4753,9135C4801,9183 4855,9190 4923,9156C5005,9116 5050,9029 5050,8908C5050,8854 5049,8850 5026,8850C5006,8850 5002,8856 4997,8899C4986,8992 4941,9052 4874,9066C4833,9074 4794,9043 4805,9011C4811,8991 4817,8989 4843,8994C4892,9004 4920,8971 4920,8903L4920,8850L4788,8849C4715,8849 4602,8849 4538,8850C4430,8851 4420,8850 4420,8833C4420,8823 4438,8735 4460,8637C4482,8539 4500,8454 4500,8449C4500,8444 4487,8446 4470,8455C4415,8484 4352,8464 4330,8411C4309,8360 4321,8260 4353,8211C4368,8189 4380,8168 4380,8165C4380,8162 4366,8160 4350,8160C4304,8160 4256,8136 4231,8102C4188,8042 4211,7936 4275,7894C4309,7872 4378,7872 4411,7893C4435,7909 4437,7909 4458,7887C4477,7867 4510,7801 4510,7784C4510,7780 4502,7784 4493,7792C4433,7843 4348,7831 4316,7766C4296,7726 4297,7718 4327,7628C4335,7601 4303,7605 4264,7635C4222,7667 4200,7667 4200,7635C4200,7603 4250,7547 4303,7521L4345,7501L4285,7506C4252,7509 4182,7518 4130,7527C3937,7558 3863,7585 3816,7640C3748,7722 3819,7842 3917,7809C3984,7787 3991,7698 3926,7698C3880,7698 3895,7648 3950,7620C4042,7573 4227,7541 4214,7574C4211,7582 4192,7591 4172,7594C4111,7605 4036,7629 4017,7644C3999,7658 3999,7660 4016,7684C4072,7771 3998,7880 3882,7880C3759,7880 3677,7759 3724,7646C3733,7624 3738,7605 3736,7602C3733,7600 3665,7612 3583,7629C3502,7646 3429,7660 3423,7660C3413,7660 3410,7599 3410,7390L3410,7120L3373,7135C3328,7154 3322,7159 3337,7168C3360,7183 3371,7231 3359,7267C3329,7359 3171,7365 3108,7277C3095,7259 3085,7226 3082,7194C3078,7144 3076,7142 3044,7136C3002,7128 2907,7064 2850,7005L2805,6958L2875,6893C2942,6830 3025,6780 3063,6780C3076,6780 3080,6771 3080,6740C3080,6630 3186,6547 3284,6580C3304,6586 3329,6603 3340,6617C3367,6651 3367,6713 3340,6740L3319,6761L3354,6775C3374,6783 3394,6790 3400,6790C3406,6790 3410,6711 3410,6560C3410,6365 3412,6330 3425,6330C3433,6330 3503,6344 3580,6360C3657,6377 3723,6390 3726,6390C3729,6390 3724,6380 3716,6368C3677,6313 3715,6230 3779,6230C3821,6230 3828,6249 3796,6275C3758,6305 3764,6337 3815,6372C3866,6407 3873,6407 3853,6372C3815,6306 3886,6224 3965,6244C3996,6252 4012,6282 4002,6311C3996,6326 3991,6329 3986,6322C3976,6305 3935,6307 3920,6325C3902,6346 3915,6385 3948,6408C4013,6455 4229,6484 4328,6460C4461,6429 4531,6311 4465,6231C4433,6194 4379,6174 4351,6190C4318,6207 4307,6236 4322,6268C4333,6289 4342,6295 4370,6296C4412,6296 4418,6313 4391,6356C4331,6454 4114,6469 4036,6381C4018,6361 4017,6358 4033,6343C4048,6327 4051,6328 4074,6349C4087,6361 4104,6370 4111,6369C4119,6368 4150,6370 4181,6374C4222,6380 4246,6378 4273,6366C4314,6349 4319,6336 4291,6321C4239,6293 4238,6184 4290,6138C4332,6100 4410,6099 4464,6135C4484,6148 4500,6158 4500,6156C4500,6154 4487,6120 4470,6080C4436,5997 4434,5986 4455,5994C4467,5998 4470,5991 4470,5964C4470,5908 4497,5862 4544,5838C4566,5827 4586,5817 4587,5816C4596,5808 4541,5211 4529,5189C4524,5180 4496,5158 4465,5141C4399,5103 4353,5044 4344,4984C4338,4945 4351,4846 4366,4805C4370,4795 4362,4793 4331,4797C4296,4802 4287,4799 4260,4772C4215,4726 4220,4717 4288,4725C4320,4728 4357,4727 4372,4721C4406,4708 4460,4655 4460,4634C4460,4615 4527,4537 4534,4548C4540,4558 4592,4948 4614,5145C4645,5421 4650,5468 4665,5665C4688,5976 4699,6171 4705,6340C4708,6425 4713,6522 4716,6554L4721,6613L4628,6606C4309,6582 3921,6521 3523,6433L3500,6428L3500,7562L3523,7557C3799,7489 4347,7406 4591,7393L4722,7387L4716,7471C4679,7923 4629,8269 4559,8566C4543,8637 4527,8710 4523,8728L4517,8760L5125,8760C5699,8760 5732,8759 5725,8743C5708,8698 5647,8407 5620,8245C5580,8001 5563,7868 5545,7655C5537,7556 5528,7456 5526,7432C5524,7409 5525,7388 5529,7386C5536,7381 5888,7413 6010,7430C6138,7447 6365,7486 6560,7524C6656,7543 6737,7556 6739,7554C6746,7547 6746,6442 6739,6436C6735,6432 6690,6439 6639,6450C6312,6523 5898,6587 5631,6606L5527,6613L5535,6384C5539,6258 5545,6115 5549,6065L5555,5975L5595,5978C5617,5980 5637,5983 5638,5985C5640,5987 5637,6051 5631,6127C5625,6204 5620,6324 5620,6394C5620,6522 5620,6522 5643,6516C5655,6513 5674,6510 5685,6510C5697,6510 5701,6507 5694,6502C5676,6490 5660,6453 5660,6424C5660,6400 5664,6403 5702,6455L5745,6512L5789,6506C5813,6503 5849,6500 5869,6499C5898,6499 5901,6497 5885,6490C5874,6485 5843,6478 5817,6475C5688,6458 5644,6328 5687,6088L5705,5990L5757,5990C5786,5990 5810,5992 5810,5994C5810,5996 5795,6031 5776,6071C5757,6112 5743,6146 5745,6148C5746,6150 5763,6142 5781,6131C5804,6117 5832,6110 5867,6110C5910,6110 5925,6115 5951,6138C6006,6188 5999,6298 5938,6331L5917,6343L5941,6356C5978,6376 6034,6383 6073,6372C6092,6367 6114,6366 6121,6371C6130,6376 6144,6371 6162,6353C6190,6326 6220,6327 6220,6355C6220,6398 6133,6440 6044,6440C5952,6440 5863,6396 5840,6340C5825,6303 5832,6292 5868,6298C5898,6302 5913,6290 5924,6253C5929,6236 5924,6224 5905,6204C5870,6169 5827,6177 5783,6225C5689,6325 5801,6457 5988,6468C6075,6473 6211,6451 6268,6423C6314,6401 6340,6358 6324,6333C6311,6311 6274,6304 6256,6319C6246,6328 6241,6325 6237,6309C6229,6280 6237,6265 6266,6251C6298,6237 6313,6237 6345,6252C6391,6273 6418,6358 6388,6388C6366,6410 6391,6400 6436,6370C6488,6334 6495,6300 6455,6274C6420,6251 6423,6230 6460,6230C6522,6230 6562,6310 6530,6371C6524,6381 6521,6390 6522,6390C6524,6390 6588,6377 6665,6360C6742,6344 6810,6330 6817,6330C6827,6330 6830,6382 6830,6561C6830,6787 6830,6791 6850,6786C6861,6783 6879,6777 6890,6774C6914,6768 6916,6747 6895,6730C6886,6723 6880,6701 6880,6678C6880,6606 6958,6558 7040,6580C7116,6600 7160,6657 7160,6732C7160,6776 7160,6776 7207,6789C7257,6802 7329,6852 7395,6919L7434,6960L7390,7006C7324,7073 7259,7118 7207,7132L7160,7144L7160,7190C7160,7244 7133,7292 7088,7321C7062,7337 7043,7340 6997,7337C6948,7334 6934,7329 6908,7302C6870,7265 6865,7213 6895,7180C6917,7156 6908,7143 6862,7134L6830,7128L6830,7394C6830,7624 6828,7660 6815,7660C6807,7660 6754,7649 6697,7636C6641,7623 6573,7609 6547,7605L6499,7599L6515,7631C6538,7674 6531,7770 6503,7808C6452,7877 6361,7900 6284,7864C6218,7833 6191,7750 6228,7688C6244,7660 6244,7658 6226,7645C6204,7628 6132,7604 6077,7595C6044,7590 6019,7568 6032,7555C6040,7546 6166,7571 6235,7595C6304,7619 6355,7660 6347,7684C6345,7690 6330,7697 6314,7700C6271,7708 6258,7751 6289,7784C6302,7797 6323,7811 6336,7814C6372,7823 6426,7796 6445,7760C6477,7699 6443,7632 6360,7590C6252,7536 5828,7479 5768,7511C5746,7523 5720,7577 5720,7612C5720,7680 5806,7773 5849,7751C5877,7735 5883,7706 5865,7670C5855,7650 5842,7640 5827,7640C5766,7640 5761,7555 5821,7525C5861,7504 5899,7506 5956,7535C6006,7560 6040,7602 6040,7638C6040,7670 6025,7672 5996,7645C5969,7620 5924,7603 5914,7613C5911,7616 5916,7632 5924,7649C5966,7730 5923,7823 5842,7823C5819,7823 5786,7814 5766,7802C5746,7790 5730,7782 5730,7785C5730,7800 5771,7878 5787,7892C5805,7909 5808,7909 5845,7890C5867,7879 5893,7870 5903,7870C5940,7870 5987,7901 6008,7939C6065,8040 6005,8160 5897,8160L5863,8160L5894,8222C5918,8270 5925,8296 5924,8341C5923,8440 5871,8485 5786,8462C5763,8456 5744,8452 5743,8453C5742,8454 5759,8534 5781,8630C5803,8726 5821,8814 5823,8825C5825,8844 5818,8845 5573,8848L5320,8850L5320,8904C5320,8968 5343,8995 5398,8995C5441,8995 5452,9020 5424,9051C5402,9075 5364,9075 5323,9050C5284,9027 5271,9003 5251,8920C5238,8866 5231,8854 5213,8852C5192,8849 5190,8853 5190,8897C5190,8965 5216,9058 5247,9098C5275,9135 5359,9180 5400,9180C5432,9180 5484,9148 5505,9117C5526,9084 5527,9027 5506,8996C5490,8971 5474,8966 5417,8970C5379,8972 5369,8943 5399,8918C5443,8883 5537,8902 5578,8955C5621,9009 5619,9087 5573,9157C5538,9212 5483,9241 5405,9248L5342,9253L5325,9296C5314,9325 5276,9374 5215,9437L5121,9535L5037,9447ZM5236,9283C5256,9237 5254,9219 5221,9174C5175,9113 5149,9034 5142,8941C5138,8893 5130,8855 5124,8853C5111,8849 5100,8895 5100,8954C5100,9013 5077,9085 5035,9153C4980,9244 4986,9277 5079,9373L5125,9421L5173,9368C5200,9339 5228,9301 5236,9283ZM4495,8376C4519,8352 4544,8281 4538,8252C4532,8221 4496,8233 4477,8273C4458,8311 4440,8314 4440,8280C4440,8270 4467,8222 4500,8173C4533,8125 4560,8079 4560,8071C4560,8035 4398,8241 4385,8293C4364,8377 4438,8433 4495,8376ZM5840,8380C5865,8355 5866,8308 5842,8258C5825,8221 5689,8048 5682,8054C5674,8062 5711,8131 5754,8189C5779,8224 5800,8263 5800,8276C5800,8308 5789,8306 5765,8267C5741,8229 5716,8225 5712,8259C5698,8358 5782,8438 5840,8380ZM4458,8063C4511,8033 4555,7973 4576,7906C4596,7836 4620,7670 4620,7587C4620,7549 4625,7510 4630,7499C4640,7482 4637,7480 4595,7480C4548,7480 4539,7489 4565,7510C4576,7519 4580,7542 4580,7589C4580,7760 4526,7915 4448,7974L4420,7994L4400,7972C4345,7913 4251,7990 4295,8057C4327,8106 4381,8108 4458,8063ZM5940,8068C5967,8039 5965,8004 5935,7975C5908,7947 5873,7943 5844,7965C5815,7987 5794,7983 5764,7948C5705,7878 5670,7756 5668,7623C5668,7554 5672,7524 5683,7506C5699,7482 5699,7482 5655,7478C5619,7476 5610,7478 5610,7491C5610,7500 5613,7510 5617,7514C5621,7517 5625,7560 5627,7608C5636,7868 5693,8020 5802,8073C5851,8097 5915,8095 5940,8068ZM4477,7715C4536,7653 4540,7550 4485,7514C4462,7499 4365,7492 4352,7504C4349,7507 4358,7510 4373,7510C4432,7510 4475,7552 4468,7601C4466,7618 4455,7628 4431,7636C4374,7654 4351,7710 4386,7745C4408,7766 4437,7756 4477,7715ZM3294,7240C3314,7221 3314,7220 3292,7197C3280,7184 3270,7167 3270,7159C3270,7131 3356,7070 3395,7070C3403,7070 3410,7061 3410,7050C3410,7033 3403,7030 3368,7030C3216,7030 3115,7135 3175,7231C3201,7273 3257,7277 3294,7240ZM7034,7260C7048,7255 7066,7237 7075,7219C7122,7128 7020,7030 6878,7030C6839,7030 6830,7033 6830,7048C6830,7061 6843,7069 6873,7077C6949,7098 6993,7158 6955,7190C6933,7208 6937,7236 6962,7254C6988,7273 6999,7273 7034,7260ZM7190,7055C7209,7049 7289,6996 7330,6962C7333,6959 7330,6955 7323,6953C7316,6951 7294,6935 7273,6918C7252,6901 7216,6879 7193,6868C7152,6850 7151,6850 7101,6870C7073,6881 7027,6899 6999,6910C6971,6921 6922,6933 6889,6937C6842,6942 6830,6946 6830,6960C6830,6974 6842,6978 6894,6982C6940,6986 6983,6999 7047,7029C7095,7051 7142,7068 7150,7066C7158,7063 7176,7058 7190,7055ZM3172,7039C3240,7004 3320,6980 3367,6980C3403,6980 3410,6977 3410,6960C3410,6943 3403,6940 3372,6940C3325,6940 3241,6916 3178,6884C3127,6858 3071,6853 3037,6872C3025,6878 2991,6901 2962,6923C2916,6958 2911,6965 2926,6973C2936,6979 2966,7000 2994,7021C3055,7067 3107,7072 3172,7039ZM3410,6871C3410,6859 3400,6850 3383,6845C3342,6836 3283,6794 3275,6769C3270,6755 3275,6738 3290,6717L3313,6687L3290,6668C3258,6642 3217,6645 3186,6676C3136,6727 3159,6814 3233,6851C3289,6880 3317,6888 3368,6889C3403,6890 3410,6887 3410,6871ZM6997,6862C7053,6833 7080,6796 7080,6749C7080,6698 7072,6682 7039,6665C7000,6644 6974,6646 6949,6671L6928,6692L6949,6714C6961,6726 6970,6746 6970,6757C6970,6784 6925,6822 6872,6839C6841,6849 6830,6859 6830,6873C6830,6891 6835,6892 6893,6888C6928,6885 6974,6873 6997,6862ZM4625,6448C4622,6408 4615,6274 4609,6150C4603,6026 4596,5923 4594,5921C4586,5912 4559,5932 4548,5956C4538,5977 4539,6002 4553,6083C4576,6218 4575,6323 4551,6375C4520,6441 4465,6480 4400,6480C4352,6480 4354,6500 4402,6502C4485,6505 4494,6502 4538,6455L4580,6408L4580,6437C4580,6453 4573,6475 4565,6487C4548,6511 4556,6518 4602,6519L4630,6520L4625,6448ZM4507,5012C4490,4960 4470,4832 4469,4767L4469,4725L4449,4780C4422,4857 4409,4943 4420,4981C4431,5017 4465,5058 4495,5070C4522,5080 4525,5068 4507,5012Z" style="fill:#5b2333;fill-rule:nonzero;"/>
        <path d="M4678,8644C4675,8641 4681,8600 4691,8553C4765,8214 4849,7561 4850,7322C4850,7252 4849,7250 4828,7254C4815,7257 4751,7261 4685,7265C4545,7272 4263,7302 4076,7331C3940,7352 3666,7404 3637,7416C3621,7422 3620,7392 3620,7000L3620,6578L3643,6584C3761,6616 4124,6676 4375,6704C4521,6721 4841,6743 4847,6736C4853,6730 4832,6271 4814,6005C4772,5383 4696,4657 4653,4467C4645,4430 4641,4393 4644,4385C4649,4372 4718,4370 5125,4370L5600,4370L5600,4398C5600,4413 5595,4445 5589,4469C5532,4718 5439,5683 5411,6315C5405,6442 5398,6589 5396,6643C5393,6704 5395,6740 5401,6740C5485,6740 5807,6712 5988,6689C6180,6665 6531,6605 6603,6584C6619,6579 6620,6603 6620,7000C6620,7397 6619,7421 6603,7416C6410,7357 5706,7260 5462,7260L5388,7260L5394,7358C5422,7778 5480,8220 5555,8565C5563,8604 5570,8638 5570,8643C5570,8651 4686,8653 4678,8644ZM5165,8555C5187,8533 5200,8510 5200,8494C5200,8473 5204,8470 5220,8475C5247,8483 5247,8453 5221,8377C5202,8321 5205,8305 5230,8335C5252,8361 5309,8371 5341,8354C5404,8322 5424,8231 5378,8183C5351,8154 5287,8153 5282,8183C5279,8196 5285,8200 5305,8200C5335,8200 5348,8224 5329,8246C5308,8272 5259,8260 5237,8223C5198,8155 5190,8043 5190,7536L5190,7057L5558,7063C5855,7067 5939,7071 6000,7085C6113,7111 6170,7146 6170,7189C6170,7203 6127,7203 6114,7190C6106,7182 6099,7184 6089,7196C6077,7210 6079,7215 6103,7236C6185,7306 6286,7207 6221,7120C6197,7087 6203,7084 6264,7101C6327,7118 6381,7104 6466,7049L6543,6999L6505,6960C6433,6887 6322,6859 6238,6894C6182,6918 6175,6913 6209,6875C6248,6830 6249,6797 6211,6759C6163,6712 6080,6729 6080,6786C6080,6812 6091,6816 6119,6798C6147,6781 6173,6795 6165,6822C6139,6911 5950,6943 5472,6938L5190,6935L5190,6031C5190,5130 5193,5030 5225,4953C5244,4909 5280,4887 5314,4899C5351,4913 5347,4948 5308,4963C5286,4971 5284,5006 5305,5014C5340,5027 5393,4987 5405,4938C5414,4902 5394,4845 5367,4827C5333,4805 5292,4798 5269,4811C5258,4817 5246,4819 5243,4816C5230,4803 5262,4758 5295,4744C5342,4725 5356,4696 5335,4664C5301,4612 5257,4624 5209,4697L5178,4745L5184,4706C5187,4684 5202,4642 5217,4612L5245,4557L5187,4504C5129,4450 5129,4450 5100,4465C5083,4474 5063,4492 5053,4506C5044,4520 5026,4536 5014,4540L4991,4549L5017,4595C5045,4646 5073,4730 5062,4730C5058,4730 5046,4714 5035,4694C5002,4632 4935,4614 4909,4662C4892,4695 4906,4724 4948,4743C4979,4757 5010,4792 5010,4814C5010,4816 4990,4815 4965,4812C4940,4810 4907,4813 4891,4820C4862,4832 4830,4881 4830,4915C4830,4940 4858,4988 4879,5000C4903,5012 4947,5013 4954,5001C4964,4985 4949,4961 4927,4958C4900,4954 4897,4913 4921,4897C4951,4878 4990,4898 5010,4943C5051,5035 5053,5082 5057,6029L5061,6942L4693,6937C4332,6932 4230,6923 4148,6892C4087,6867 4053,6790 4104,6790C4118,6790 4132,6795 4135,6800C4144,6815 4157,6812 4164,6794C4173,6771 4127,6730 4091,6730C4053,6730 4012,6766 4004,6806C3999,6832 4004,6844 4032,6875C4064,6912 4064,6913 4040,6906C3937,6874 3920,6872 3883,6882C3826,6898 3758,6935 3727,6967L3700,6996L3755,7037C3840,7101 3890,7116 3959,7102C4040,7085 4045,7086 4021,7116C3991,7154 3993,7205 4026,7235C4062,7269 4113,7268 4146,7235C4179,7202 4169,7187 4120,7195C4029,7210 4082,7135 4187,7101C4276,7072 4437,7061 4779,7060L5063,7060L5057,7558C5051,8073 5043,8168 5005,8227C4982,8261 4948,8275 4921,8260C4889,8243 4897,8206 4933,8202C4974,8197 4965,8166 4921,8162C4860,8156 4822,8215 4841,8286C4861,8355 4939,8381 5006,8339C5025,8328 5040,8320 5040,8323C5040,8325 5031,8353 5020,8385C5009,8417 5000,8452 5000,8463C5000,8477 5005,8481 5020,8477C5035,8473 5040,8477 5040,8491C5040,8510 5105,8590 5121,8590C5126,8590 5145,8574 5165,8555ZM4879,8554C4915,8524 4919,8492 4890,8459C4870,8435 4870,8435 4855,8454C4847,8465 4840,8491 4840,8511C4840,8532 4837,8555 4834,8564C4825,8588 4844,8583 4879,8554ZM5405,8570C5401,8564 5397,8536 5394,8508C5389,8450 5381,8436 5357,8446C5317,8461 5324,8535 5367,8562C5399,8582 5414,8585 5405,8570ZM5460,8428C5460,8410 5434,8380 5419,8380C5413,8380 5414,8389 5420,8401C5427,8412 5429,8433 5426,8446C5420,8469 5421,8469 5440,8458C5451,8451 5460,8438 5460,8428ZM4818,8423C4824,8403 4827,8384 4825,8381C4815,8371 4780,8414 4780,8437C4780,8473 4805,8464 4818,8423ZM4925,8102C4946,8106 4950,8103 4950,8084C4950,8056 4949,8056 4905,8074C4886,8082 4864,8102 4856,8119C4833,8163 4836,8166 4870,8130C4893,8106 4906,8099 4925,8102ZM5392,8123C5377,8096 5348,8073 5319,8066C5295,8061 5292,8063 5294,8084C5295,8105 5299,8108 5320,8103C5338,8100 5352,8106 5369,8124C5396,8153 5407,8152 5392,8123ZM5399,8023C5393,8007 5380,7985 5369,7974C5356,7960 5352,7950 5359,7945C5365,7942 5370,7932 5370,7923C5370,7911 5363,7909 5336,7914C5308,7919 5299,7917 5291,7901C5273,7868 5279,7842 5310,7818C5358,7783 5348,7731 5295,7744C5246,7756 5237,7877 5280,7947C5297,7976 5385,8049 5402,8050C5406,8050 5405,8038 5399,8023ZM4902,8007C4964,7960 4993,7900 4986,7830C4982,7790 4975,7770 4959,7757C4934,7737 4921,7739 4906,7763C4898,7776 4902,7786 4928,7813C4945,7831 4960,7855 4960,7866C4960,7897 4926,7924 4895,7916C4872,7910 4870,7912 4876,7934C4880,7951 4875,7969 4861,7989C4819,8047 4838,8056 4902,8007ZM5328,7674C5338,7666 5307,7631 5284,7626C5251,7617 5251,7618 5257,7657C5262,7687 5264,7689 5294,7683C5311,7680 5326,7676 5328,7674ZM4993,7648C4995,7630 4996,7614 4995,7612C4993,7610 4976,7616 4956,7624C4931,7634 4920,7645 4920,7659C4920,7676 4926,7680 4954,7680C4984,7680 4988,7677 4993,7648ZM4990,7318L4990,7130L4846,7130C4727,7130 4696,7133 4671,7148C4654,7157 4640,7167 4640,7170C4640,7173 4712,7174 4800,7172L4960,7169L4957,7332C4955,7429 4949,7503 4942,7516C4934,7532 4934,7540 4942,7548C4951,7557 4958,7553 4972,7532C4988,7508 4990,7481 4990,7318ZM5302,7515C5294,7499 5290,7430 5290,7329L5290,7169L5450,7172C5538,7174 5610,7172 5610,7169C5610,7166 5594,7156 5575,7147C5547,7133 5510,7130 5395,7130L5250,7130L5250,7316C5250,7489 5251,7504 5271,7532C5298,7569 5320,7556 5302,7515ZM3757,7286C3800,7311 3841,7289 3852,7236C3857,7215 3859,7195 3857,7194C3855,7192 3831,7197 3804,7206C3758,7221 3700,7271 3700,7295C3700,7300 3707,7297 3714,7287C3727,7271 3729,7270 3757,7286ZM6480,7285C6497,7276 6509,7275 6517,7282C6525,7288 6524,7280 6514,7261C6496,7224 6498,7226 6434,7207C6386,7193 6383,7193 6386,7208C6398,7271 6403,7282 6423,7290C6452,7301 6451,7302 6480,7285ZM6310,7251C6310,7210 6298,7206 6283,7242C6272,7267 6272,7275 6282,7281C6300,7292 6310,7282 6310,7251ZM3970,7276C3970,7274 3963,7257 3955,7239L3941,7205L3940,7243C3940,7269 3944,7280 3955,7280C3963,7280 3970,7278 3970,7276ZM4274,7192C4281,7171 4333,7143 4338,7158C4352,7200 4408,7222 4470,7209C4506,7201 4565,7146 4555,7130C4544,7112 4494,7119 4474,7141C4435,7184 4383,7189 4394,7148C4398,7130 4395,7129 4362,7134C4299,7145 4232,7173 4227,7189C4224,7198 4219,7213 4215,7224C4207,7241 4209,7241 4238,7226C4255,7217 4271,7202 4274,7192ZM6032,7218C6025,7211 6020,7198 6020,7188C6020,7178 6013,7170 6005,7170C5996,7170 5977,7164 5962,7156C5947,7149 5916,7140 5893,7137C5856,7133 5850,7135 5850,7150C5850,7181 5821,7181 5776,7148C5742,7125 5726,7119 5705,7124L5679,7131L5701,7161C5748,7228 5848,7236 5894,7178C5914,7152 5920,7149 5938,7159C5949,7165 5962,7179 5965,7190C5969,7201 5986,7217 6003,7224C6038,7239 6050,7236 6032,7218ZM3787,7156C3788,7155 3774,7147 3755,7138C3722,7124 3720,7124 3720,7140C3720,7164 3730,7170 3759,7163C3773,7160 3786,7156 3787,7156ZM6518,7142C6521,7120 6521,7120 6491,7137C6471,7149 6465,7157 6473,7162C6493,7175 6515,7166 6518,7142ZM4549,6834C4503,6786 4470,6770 4416,6770C4377,6770 4368,6775 4343,6805L4314,6840L4280,6815C4261,6801 4242,6783 4237,6775C4222,6747 4212,6760 4222,6795C4232,6827 4237,6830 4301,6845C4384,6863 4380,6863 4380,6845C4380,6806 4444,6812 4479,6854C4488,6864 4509,6870 4538,6870L4584,6870L4549,6834ZM5770,6845C5789,6831 5817,6820 5833,6820C5857,6820 5861,6823 5857,6840C5851,6862 5862,6865 5891,6850C5917,6835 5915,6815 5884,6791C5830,6749 5739,6771 5691,6839L5669,6870L5702,6870C5723,6870 5750,6860 5770,6845ZM3770,6824C3770,6822 3759,6820 3745,6820C3727,6820 3720,6825 3720,6840C3720,6860 3721,6860 3745,6844C3759,6835 3770,6826 3770,6824ZM4990,6565C4990,6280 4989,6269 4969,6249C4947,6227 4932,6228 4916,6253C4908,6265 4911,6275 4928,6293C4950,6316 4950,6322 4950,6569L4950,6822L4790,6818C4702,6817 4630,6816 4630,6818C4630,6819 4645,6829 4663,6840C4691,6857 4713,6860 4843,6860L4990,6860L4990,6565ZM5583,6837L5620,6814L5290,6822L5290,6573C5290,6338 5291,6321 5310,6297C5334,6267 5335,6256 5316,6241C5306,6232 5297,6234 5279,6249L5255,6268L5249,6860L5397,6860C5533,6860 5548,6858 5583,6837ZM6526,6844C6523,6835 6520,6826 6520,6824C6520,6815 6481,6820 6475,6830C6472,6836 6478,6840 6489,6840C6501,6840 6510,6845 6510,6850C6510,6856 6515,6860 6521,6860C6527,6860 6529,6853 6526,6844ZM5979,6836C6001,6828 6017,6814 6026,6792C6042,6752 6037,6752 5990,6793C5970,6810 5945,6830 5934,6837C5908,6853 5934,6853 5979,6836ZM3860,6788C3860,6781 3851,6760 3840,6743C3816,6703 3776,6699 3741,6731C3713,6757 3722,6768 3787,6786C3849,6802 3860,6803 3860,6788ZM6491,6774C6506,6767 6520,6752 6523,6740C6526,6729 6524,6722 6519,6725C6515,6728 6498,6724 6482,6716C6443,6696 6411,6713 6394,6763L6380,6802L6423,6795C6446,6791 6477,6782 6491,6774ZM6310,6743C6310,6727 6304,6720 6290,6720C6269,6720 6263,6735 6280,6745C6286,6748 6290,6761 6290,6773C6290,6791 6292,6792 6300,6780C6305,6772 6310,6755 6310,6743ZM3962,6755C3965,6741 3966,6730 3964,6730C3963,6730 3955,6728 3947,6725C3937,6720 3934,6726 3938,6750C3943,6786 3956,6789 3962,6755ZM4962,6168C4971,6161 4981,6144 4985,6131C4991,6111 4989,6108 4975,6113C4966,6117 4947,6120 4934,6120C4916,6120 4910,6125 4910,6143C4910,6181 4932,6191 4962,6168ZM5328,6149C5331,6125 5327,6122 5295,6118C5261,6114 5259,6115 5265,6139C5277,6187 5323,6194 5328,6149ZM5355,6040C5364,6025 5333,5980 5315,5980C5284,5980 5270,5890 5290,5821C5295,5803 5317,5765 5339,5736C5392,5667 5408,5613 5387,5574L5371,5545L5370,5591C5370,5628 5363,5648 5335,5686C5254,5798 5240,5855 5258,5995C5264,6034 5270,6047 5289,6057C5314,6069 5342,6062 5355,6040ZM4974,6038C4995,6008 4996,5853 4976,5805C4968,5786 4942,5743 4918,5708C4882,5656 4875,5637 4875,5598C4875,5550 4867,5537 4856,5566C4846,5592 4849,5650 4862,5673C4868,5685 4891,5719 4914,5748C4948,5794 4955,5811 4958,5861C4964,5939 4955,5967 4920,5985C4891,6000 4879,6036 4897,6053C4912,6069 4959,6059 4974,6038ZM5340,5877C5340,5869 5351,5853 5365,5840C5382,5824 5390,5806 5390,5783C5390,5742 5379,5741 5346,5781C5328,5802 5320,5823 5320,5851C5320,5872 5325,5890 5330,5890C5336,5890 5340,5884 5340,5877ZM4920,5848C4920,5809 4887,5750 4865,5750C4854,5750 4850,5761 4850,5788C4850,5820 4855,5829 4875,5838C4889,5844 4900,5856 4900,5865C4900,5873 4905,5880 4910,5880C4916,5880 4920,5865 4920,5848ZM4986,5635C4982,5608 4983,5582 4990,5570C5006,5540 4998,5536 4961,5557C4924,5578 4923,5590 4952,5641C4981,5693 4994,5691 4986,5635ZM5294,5639C5326,5584 5324,5580 5248,5542C5244,5540 5245,5553 5251,5570C5257,5587 5260,5619 5256,5641C5248,5692 5262,5691 5294,5639ZM4948,5474C5002,5436 5016,5339 4980,5236C4955,5163 4934,5134 4859,5069L4798,5016L4805,5050C4809,5069 4822,5101 4836,5120C4857,5150 4858,5156 4844,5171C4836,5180 4832,5194 4836,5203C4841,5218 4844,5218 4866,5203C4896,5184 4915,5196 4941,5255C4974,5326 4961,5390 4914,5390C4893,5390 4890,5386 4895,5370C4899,5357 4897,5350 4888,5350C4867,5350 4852,5364 4841,5393C4815,5461 4888,5517 4948,5474ZM5393,5458C5414,5433 5415,5401 5394,5372C5375,5345 5354,5344 5347,5370C5341,5394 5318,5396 5300,5375C5281,5352 5293,5271 5321,5228C5348,5186 5356,5183 5382,5206C5398,5222 5400,5222 5406,5206C5409,5197 5407,5183 5400,5175C5390,5163 5392,5149 5415,5099C5430,5066 5439,5036 5436,5033C5428,5025 5345,5094 5315,5134C5247,5223 5223,5344 5258,5423C5288,5492 5351,5508 5393,5458ZM4837,4732C4814,4707 4816,4690 4846,4649C4885,4598 4910,4537 4903,4509C4887,4443 4824,4421 4776,4465C4745,4494 4744,4504 4770,4530C4806,4566 4836,4529 4810,4479C4801,4464 4803,4460 4816,4460C4847,4460 4870,4491 4870,4532C4870,4566 4863,4578 4825,4616C4800,4640 4780,4668 4780,4678C4780,4703 4817,4750 4837,4750C4851,4750 4851,4748 4837,4732ZM5437,4728C5471,4696 5466,4669 5415,4618C5380,4582 5370,4565 5370,4538C5370,4495 5394,4460 5425,4460C5449,4460 5449,4460 5432,4490C5416,4517 5416,4521 5431,4536C5447,4551 5449,4551 5469,4531C5496,4504 5496,4494 5464,4465C5427,4430 5388,4433 5356,4471C5342,4488 5330,4509 5330,4518C5331,4544 5364,4611 5399,4654C5430,4692 5430,4700 5402,4733C5379,4759 5408,4755 5437,4728Z" style="fill:#5b2333;fill-rule:nonzero;"/>
        <path d="M5628,5916C5558,5909 5497,5900 5493,5896C5482,5885 5518,5696 5533,5685C5541,5679 5553,5641 5560,5600C5585,5449 5630,5289 5673,5198C5751,5033 5866,4906 5991,4847L6060,4815L6060,4758C6060,4704 6058,4700 6029,4685C5977,4657 5960,4634 5960,4586C5960,4536 5990,4499 6046,4478L6080,4466L6080,4385C6080,4296 6060,4199 6030,4141C6005,4092 5938,4032 5859,3990C5793,3955 5720,3895 5720,3876C5720,3860 5646,3830 5589,3823C5515,3814 5446,3841 5368,3910C5273,3993 5229,3997 5166,3931C5149,3914 5131,3900 5125,3900C5119,3900 5097,3920 5077,3945C5040,3989 5001,4007 5014,3974C5017,3965 5020,3949 5020,3937C5020,3925 5043,3889 5070,3857C5098,3825 5120,3790 5120,3779C5120,3761 5132,3760 5503,3760C5952,3760 6320,3750 6320,3738C6320,3734 6303,3730 6282,3730C6206,3730 6090,3717 6090,3709C6090,3704 6120,3700 6158,3699C6195,3698 6236,3695 6250,3691C6264,3687 5976,3683 5610,3683C5244,3683 4969,3685 4998,3687C5044,3691 5052,3695 5060,3716C5078,3762 5071,3782 5021,3830C4974,3875 4950,3924 4950,3973C4950,3984 4890,4056 4818,4134C4660,4302 4453,4534 4390,4612L4345,4668L4259,4663C4194,4659 4145,4663 4054,4680C3836,4722 3708,4709 3596,4634L3546,4602L3488,4631C3336,4708 3234,4707 2994,4629C2866,4588 2817,4577 2744,4573L2653,4567L2640,4531C2609,4444 2578,4390 2558,4390C2530,4390 2484,4364 2466,4338C2430,4287 2447,4253 2620,4030C2669,3967 2708,3914 2706,3913C2704,3911 2683,3919 2657,3930C2588,3960 2528,3966 2476,3946C2418,3924 2396,3890 2403,3833L2408,3790L2371,3796C2351,3800 2325,3806 2313,3811C2292,3819 2291,3821 2305,3854C2324,3899 2324,3924 2305,3960C2263,4040 2120,4039 2070,3958C2015,3868 2022,3809 2102,3698C2122,3671 2082,3637 2023,3630C1976,3625 1975,3624 1972,3588C1969,3559 1973,3549 1991,3540C2006,3531 2123,3529 2420,3531C2826,3535 2956,3529 2714,3517C2585,3511 2560,3503 2560,3469C2560,3432 2606,3426 2697,3450L2779,3472L7495,3474L7577,3450C7645,3431 7664,3428 7685,3438C7706,3448 7711,3456 7708,3477C7705,3501 7699,3506 7665,3511C7540,3533 7067,3538 5700,3533C4889,3530 3982,3531 3685,3535L3145,3544L3355,3561C3781,3598 4116,3611 4835,3621C5911,3635 6596,3618 7290,3560C7601,3534 7698,3530 7974,3531C8139,3531 8279,3534 8286,3537C8300,3542 8325,3608 8316,3617C8313,3620 8289,3624 8263,3626C8230,3629 8210,3637 8198,3651C8174,3680 8175,3697 8205,3732C8298,3842 8228,4020 8092,4020C8036,4020 7996,3999 7980,3961C7968,3931 7970,3871 7984,3838C7990,3824 7983,3819 7943,3807C7917,3799 7881,3795 7863,3797L7831,3802L7855,3839C7921,3940 7926,4072 7869,4188C7832,4264 7735,4366 7643,4427C7559,4482 7423,4531 7337,4535C7298,4537 7245,4549 7212,4562C7163,4581 7136,4584 7025,4584C6909,4585 6887,4582 6822,4558C6782,4544 6734,4520 6715,4506C6697,4492 6671,4480 6658,4480C6600,4480 6404,4401 6385,4370C6371,4347 6360,4363 6360,4405C6360,4446 6363,4453 6391,4468C6447,4498 6471,4524 6476,4560C6485,4614 6467,4647 6415,4672C6374,4692 6370,4697 6370,4729C6370,4796 6379,4808 6450,4845C6520,4882 6622,4975 6670,5045C6711,5104 6774,5235 6799,5310C6810,5346 6830,5437 6843,5512C6857,5594 6872,5656 6882,5667C6898,5685 6930,5809 6930,5854C6930,5884 6897,5896 6785,5905C6747,5909 6695,5913 6670,5916C6553,5928 5749,5928 5628,5916ZM6715,5850C6894,5832 6887,5816 6702,5824C6614,5827 6551,5826 6554,5821C6557,5816 6623,5809 6700,5805C6806,5800 6840,5795 6840,5784C6840,5777 6836,5769 6832,5766C6828,5764 6699,5756 6545,5750C6337,5741 6178,5741 5926,5748C5740,5754 5585,5761 5583,5764C5580,5766 5576,5786 5573,5808L5568,5848L5651,5854C5697,5858 5755,5862 5780,5864C5879,5872 6603,5861 6715,5850ZM6179,5686C6472,5683 6714,5679 6718,5676C6727,5666 6768,5669 6775,5680C6784,5695 6800,5692 6800,5676C6800,5654 6755,5650 6365,5644C5971,5637 5759,5644 5763,5663C5764,5671 5745,5676 5713,5678C5664,5681 5642,5669 5673,5657C5679,5654 5671,5651 5654,5651C5634,5650 5620,5656 5616,5666C5606,5693 5609,5702 5628,5696C5638,5692 5886,5688 6179,5686ZM6503,5575C6562,5570 6610,5563 6610,5559C6610,5555 6579,5548 6540,5544C6502,5541 6470,5534 6470,5529C6470,5525 6501,5520 6540,5518C6595,5516 6608,5512 6601,5502C6597,5494 6573,5486 6549,5484C6525,5481 6494,5476 6480,5474C6433,5464 6486,5448 6542,5455C6587,5461 6592,5460 6588,5444C6584,5423 6553,5412 6493,5411C6420,5409 6435,5391 6512,5388L6585,5385L6563,5363C6546,5346 6528,5340 6498,5340C6474,5340 6448,5336 6440,5330C6417,5316 6453,5306 6506,5314C6545,5319 6551,5317 6548,5303C6544,5280 6524,5272 6458,5265C6382,5257 6384,5240 6460,5240C6493,5240 6520,5237 6520,5233C6519,5208 6497,5197 6436,5193C6400,5190 6370,5184 6370,5179C6370,5175 6397,5170 6430,5168L6490,5165L6475,5143C6461,5123 6450,5120 6395,5120C6360,5120 6328,5116 6325,5110C6321,5104 6344,5100 6386,5100L6453,5100L6430,5075C6409,5053 6398,5050 6339,5050C6234,5050 6241,5030 6350,5018L6374,5015L6347,4997C6324,4982 6296,4979 6177,4979C6098,4978 6018,4981 5997,4985C5972,4990 5960,4989 5960,4981C5960,4966 6012,4944 6070,4935C6094,4931 6120,4921 6126,4913C6134,4901 6158,4898 6251,4901C6357,4905 6368,4907 6413,4935C6440,4952 6486,4990 6516,5020C6608,5115 6712,5343 6741,5513C6749,5564 6758,5590 6767,5590C6776,5590 6779,5582 6775,5568C6732,5369 6708,5295 6650,5180C6583,5048 6500,4962 6385,4908C6321,4879 6316,4878 6197,4882C6080,4885 6072,4887 6010,4920C5824,5020 5700,5231 5641,5546L5633,5589L6014,5585C6224,5584 6443,5579 6503,5575ZM6695,5543C6678,5422 6605,5217 6577,5212C6550,5207 6556,5236 6588,5260C6606,5274 6611,5283 6603,5286C6583,5295 6588,5313 6618,5337C6639,5355 6641,5359 6628,5360C6602,5360 6606,5385 6635,5404C6663,5422 6668,5440 6645,5440C6622,5440 6627,5456 6655,5474C6683,5492 6688,5510 6665,5510C6657,5510 6650,5514 6650,5519C6650,5524 6657,5530 6665,5534C6683,5541 6685,5570 6668,5571C6658,5571 6683,5586 6699,5589C6701,5590 6699,5569 6695,5543ZM6570,5169C6558,5147 6533,5134 6523,5144C6514,5152 6550,5190 6567,5190C6578,5190 6578,5186 6570,5169ZM6530,5102C6530,5088 6492,5058 6480,5062C6466,5066 6497,5110 6516,5110C6524,5110 6530,5106 6530,5102ZM6455,5010C6445,4999 6427,4990 6416,4990C6396,4991 6396,4991 6419,5010C6432,5021 6449,5030 6458,5030C6471,5030 6470,5027 6455,5010ZM6370,4940C6362,4935 6344,4930 6330,4930C6310,4930 6308,4932 6320,4940C6328,4945 6346,4950 6360,4950C6380,4950 6382,4948 6370,4940ZM6300,4799C6300,4792 6238,4780 6195,4780C6153,4780 6131,4765 6148,4748C6160,4736 6239,4710 6273,4707C6282,4706 6290,4703 6290,4699C6290,4695 6254,4690 6210,4688L6130,4685L6130,4725C6130,4747 6127,4774 6124,4785C6119,4804 6124,4805 6209,4805C6259,4805 6300,4802 6300,4799ZM4084,4620C4164,4607 4232,4601 4264,4605L4315,4610L4385,4524C4424,4476 4542,4342 4649,4226L4842,4015L4794,4012C4767,4010 4664,4019 4565,4031C4411,4050 4374,4052 4309,4042C4229,4031 4115,3986 4091,3957C4084,3948 4072,3940 4066,3940C4055,3940 4020,3993 4020,4010C4020,4014 4000,4040 3975,4066C3950,4093 3930,4119 3930,4123C3930,4127 3917,4145 3900,4163C3884,4181 3870,4203 3870,4213C3870,4223 3865,4228 3860,4225C3847,4217 3811,4259 3810,4283C3810,4292 3804,4300 3797,4300C3782,4300 3740,4353 3740,4372C3740,4379 3730,4390 3718,4395C3705,4401 3689,4420 3681,4438C3673,4455 3660,4470 3653,4470C3645,4470 3637,4478 3633,4488C3630,4497 3615,4515 3601,4527C3575,4550 3575,4550 3595,4566C3629,4593 3693,4623 3745,4637C3808,4653 3914,4648 4084,4620ZM6300,4635C6347,4627 6386,4620 6387,4620C6388,4620 6394,4612 6399,4601C6406,4588 6405,4578 6395,4564C6382,4548 6381,4547 6386,4563C6389,4572 6387,4580 6381,4580C6375,4580 6373,4587 6376,4595C6381,4607 6374,4610 6349,4610C6330,4610 6304,4607 6290,4603L6265,4596L6290,4589C6314,4582 6315,4582 6292,4581C6279,4580 6272,4576 6275,4570C6279,4564 6270,4560 6256,4560C6242,4560 6230,4556 6230,4550C6230,4545 6249,4540 6272,4540C6304,4540 6311,4537 6302,4528C6287,4513 6096,4531 6054,4552C6018,4569 6011,4604 6040,4620C6058,4629 6135,4643 6200,4649C6208,4649 6253,4643 6300,4635ZM3433,4591C3470,4573 3510,4549 3521,4537C3532,4525 3621,4415 3718,4292C3815,4169 3912,4048 3932,4022C3967,3978 3975,3955 3948,3977C3925,3996 3832,4010 3737,4010C3665,4010 3620,4003 3530,3979C3375,3937 3307,3922 3233,3914C3173,3908 3170,3908 3147,3936C3092,4002 2772,4409 2740,4452C2722,4479 2709,4503 2713,4506C2716,4509 2755,4516 2799,4521C2844,4526 2942,4550 3017,4574C3093,4598 3164,4620 3175,4623C3186,4626 3233,4628 3280,4626C3352,4624 3375,4619 3433,4591ZM7033,4533C7020,4531 6998,4531 6983,4533C6967,4535 6978,4537 7005,4537C7033,4537 7045,4535 7033,4533ZM6910,4518C6861,4507 6833,4490 6866,4490C6876,4490 6912,4495 6945,4500C7100,4525 7263,4445 7376,4287C7459,4171 7493,4130 7501,4136C7516,4145 7511,4215 7492,4278C7472,4339 7418,4427 7394,4437C7363,4449 7383,4457 7422,4448C7485,4434 7619,4365 7673,4319C7739,4262 7808,4163 7816,4112C7820,4086 7819,4070 7812,4070C7800,4070 7790,4094 7790,4121C7790,4149 7739,4215 7730,4200C7725,4192 7717,4196 7706,4211C7694,4229 7693,4236 7703,4243C7712,4249 7711,4250 7700,4247C7692,4245 7677,4247 7667,4252C7652,4259 7649,4258 7652,4243C7654,4231 7647,4224 7625,4220C7605,4216 7599,4212 7608,4207C7615,4202 7633,4201 7649,4205C7668,4209 7681,4206 7689,4196C7707,4174 7694,4160 7655,4160C7636,4160 7618,4156 7615,4150C7606,4135 7661,4126 7683,4139C7706,4154 7724,4141 7718,4114C7716,4100 7705,4095 7680,4094C7624,4092 7618,4091 7625,4080C7628,4075 7653,4070 7681,4070C7723,4070 7730,4067 7730,4050C7730,4032 7723,4030 7658,4029C7597,4029 7589,4027 7613,4018C7628,4013 7640,4002 7640,3994C7640,3983 7627,3981 7578,3985C7534,3989 7523,3987 7540,3981C7620,3953 7624,3950 7609,3934C7596,3921 7589,3921 7551,3935C7488,3957 7479,3953 7528,3923C7562,3903 7568,3895 7559,3884C7549,3871 7545,3871 7531,3884C7515,3898 7436,3940 7425,3940C7422,3940 7420,3935 7420,3929C7420,3924 7441,3909 7468,3898C7494,3887 7518,3872 7522,3866C7548,3827 7500,3832 7413,3879C7373,3900 7340,3914 7340,3910C7340,3898 7372,3873 7419,3848C7469,3822 7483,3800 7451,3800C7427,3800 7322,3851 7278,3883C7263,3894 7247,3901 7244,3897C7234,3888 7281,3852 7357,3809C7423,3772 7429,3753 7370,3770C7330,3782 7236,3834 7188,3872C7167,3888 7150,3897 7150,3892C7150,3878 7222,3815 7269,3788C7316,3762 7321,3750 7285,3750C7254,3750 7193,3787 7118,3852C7084,3881 7060,3895 7060,3887C7060,3873 7130,3803 7185,3763L7215,3741L7186,3740C7154,3740 7088,3785 7025,3849C7004,3872 6982,3890 6977,3890C6960,3890 7001,3836 7053,3788C7081,3762 7102,3738 7099,3735C7085,3722 7041,3752 6966,3824C6922,3866 6885,3898 6882,3895C6875,3888 6959,3783 6989,3761C7003,3750 7012,3739 7009,3736C6995,3721 6950,3753 6882,3825C6811,3899 6786,3915 6810,3870C6826,3840 6929,3728 6954,3713L6975,3701L6953,3700C6922,3700 6842,3767 6780,3845C6750,3882 6724,3908 6722,3902C6717,3886 6736,3855 6796,3784C6846,3725 6849,3720 6827,3720C6799,3720 6732,3788 6681,3868C6651,3915 6630,3933 6630,3912C6630,3898 6700,3786 6728,3756L6755,3727L6725,3734C6683,3744 6667,3761 6607,3857C6578,3903 6552,3940 6547,3940C6535,3940 6567,3871 6605,3813C6644,3754 6646,3750 6626,3750C6605,3750 6557,3809 6514,3889C6477,3958 6451,3983 6466,3938C6476,3906 6519,3820 6542,3788C6553,3772 6557,3760 6552,3760C6531,3760 6477,3829 6442,3899C6419,3945 6404,3967 6402,3956C6397,3934 6437,3835 6456,3819C6464,3813 6470,3802 6470,3796C6469,3777 6411,3849 6404,3877C6393,3920 6360,3993 6354,3987C6349,3983 6375,3890 6396,3835C6403,3817 6402,3816 6386,3830C6376,3838 6358,3849 6346,3855C6321,3867 6295,3916 6279,3985C6261,4060 6257,4069 6253,4042C6250,4030 6256,3997 6265,3969C6287,3903 6279,3897 6250,3959C6207,4052 6234,4145 6335,4245C6422,4333 6597,4418 6659,4404C6764,4379 6877,4307 7024,4173C7067,4133 7107,4100 7111,4100C7140,4100 7099,4243 7049,4316C7000,4388 6908,4450 6823,4468L6785,4476L6820,4495C6864,4518 6898,4528 6930,4528C6944,4528 6935,4523 6910,4518ZM6225,4481L6265,4472L6210,4471C6180,4471 6148,4475 6140,4480C6121,4492 6167,4493 6225,4481ZM7280,4470C7301,4459 7322,4445 7325,4439C7329,4434 7309,4440 7281,4454C7253,4469 7230,4483 7230,4485C7230,4494 7240,4491 7280,4470ZM2767,4332C2812,4273 2892,4171 2945,4105C3133,3870 3132,3872 3125,3850C3122,3839 3116,3830 3112,3831C3108,3831 3008,3957 2890,4110C2699,4357 2645,4442 2677,4439C2681,4439 2722,4391 2767,4332ZM6805,4420C6797,4407 6760,4407 6740,4420C6729,4427 6737,4430 6768,4430C6794,4430 6809,4426 6805,4420ZM6237,4404C6298,4396 6291,4380 6227,4380C6204,4380 6191,4376 6195,4370C6198,4365 6221,4360 6246,4360C6270,4360 6290,4356 6290,4351C6290,4341 6256,4330 6223,4330C6184,4330 6198,4313 6243,4304L6285,4296L6245,4292C6192,4287 6181,4274 6222,4266C6248,4261 6252,4257 6240,4250C6232,4245 6217,4240 6208,4240C6198,4240 6190,4236 6190,4230C6190,4225 6197,4220 6207,4220C6222,4220 6222,4218 6207,4203C6179,4171 6158,4073 6162,3994L6165,3920L6070,3919L5975,3917L6055,3909C6185,3895 6182,3893 6035,3892C5958,3892 5884,3895 5871,3899C5849,3905 5853,3909 5915,3945C6000,3995 6047,4041 6088,4113C6129,4186 6150,4266 6150,4353C6150,4412 6152,4421 6166,4416C6175,4413 6206,4407 6237,4404ZM6933,4368C6979,4336 6994,4320 7024,4276C7064,4216 7055,4208 6995,4254C6975,4269 6975,4269 6998,4263C7036,4254 7023,4268 6973,4291C6932,4309 6928,4313 6945,4320C6967,4329 6962,4332 6905,4346C6884,4351 6880,4354 6893,4357C6923,4364 6901,4380 6861,4380C6817,4380 6806,4387 6823,4405C6837,4420 6879,4406 6933,4368ZM7381,4374C7399,4355 7410,4340 7405,4340C7400,4340 7406,4330 7418,4317C7437,4297 7475,4220 7466,4220C7464,4220 7443,4250 7420,4288C7396,4325 7361,4369 7341,4387C7313,4412 7310,4418 7326,4414C7338,4411 7363,4393 7381,4374ZM2728,4295C2799,4201 2868,4112 3003,3936C3067,3854 3100,3804 3096,3794C3093,3785 3086,3780 3081,3782C3064,3788 2680,4271 2640,4337C2628,4355 2628,4361 2640,4375C2655,4394 2651,4397 2728,4295ZM2989,3855C3020,3817 3051,3781 3057,3777C3071,3768 3075,3729 3063,3731C3058,3731 3005,3795 2943,3873C2882,3951 2784,4076 2725,4150C2608,4297 2596,4316 2605,4330C2608,4335 2684,4247 2772,4132C2861,4018 2958,3894 2989,3855ZM2694,4098C2766,4008 2861,3888 2906,3830C2952,3772 3001,3710 3017,3692L3045,3659L3150,3675C3208,3683 3309,3699 3375,3710C3441,3720 3558,3738 3635,3750C3712,3761 3805,3776 3841,3782C3903,3792 3909,3791 3937,3771C3964,3751 3973,3750 4063,3756C4151,3762 4161,3765 4176,3788L4192,3813L4429,3806C5052,3788 4995,3792 4998,3770C5001,3751 4996,3750 4893,3750C4834,3750 4659,3755 4505,3760C4253,3769 4224,3768 4215,3754C4188,3712 4185,3711 4075,3704C4015,3701 3962,3696 3958,3694C3954,3691 3936,3702 3918,3718C3900,3734 3881,3746 3875,3744C3865,3741 3639,3705 3275,3649C3171,3633 3071,3620 3053,3620C3018,3620 3050,3582 2695,4042C2599,4166 2520,4275 2520,4283C2520,4309 2533,4310 2549,4285C2558,4272 2623,4188 2694,4098ZM7065,4199C7076,4182 7064,4178 7050,4195C7042,4204 7042,4210 7048,4210C7054,4210 7062,4205 7065,4199ZM7757,4160C7763,4136 7762,4130 7753,4130C7741,4130 7730,4180 7742,4180C7747,4180 7754,4171 7757,4160ZM7777,4070C7778,4059 7775,4050 7769,4050C7764,4050 7760,4059 7760,4070C7760,4081 7764,4090 7768,4090C7772,4090 7776,4081 7777,4070ZM7830,4032C7830,4012 7822,4000 7801,3987C7759,3962 7754,3982 7791,4024C7808,4044 7824,4060 7826,4060C7828,4060 7830,4047 7830,4032ZM4555,3979C4649,3968 4761,3960 4806,3962L4887,3965L4897,3920C4903,3895 4910,3867 4915,3858C4922,3841 4913,3840 4799,3841C4731,3841 4572,3847 4445,3854C4232,3865 4218,3866 4254,3879C4293,3893 4356,3892 4733,3874C4820,3870 4870,3871 4870,3877C4870,3888 4573,3904 4360,3905C4251,3905 4219,3902 4191,3887C4153,3868 4136,3865 4145,3879C4154,3895 4255,3929 4324,3940C4373,3948 4422,3947 4522,3936C4737,3912 4870,3905 4870,3919C4870,3926 4846,3930 4800,3930C4761,3930 4667,3937 4592,3946C4509,3956 4413,3960 4350,3957C4250,3953 4236,3950 4125,3904C4108,3897 4107,3898 4118,3912C4146,3947 4256,3984 4375,3999C4381,3999 4462,3991 4555,3979ZM7730,3990C7730,3976 7691,3958 7674,3964C7666,3967 7660,3976 7660,3985C7660,3996 7670,4000 7695,4000C7714,4000 7730,3996 7730,3990ZM7820,3949C7809,3930 7743,3894 7734,3903C7725,3911 7763,3950 7780,3950C7790,3950 7802,3955 7805,3960C7817,3980 7831,3970 7820,3949ZM2242,3943C2267,3921 2265,3897 2234,3860L2207,3829L2227,3802C2238,3787 2258,3769 2273,3762C2315,3742 2411,3727 2470,3733C2529,3739 2669,3798 2670,3817C2670,3831 2617,3850 2574,3850C2551,3850 2540,3845 2540,3836C2540,3812 2500,3789 2479,3800C2447,3818 2445,3851 2474,3877C2505,3903 2556,3907 2611,3888C2652,3874 2750,3813 2750,3801C2750,3785 2554,3701 2492,3691C2351,3668 2183,3714 2133,3789C2098,3841 2105,3913 2149,3947C2172,3965 2220,3963 2242,3943ZM3913,3940C3974,3921 4010,3897 3997,3883C3993,3880 3967,3888 3938,3901C3892,3921 3870,3924 3775,3923C3715,3923 3636,3915 3600,3907C3517,3887 3257,3833 3207,3825C3186,3822 3172,3815 3174,3811C3177,3806 3192,3805 3207,3807C3308,3824 3451,3853 3545,3876C3731,3923 3960,3911 3960,3856C3960,3837 3964,3837 3915,3855C3848,3879 3758,3872 3446,3820C3281,3793 3145,3772 3143,3773C3138,3779 3169,3837 3183,3848C3189,3853 3225,3860 3262,3864C3299,3868 3407,3890 3502,3915C3707,3967 3805,3973 3913,3940ZM8132,3949C8143,3943 8158,3923 8166,3904C8198,3827 8136,3740 8022,3705C7960,3685 7754,3680 7711,3697L7687,3706L7722,3727C7751,3744 7765,3746 7814,3739C7879,3731 7978,3743 8021,3766C8037,3774 8057,3792 8066,3806C8082,3830 8082,3832 8056,3858C7997,3921 8055,3990 8132,3949ZM7700,3930C7700,3917 7668,3902 7653,3907C7627,3916 7640,3940 7670,3940C7687,3940 7700,3936 7700,3930ZM5298,3878C5295,3852 5262,3841 5249,3861C5239,3878 5257,3900 5282,3900C5296,3900 5301,3894 5298,3878ZM6049,3859C6150,3851 6200,3842 6210,3832C6223,3819 6207,3818 6075,3824C5993,3827 5899,3830 5868,3830C5819,3830 5810,3833 5810,3848C5810,3878 5828,3888 5867,3880C5886,3875 5968,3866 6049,3859ZM7654,3875C7648,3859 7590,3853 7590,3868C7590,3883 7603,3890 7631,3890C7652,3890 7658,3886 7654,3875ZM7780,3875C7780,3864 7723,3844 7702,3848C7664,3854 7696,3880 7741,3880C7763,3880 7780,3878 7780,3875ZM3880,3840C3892,3833 3888,3830 3865,3830C3832,3830 3694,3810 3351,3755C3228,3736 3123,3720 3118,3720C3114,3720 3115,3729 3122,3740C3131,3754 3146,3760 3170,3761C3189,3761 3315,3781 3450,3805C3693,3847 3849,3860 3880,3840ZM7595,3830C7592,3825 7580,3820 7570,3820C7560,3820 7548,3825 7545,3830C7541,3836 7552,3840 7570,3840C7588,3840 7599,3836 7595,3830ZM7705,3810C7702,3805 7681,3800 7659,3800C7635,3800 7621,3804 7625,3810C7628,3816 7649,3820 7671,3820C7695,3820 7709,3816 7705,3810ZM7509,3801C7520,3794 7518,3791 7501,3785C7476,3777 7465,3783 7475,3799C7483,3812 7490,3813 7509,3801ZM7625,3770C7622,3765 7603,3760 7584,3760C7565,3760 7550,3765 7550,3770C7550,3776 7568,3780 7591,3780C7615,3780 7629,3776 7625,3770ZM7515,3740C7519,3734 7507,3730 7486,3730C7467,3730 7448,3735 7445,3740C7441,3746 7453,3750 7474,3750C7493,3750 7512,3746 7515,3740ZM2788,3715L2810,3690L2732,3690L2655,3691L2700,3714C2759,3744 2763,3744 2788,3715ZM7395,3720C7411,3713 7406,3711 7375,3711C7353,3711 7328,3715 7320,3720C7301,3733 7366,3733 7395,3720ZM7050,3705C7066,3696 7069,3691 7059,3690C7051,3690 7035,3697 7024,3705C7000,3723 7017,3724 7050,3705ZM7165,3699C7181,3683 7145,3689 7124,3706C7106,3720 7106,3721 7130,3714C7144,3711 7159,3704 7165,3699ZM7288,3705C7300,3693 7279,3688 7245,3694C7198,3703 7198,3725 7246,3717C7266,3714 7285,3708 7288,3705ZM2185,3660C2188,3655 2186,3650 2181,3650C2175,3650 2170,3655 2170,3660C2170,3666 2172,3670 2174,3670C2177,3670 2182,3666 2185,3660ZM8107,3664C8104,3661 8095,3660 8088,3663C8080,3666 8083,3669 8094,3669C8105,3670 8111,3667 8107,3664ZM2945,3601C2951,3598 2912,3593 2860,3590C2735,3583 2187,3591 2195,3599C2212,3616 2919,3618 2945,3601ZM8070,3599C8078,3594 7902,3590 7676,3590C7451,3590 7269,3593 7273,3596C7293,3617 8033,3619 8070,3599Z" style="fill:#5b2333;fill-rule:nonzero;"/>
        <path d="M5623,5833C5591,5827 5594,5810 5628,5809C5644,5808 5648,5806 5638,5803C5610,5796 5617,5783 5651,5776C5705,5766 6130,5769 6130,5780C6130,5786 6069,5790 5968,5791C5878,5792 5780,5795 5750,5799L5695,5806L5745,5813C5773,5817 5902,5821 6032,5822C6163,5824 6270,5828 6270,5833C6270,5840 5663,5841 5623,5833Z" style="fill:#5b2333;fill-rule:nonzero;"/>
        <path d="M6590,5670L6505,5664L6598,5662C6658,5661 6689,5664 6685,5670C6682,5676 6678,5679 6677,5678C6676,5677 6637,5673 6590,5670Z" style="fill:#5b2333;fill-rule:nonzero;"/>
        <path d="M5660,5561C5660,5544 5722,5520 5765,5520C5814,5520 5812,5546 5763,5553C5742,5556 5710,5562 5693,5565C5670,5570 5660,5569 5660,5561Z" style="fill:#5b2333;fill-rule:nonzero;"/>
        <path d="M5676,5502C5665,5484 5718,5460 5770,5460C5806,5460 5820,5464 5820,5474C5820,5482 5808,5491 5793,5494C5717,5508 5682,5511 5676,5502Z" style="fill:#5b2333;fill-rule:nonzero;"/>
        <path d="M5730,5445C5730,5436 5813,5419 5829,5425C5843,5431 5843,5433 5825,5440C5804,5449 5730,5453 5730,5445Z" style="fill:#5b2333;fill-rule:nonzero;"/>
        <path d="M5700,5422C5700,5396 5743,5378 5824,5372C5880,5368 5892,5370 5888,5381C5885,5389 5863,5398 5834,5401C5807,5405 5768,5415 5746,5424C5698,5444 5700,5444 5700,5422Z" style="fill:#5b2333;fill-rule:nonzero;"/>
        <path d="M5715,5350C5711,5344 5725,5333 5746,5324C5789,5306 5898,5300 5902,5315C5905,5324 5874,5332 5753,5355C5735,5358 5719,5356 5715,5350Z" style="fill:#5b2333;fill-rule:nonzero;"/>
        <path d="M5740,5279C5740,5264 5797,5243 5863,5235C5910,5229 5920,5230 5920,5242C5920,5253 5896,5262 5838,5274C5740,5293 5740,5293 5740,5279Z" style="fill:#5b2333;fill-rule:nonzero;"/>
        <path d="M5775,5209C5765,5194 5839,5168 5909,5162C5960,5158 5972,5160 5968,5171C5964,5183 5935,5191 5813,5213C5795,5217 5778,5215 5775,5209Z" style="fill:#5b2333;fill-rule:nonzero;"/>
        <path d="M5822,5129C5832,5100 6000,5066 6015,5090C6026,5107 6005,5118 5945,5125C5918,5128 5878,5133 5856,5136C5828,5141 5819,5139 5822,5129Z" style="fill:#5b2333;fill-rule:nonzero;"/>
        <path d="M5872,5059C5879,5036 5969,5011 6044,5010C6101,5010 6111,5012 6101,5024C6095,5032 6052,5043 6007,5050C5962,5056 5912,5064 5896,5067C5874,5072 5868,5070 5872,5059Z" style="fill:#5b2333;fill-rule:nonzero;"/>
        <path d="M3889,4550C3827,4542 3730,4504 3715,4480C3706,4465 3715,4468 3752,4489C3824,4531 3895,4543 4029,4536C4098,4532 4164,4527 4175,4524C4190,4520 4192,4521 4181,4528C4173,4534 4126,4541 4076,4545C4026,4548 3978,4553 3970,4554C3962,4556 3925,4554 3889,4550Z" style="fill:#5b2333;fill-rule:nonzero;"/>
        <path d="M3904,4466C3849,4453 3789,4422 3783,4404C3781,4398 3807,4407 3842,4424C3900,4453 3911,4455 4015,4455C4075,4455 4169,4449 4222,4442C4276,4435 4325,4432 4332,4436C4346,4445 4075,4479 4000,4479C3975,4478 3932,4473 3904,4466Z" style="fill:#5b2333;fill-rule:nonzero;"/>
        <path d="M3951,4384C3896,4369 3840,4341 3840,4328C3840,4324 3866,4333 3898,4347C3974,4382 4090,4388 4269,4366C4385,4351 4425,4351 4409,4363C4400,4370 4112,4400 4060,4399C4030,4399 3981,4392 3951,4384Z" style="fill:#5b2333;fill-rule:nonzero;"/>
        <path d="M4010,4301C3944,4280 3910,4263 3910,4250C3910,4245 3934,4252 3963,4265C4070,4314 4140,4317 4373,4283C4467,4270 4504,4270 4489,4284C4480,4293 4216,4320 4143,4319C4097,4319 4042,4312 4010,4301Z" style="fill:#5b2333;fill-rule:nonzero;"/>
        <path d="M4080,4226C4025,4210 3970,4183 3970,4170C3970,4165 3994,4172 4023,4185C4110,4225 4189,4232 4351,4215C4430,4207 4509,4197 4527,4194C4548,4190 4560,4192 4560,4199C4560,4205 4557,4210 4553,4210C4548,4210 4487,4217 4415,4225C4260,4243 4142,4243 4080,4226Z" style="fill:#5b2333;fill-rule:nonzero;"/>
        <path d="M4145,4147C4092,4133 4025,4102 4033,4094C4035,4092 4059,4099 4085,4110C4171,4147 4256,4156 4392,4141C4597,4120 4645,4117 4637,4126C4615,4149 4218,4166 4145,4147Z" style="fill:#5b2333;fill-rule:nonzero;"/>
        <path d="M3205,4535C3178,4528 3113,4505 3062,4486C3010,4466 2950,4447 2929,4444C2907,4440 2887,4433 2883,4427C2873,4410 2948,4428 3105,4482C3262,4536 3331,4545 3440,4528L3485,4521L3445,4535C3394,4552 3269,4553 3205,4535Z" style="fill:#5b2333;fill-rule:nonzero;"/>
        <path d="M3339,4470C3291,4464 2954,4356 2940,4342C2926,4328 3032,4357 3165,4403C3310,4453 3319,4455 3422,4455C3481,4455 3522,4457 3512,4461C3480,4472 3396,4477 3339,4470Z" style="fill:#5b2333;fill-rule:nonzero;"/>
        <path d="M3345,4375C3226,4341 3007,4261 3032,4260C3047,4260 3135,4286 3227,4317C3401,4375 3487,4388 3565,4367C3589,4360 3593,4361 3583,4371C3564,4390 3406,4393 3345,4375Z" style="fill:#5b2333;fill-rule:nonzero;"/>
        <path d="M3435,4299C3413,4294 3330,4267 3250,4240C3170,4212 3097,4190 3087,4190C3078,4190 3070,4185 3070,4179C3070,4164 3112,4174 3300,4237C3464,4292 3465,4292 3563,4288C3617,4285 3657,4287 3653,4291C3640,4304 3479,4310 3435,4299Z" style="fill:#5b2333;fill-rule:nonzero;"/>
        <path d="M3520,4219C3490,4214 3398,4187 3315,4159C3121,4094 3131,4098 3151,4093C3160,4091 3244,4115 3336,4147C3497,4201 3510,4204 3607,4205C3663,4205 3706,4208 3702,4212C3689,4225 3578,4229 3520,4219Z" style="fill:#5b2333;fill-rule:nonzero;"/>
        <path d="M3545,4129C3523,4124 3453,4102 3390,4080C3327,4059 3258,4038 3238,4034C3217,4031 3200,4023 3200,4018C3200,4005 3240,4014 3390,4062C3553,4114 3650,4132 3725,4126C3766,4122 3777,4124 3760,4129C3727,4141 3595,4140 3545,4129Z" style="fill:#5b2333;fill-rule:nonzero;"/>
        <path d="M6565,4346C6600,4328 6629,4325 6614,4340C6609,4345 6589,4352 6570,4355L6535,4360L6565,4346Z" style="fill:#5b2333;fill-rule:nonzero;"/>
        <path d="M6480,4322C6480,4310 6558,4275 6566,4283C6569,4286 6554,4298 6531,4309C6486,4332 6480,4334 6480,4322Z" style="fill:#5b2333;fill-rule:nonzero;"/>
        <path d="M7603,4283C7578,4278 7571,4260 7594,4260C7616,4260 7640,4271 7640,4281C7640,4286 7637,4289 7633,4289C7628,4288 7615,4285 7603,4283Z" style="fill:#5b2333;fill-rule:nonzero;"/>
        <path d="M6425,4271C6432,4258 6500,4236 6507,4244C6510,4247 6497,4257 6477,4265C6436,4282 6416,4284 6425,4271Z" style="fill:#5b2333;fill-rule:nonzero;"/>
        <path d="M6360,4236C6360,4229 6406,4205 6438,4196C6450,4192 6460,4193 6460,4198C6460,4203 6443,4212 6423,4219C6402,4226 6379,4234 6373,4236C6366,4239 6360,4239 6360,4236Z" style="fill:#5b2333;fill-rule:nonzero;"/>
        <path d="M6320,4180C6320,4176 6332,4167 6348,4162C6363,4157 6383,4149 6393,4145C6402,4141 6410,4142 6410,4147C6410,4152 6390,4163 6365,4172C6340,4182 6320,4185 6320,4180Z" style="fill:#5b2333;fill-rule:nonzero;"/>
        <path d="M6290,4131C6290,4121 6370,4087 6377,4094C6382,4098 6308,4140 6295,4140C6292,4140 6290,4136 6290,4131Z" style="fill:#5b2333;fill-rule:nonzero;"/>
        <path d="M6300,4065C6314,4057 6332,4051 6340,4051C6349,4051 6344,4057 6330,4065C6316,4073 6298,4079 6290,4079C6281,4079 6286,4073 6300,4065Z" style="fill:#5b2333;fill-rule:nonzero;"/>
        <path d="M6301,4005C6301,3967 6323,3904 6346,3879C6380,3842 6376,3857 6310,4015C6303,4032 6301,4030 6301,4005Z" style="fill:#5b2333;fill-rule:nonzero;"/>
        <path d="M5630,5119C5629,5081 5702,4532 5725,4409C5739,4334 5750,4267 5750,4261C5750,4253 5615,4250 5268,4250L4786,4250L4864,4170L5397,4170C5925,4170 5931,4170 5938,4150C5946,4129 5946,4129 5966,4152C5978,4165 5992,4191 5999,4210C6009,4240 6008,4247 5993,4257C5984,4264 5970,4270 5963,4270C5944,4270 5947,4283 5969,4297C5993,4312 6010,4367 6003,4404C5997,4435 5953,4473 5930,4467C5913,4463 5910,4480 5907,4593C5906,4630 5902,4660 5899,4660C5882,4660 5840,4604 5834,4575C5822,4511 5858,4428 5905,4410C5935,4399 5938,4365 5912,4351C5861,4324 5801,4414 5792,4529C5784,4651 5828,4720 5915,4720C5973,4720 5989,4727 5983,4750C5975,4781 5933,4803 5895,4796L5861,4789L5870,4821C5876,4839 5879,4854 5877,4854C5876,4855 5860,4865 5843,4878L5810,4900L5806,4878C5803,4865 5796,4826 5789,4790L5776,4725L5768,4765C5764,4787 5758,4840 5754,4882C5749,4952 5745,4964 5711,5007C5690,5034 5663,5073 5652,5095C5640,5117 5631,5128 5630,5119Z" style="fill:#5b2333;fill-rule:nonzero;"/>
        <path d="M5895,4110C5879,4106 5654,4102 5397,4101L4928,4100L4960,4066C4978,4047 5006,4029 5022,4026C5039,4023 5065,4006 5081,3989L5110,3958L5110,3989C5110,4015 5114,4020 5134,4020C5153,4020 5157,4016 5153,4000C5146,3974 5149,3975 5207,4006C5285,4048 5355,4029 5463,3937C5497,3909 5509,3905 5553,3907C5582,3908 5611,3904 5618,3898C5635,3884 5670,3915 5670,3945C5670,3975 5651,3990 5613,3990C5593,3990 5580,3995 5580,4003C5580,4046 5681,4056 5726,4017L5753,3994L5819,4036C5881,4076 5941,4120 5930,4118C5927,4118 5912,4114 5895,4110ZM5530,3937C5530,3931 5488,3937 5484,3944C5484,3944 5479,3963 5472,3985L5461,4025L5495,3985C5514,3963 5530,3941 5530,3937Z" style="fill:#5b2333;fill-rule:nonzero;"/>
        <path d="M5926,3121C5873,3103 5861,3088 5880,3065C5890,3053 5877,3014 5815,2863C5666,2504 5660,2494 5582,2497C5503,2500 5501,2505 5485,2756C5477,2876 5470,2989 5470,3007C5470,3045 5492,3070 5526,3070C5552,3070 5569,3095 5553,3111C5548,3116 5497,3117 5434,3113L5325,3107L5296,3036C5225,2863 5146,2690 5138,2690C5126,2690 4957,3049 4948,3093C4945,3109 4932,3111 4828,3113C4763,3113 4708,3112 4705,3109C4692,3095 4714,3070 4740,3070C4755,3070 4775,3061 4785,3050C4802,3032 4802,3018 4791,2838C4772,2516 4769,2507 4699,2495C4666,2489 4657,2492 4623,2524C4589,2554 4440,2758 4440,2774C4440,2777 4445,2780 4450,2780C4474,2780 4540,2834 4555,2867C4578,2914 4571,2996 4542,3037C4530,3054 4497,3078 4468,3091C4419,3112 4402,3114 4220,3114C4036,3115 4025,3114 4025,3096C4025,3084 4037,3074 4060,3066L4095,3055L4098,2791C4099,2620 4097,2523 4090,2515C4084,2508 4066,2500 4049,2496C4027,2492 4019,2485 4022,2473C4025,2457 4040,2455 4180,2455C4311,2455 4335,2457 4335,2470C4335,2478 4319,2490 4300,2496C4251,2512 4240,2540 4240,2648L4240,2740L4269,2740C4295,2740 4306,2728 4374,2626C4424,2549 4462,2502 4489,2485C4538,2452 4635,2438 4723,2450C4757,2455 4818,2456 4858,2453C4932,2447 4932,2447 4928,2471C4926,2490 4918,2496 4893,2498C4840,2503 4838,2518 4846,2746C4850,2858 4855,2948 4857,2946C4862,2941 4917,2822 5012,2608C5063,2493 5077,2470 5094,2470C5112,2470 5131,2505 5219,2705C5277,2835 5326,2943 5330,2945C5334,2947 5337,2931 5338,2909C5339,2887 5344,2799 5350,2713C5361,2534 5358,2512 5321,2504C5274,2494 5268,2490 5272,2475C5275,2461 5311,2459 5560,2457C5822,2455 5845,2456 5848,2472C5850,2484 5843,2491 5823,2495C5754,2510 5749,2528 5789,2625L5817,2695L6031,2695L6061,2620C6095,2533 6095,2508 6060,2500C6044,2496 6034,2486 6032,2473C6029,2452 6031,2451 6179,2451C6268,2451 6332,2455 6336,2461C6344,2475 6321,2500 6301,2500C6266,2500 6238,2552 6124,2843C6036,3065 6003,3140 5991,3139C5982,3138 5953,3130 5926,3121ZM4368,3040C4451,2989 4449,2840 4366,2805C4346,2797 4310,2790 4285,2790L4240,2790L4240,2918C4240,2989 4243,3050 4247,3053C4261,3068 4336,3059 4368,3040ZM5968,2863L6008,2760L5840,2760L5851,2788C5861,2812 5889,2887 5912,2949C5917,2962 5922,2971 5924,2969C5926,2967 5946,2919 5968,2863Z" style="fill:#5b2333;fill-rule:nonzero;"/>
        <path d="M6280,3050C6280,3001 6279,2957 6278,2953C6276,2948 6285,2944 6297,2942C6315,2939 6321,2946 6330,2980C6346,3038 6386,3061 6465,3058L6525,3055L6525,2794C6525,2509 6525,2507 6466,2492C6449,2487 6434,2476 6432,2467C6429,2451 6442,2450 6597,2452C6735,2455 6765,2458 6765,2469C6765,2477 6750,2488 6730,2493C6668,2509 6670,2498 6670,2793L6670,3063L6741,3057C6823,3050 6845,3036 6860,2978C6868,2950 6876,2940 6890,2940C6909,2940 6910,2947 6910,3036L6910,3132L6883,3125C6867,3121 6748,3115 6617,3113C6416,3109 6375,3111 6348,3124C6285,3156 6280,3150 6280,3050Z" style="fill:#5b2333;fill-rule:nonzero;"/>
        <path d="M1390,3111C1390,3098 1400,3090 1424,3086C1443,3082 1463,3073 1469,3066C1478,3056 1480,2971 1478,2770C1475,2505 1474,2488 1456,2474C1445,2466 1426,2460 1413,2460C1397,2460 1390,2454 1390,2440C1390,2420 1395,2420 1553,2422C1687,2425 1715,2428 1715,2440C1715,2448 1701,2457 1680,2461C1626,2472 1620,2489 1620,2623L1620,2743L1652,2736C1669,2733 1684,2729 1686,2727C1687,2726 1715,2681 1748,2626C1837,2480 1886,2428 1975,2384C2043,2351 2060,2346 2150,2342C2247,2337 2250,2338 2250,2359C2250,2376 2244,2380 2216,2380C2103,2380 1999,2473 1867,2693C1815,2778 1815,2780 1832,2780C1858,2780 1920,2835 1940,2874C1977,2951 1961,3023 1895,3077C1841,3122 1793,3130 1581,3130C1400,3130 1390,3129 1390,3111ZM1749,3054C1786,3032 1799,3009 1807,2955C1815,2894 1788,2825 1750,2805C1734,2797 1698,2790 1670,2790L1620,2790L1620,3083L1670,3077C1698,3074 1733,3063 1749,3054Z" style="fill:#5b2333;fill-rule:nonzero;"/>
        <path d="M3493,3112C3417,3085 3365,3045 3321,2979C3274,2908 3256,2839 3262,2750C3272,2620 3338,2523 3459,2467C3519,2439 3534,2436 3620,2436C3694,2436 3727,2441 3772,2459C3847,2488 3922,2557 3957,2628C3982,2679 3985,2695 3985,2790C3985,2884 3982,2900 3958,2945C3926,3007 3854,3075 3792,3103C3725,3133 3566,3138 3493,3112ZM3700,3058C3788,3013 3836,2895 3828,2745C3821,2627 3790,2556 3732,2519C3650,2467 3544,2487 3485,2565C3429,2638 3406,2781 3431,2899C3462,3045 3583,3117 3700,3058Z" style="fill:#5b2333;fill-rule:nonzero;"/>
        <path d="M7583,3116C7480,3083 7403,3013 7358,2914C7324,2838 7327,2712 7365,2634C7451,2458 7655,2386 7855,2461C7928,2488 7996,2553 8035,2635C8060,2687 8064,2707 8065,2785C8065,2863 8061,2882 8038,2930C7996,3014 7956,3056 7882,3092C7823,3121 7805,3125 7720,3127C7661,3129 7609,3124 7583,3116ZM7790,3053C7857,3014 7899,2920 7907,2794C7919,2611 7843,2490 7716,2490C7629,2490 7570,2532 7529,2625C7498,2693 7491,2843 7514,2924C7533,2990 7587,3055 7634,3070C7676,3083 7754,3075 7790,3053Z" style="fill:#5b2333;fill-rule:nonzero;"/>
        <path d="M2097,3105C2089,3084 2103,3070 2130,3070C2145,3070 2163,3064 2169,3056C2185,3037 2185,2533 2169,2513C2162,2506 2143,2496 2126,2492C2109,2487 2094,2476 2092,2467C2089,2451 2110,2450 2353,2450L2618,2450L2629,2483C2634,2500 2641,2531 2645,2550C2649,2569 2654,2593 2656,2603C2660,2616 2655,2620 2638,2620C2622,2620 2609,2609 2595,2582C2566,2528 2523,2510 2422,2510C2343,2510 2339,2511 2330,2536C2324,2550 2320,2608 2320,2666L2320,2770L2373,2769C2453,2767 2472,2759 2485,2720C2493,2696 2503,2685 2516,2685C2533,2685 2535,2694 2538,2793L2541,2900L2515,2900C2495,2900 2490,2895 2490,2877C2490,2836 2461,2820 2386,2820L2319,2820L2322,2938L2325,3055L2410,3054C2513,3053 2536,3043 2550,2989C2558,2960 2566,2950 2578,2952C2592,2955 2596,2969 2598,3035L2601,3115L2350,3115C2193,3115 2099,3111 2097,3105Z" style="fill:#5b2333;fill-rule:nonzero;"/>
        <path d="M2693,3103C2686,3084 2699,3070 2724,3070C2769,3070 2771,3056 2773,2780C2775,2531 2774,2518 2756,2504C2745,2496 2726,2490 2713,2490C2697,2490 2690,2484 2690,2470C2690,2450 2695,2450 2858,2452C2997,2455 3025,2457 3025,2470C3025,2479 3010,2487 2983,2493C2960,2497 2936,2508 2929,2516C2921,2525 2915,2574 2912,2642C2907,2770 2909,2774 2985,2764C3052,2756 3068,2746 3078,2707C3084,2685 3093,2674 3108,2672C3130,2669 3130,2671 3130,2785C3130,2900 3130,2901 3108,2898C3095,2896 3084,2887 3082,2875C3074,2832 3051,2820 2978,2820L2910,2820L2910,2928C2910,2987 2914,3041 2919,3049C2926,3060 2946,3062 3008,3058C3105,3051 3123,3042 3144,2990C3153,2968 3167,2950 3175,2950C3187,2950 3190,2966 3190,3033L3190,3115L2944,3115C2761,3115 2696,3112 2693,3103Z" style="fill:#5b2333;fill-rule:nonzero;"/>
        <path d="M6970,3106C6957,3093 6970,3070 6992,3070C7003,3070 7020,3065 7031,3060C7049,3050 7050,3036 7050,2787C7050,2643 7046,2519 7041,2512C7036,2504 7017,2495 6999,2491C6975,2486 6965,2479 6965,2465C6965,2447 6974,2446 7120,2446C7267,2445 7275,2446 7275,2465C7275,2478 7266,2486 7244,2490C7227,2494 7208,2500 7202,2504C7188,2513 7185,3027 7199,3048C7204,3056 7223,3065 7241,3069C7266,3074 7275,3081 7275,3095C7275,3114 7267,3115 7127,3115C7046,3115 6975,3111 6970,3106Z" style="fill:#5b2333;fill-rule:nonzero;"/>
        <path d="M8094,3105C8086,3084 8098,3070 8125,3070C8138,3070 8162,3059 8177,3046L8205,3022L8205,2777C8205,2510 8204,2507 8146,2492C8129,2487 8115,2477 8115,2469C8115,2458 8139,2455 8250,2455C8363,2455 8385,2457 8385,2470C8385,2479 8371,2487 8347,2491C8277,2502 8275,2506 8272,2735L8269,2939L8342,2862C8383,2820 8460,2736 8515,2675C8671,2502 8753,2420 8771,2420C8787,2420 8789,2446 8792,2728C8795,3063 8796,3070 8850,3070C8880,3070 8906,3093 8895,3110C8891,3116 8839,3120 8760,3120C8681,3120 8629,3116 8625,3110C8614,3093 8640,3070 8670,3070C8721,3070 8725,3054 8728,2841L8732,2646L8668,2715C8632,2754 8580,2812 8550,2845C8521,2878 8464,2941 8424,2986C8383,3031 8343,3077 8333,3089C8317,3109 8303,3112 8207,3116C8120,3119 8098,3117 8094,3105Z" style="fill:#5b2333;fill-rule:nonzero;"/>
        <path d="M4160,2245C4139,2238 4127,2227 4129,2219C4136,2193 4133,2185 4070,2050C3989,1878 3972,1850 3944,1839C3895,1821 3920,1810 4011,1810C4079,1810 4101,1813 4098,1823C4095,1829 4085,1837 4074,1838C4041,1845 4039,1855 4061,1913L4083,1970L4236,1970L4258,1917C4285,1852 4285,1852 4255,1840C4202,1820 4231,1810 4345,1810C4461,1810 4490,1820 4431,1841C4407,1850 4393,1872 4336,1996C4299,2076 4257,2168 4243,2201C4216,2264 4213,2265 4160,2245ZM4198,2063C4210,2040 4220,2018 4220,2015C4220,2012 4193,2010 4160,2010C4127,2010 4100,2012 4100,2015C4100,2017 4115,2049 4132,2085C4160,2142 4166,2148 4171,2128C4174,2115 4187,2086 4198,2063Z" style="fill:#5b2333;fill-rule:nonzero;"/>
        <path d="M3458,2244C3442,2228 3451,2210 3475,2210C3512,2210 3520,2183 3520,2057C3520,1886 3514,1853 3479,1841C3419,1820 3449,1810 3570,1810C3670,1810 3690,1813 3690,1825C3690,1835 3680,1840 3660,1840C3623,1840 3610,1863 3610,1930L3610,1982L3655,1975C3794,1955 3909,2067 3854,2169C3819,2233 3785,2244 3615,2248C3533,2250 3462,2248 3458,2244ZM3710,2195C3745,2177 3760,2152 3760,2110C3760,2068 3745,2043 3710,2025C3676,2008 3624,2005 3615,2021C3611,2027 3611,2072 3615,2121L3622,2210L3652,2210C3668,2210 3694,2203 3710,2195Z" style="fill:#5b2333;fill-rule:nonzero;"/>
        <path d="M4615,2240C4606,2225 4619,2210 4640,2210C4650,2210 4663,2204 4667,2196C4671,2188 4673,2106 4670,2014C4665,1846 4665,1846 4641,1840C4627,1837 4615,1829 4612,1822C4609,1812 4635,1810 4724,1812C4793,1814 4840,1819 4840,1825C4841,1831 4830,1836 4818,1838C4782,1843 4770,1868 4770,1937C4770,2000 4770,2000 4799,2000C4824,2000 4834,1991 4864,1943C4918,1854 4956,1822 5024,1809C5109,1794 5141,1813 5081,1845C5065,1853 5023,1894 4989,1937C4931,2008 4927,2014 4945,2024C4996,2053 5020,2088 5020,2133C5020,2188 4989,2223 4925,2239C4870,2253 4623,2254 4615,2240ZM4897,2175C4927,2141 4926,2098 4896,2064C4877,2041 4864,2036 4824,2036L4775,2035L4772,2080C4770,2105 4771,2145 4775,2169L4782,2212L4828,2207C4862,2203 4881,2195 4897,2175Z" style="fill:#5b2333;fill-rule:nonzero;"/>
        <path d="M5255,2240C5245,2224 5259,2210 5285,2210C5297,2210 5311,2203 5314,2194C5317,2185 5320,2107 5320,2020C5320,1856 5318,1846 5276,1839C5265,1837 5255,1829 5252,1823C5249,1813 5277,1810 5370,1810C5463,1810 5491,1813 5488,1823C5485,1829 5470,1837 5454,1840L5425,1845L5422,2023L5420,2201L5450,2211C5466,2217 5480,2228 5480,2236C5480,2247 5458,2250 5371,2250C5308,2250 5259,2246 5255,2240Z" style="fill:#5b2333;fill-rule:nonzero;"/>
        <path d="M5742,2233C5724,2225 5698,2203 5684,2187C5662,2161 5659,2149 5663,2113C5665,2089 5674,2063 5681,2053C5689,2044 5733,2019 5780,1998C5881,1951 5900,1936 5900,1900C5900,1858 5867,1835 5807,1836C5763,1836 5753,1841 5726,1871C5709,1891 5690,1915 5684,1926C5675,1939 5669,1942 5661,1934C5648,1922 5661,1835 5679,1817C5686,1810 5731,1804 5783,1802C5864,1799 5880,1801 5920,1822C5977,1852 6006,1901 5996,1950C5986,2004 5961,2027 5875,2065C5781,2105 5760,2122 5760,2153C5760,2200 5827,2232 5879,2210C5895,2204 5916,2183 5926,2164C5936,2145 5947,2130 5950,2130C5968,2131 5976,2151 5972,2191C5968,2234 5966,2238 5938,2244C5880,2256 5776,2250 5742,2233Z" style="fill:#5b2333;fill-rule:nonzero;"/>
        <path d="M6175,2240C6166,2226 6178,2210 6199,2210C6236,2210 6240,2191 6240,2030C6240,1867 6235,1845 6196,1838C6185,1837 6175,1829 6172,1822C6169,1812 6193,1810 6284,1812C6399,1815 6432,1827 6371,1843L6340,1851L6340,2020L6591,2020L6588,1933L6585,1845L6555,1840C6539,1837 6525,1830 6525,1825C6525,1819 6574,1814 6643,1812C6743,1810 6760,1812 6760,1825C6760,1834 6751,1840 6735,1840C6721,1840 6706,1848 6700,1859C6689,1881 6686,2179 6698,2197C6702,2203 6718,2212 6733,2215C6748,2219 6759,2227 6757,2234C6755,2241 6714,2246 6642,2248C6536,2250 6530,2250 6530,2231C6530,2217 6538,2210 6558,2208C6584,2205 6585,2203 6588,2133L6591,2060L6339,2060L6342,2132C6345,2200 6347,2205 6370,2210C6384,2213 6395,2222 6395,2230C6395,2242 6374,2246 6288,2248C6223,2250 6179,2247 6175,2240Z" style="fill:#5b2333;fill-rule:nonzero;"/>
        <path d="M2905,2045C2779,2037 2626,2031 2565,2031C2353,2028 2487,2013 2835,1999C3028,1992 3210,1986 3240,1985L3295,1985L3295,2055L3215,2056C3171,2057 3032,2052 2905,2045Z" style="fill:#5b2333;fill-rule:nonzero;"/>
        <path d="M6938,2054C6927,2043 6928,1992 6940,1985C6945,1982 7027,1984 7122,1989C7217,1995 7394,2002 7515,2006C7636,2010 7741,2016 7748,2019C7754,2023 7622,2032 7453,2038C7283,2045 7100,2054 7045,2057C6990,2060 6942,2059 6938,2054Z" style="fill:#5b2333;fill-rule:nonzero;"/>
    </g>
</svg>
