<?xml version="1.0" encoding="UTF-8" standalone="no"?>
<!DOCTYPE svg PUBLIC "-//W3C//DTD SVG 1.1//EN" "http://www.w3.org/Graphics/SVG/1.1/DTD/svg11.dtd">
<svg width="100%" height="100%" viewBox="0 0 300 300" version="1.1" xmlns="http://www.w3.org/2000/svg" xmlns:xlink="http://www.w3.org/1999/xlink" xml:space="preserve" xmlns:serif="http://www.serif.com/" style="fill-rule:evenodd;clip-rule:evenodd;stroke-linejoin:round;stroke-miterlimit:2;">
    <g transform="matrix(0.1,0,0,-0.1,-540.443,622.793)">
        <g transform="matrix(10,0,0,-10,1304.5,10323.7)">
            <path d="M435.603,664.355L435.603,664.067C435.61,664.067 435.617,664.067 435.623,664.067C435.614,664.162 435.607,664.258 435.603,664.355Z" style="fill:#5b2333;"/>
        </g>
        <g transform="matrix(10,0,0,-10,1304.5,10323.7)">
            <path d="M445.675,669.606C445.675,669.606 446.103,669.172 446.103,668.288C446.103,668.107 443.604,663.703 446.123,664.045C474.969,663.952 495.744,663.611 494.55,663.27C493.15,662.87 489.05,662.57 485.35,662.47C481.55,662.37 478.55,661.97 478.55,661.47C478.55,660.67 490.15,659.37 497.75,659.37C499.85,659.37 501.55,658.97 501.55,658.57C501.55,657.625 448.786,656.643 437.651,656.447C436.518,656.427 435.613,655.497 435.625,654.364L435.673,649.729C439.507,650.058 441.55,645.722 441.55,644.77C441.55,642.87 448.85,636.87 455.45,633.37C463.35,629.17 470.05,623.17 472.55,618.27C475.55,612.47 477.55,602.77 477.55,593.87L477.55,585.77L474.15,584.57C468.55,582.47 465.55,578.77 465.55,573.77C465.55,568.97 467.25,566.67 472.45,563.87C475.35,562.37 475.55,561.97 475.55,556.57L475.55,550.87L468.65,547.67C456.15,541.77 444.65,529.07 436.85,512.57C432.55,503.47 428.05,487.47 425.55,472.37C424.85,468.27 423.65,464.47 422.85,463.87C421.35,462.77 417.75,443.87 418.85,442.77C419.25,442.37 425.35,441.47 432.35,440.77C444.45,439.57 524.85,439.57 536.55,440.77C539.05,441.07 544.25,441.47 548.05,441.87C559.25,442.77 562.55,443.97 562.55,446.97C562.55,451.47 559.35,463.87 557.75,465.67C556.75,466.77 555.25,472.97 553.85,481.17C552.55,488.67 550.55,497.77 549.45,501.37C546.95,508.87 540.65,521.97 536.55,527.87C531.75,534.87 521.55,544.17 514.55,547.87C507.45,551.57 506.55,552.77 506.55,559.47C506.55,562.67 506.95,563.17 511.05,565.17C516.25,567.67 518.05,570.97 517.15,576.37C516.65,579.97 514.25,582.57 508.65,585.57C505.85,587.07 505.55,587.77 505.55,591.87C505.55,596.07 506.65,597.67 508.05,595.37C509.95,592.27 529.55,584.37 535.35,584.37C536.65,584.37 539.25,583.17 541.05,581.77C542.95,580.37 547.75,577.97 551.75,576.57C558.25,574.17 560.45,573.87 572.05,573.97C583.15,573.97 585.85,574.27 590.75,576.17C594.05,577.47 599.35,578.67 603.25,578.87C611.85,579.27 625.45,584.17 633.85,589.67C643.05,595.77 652.75,605.97 656.45,613.57C662.15,625.17 661.65,638.37 655.05,648.47L652.65,652.17L655.85,652.67C657.65,652.87 661.25,652.47 663.85,651.67C667.85,650.47 668.55,649.97 667.95,648.57C666.55,645.27 666.35,639.27 667.55,636.27C669.15,632.47 673.15,630.37 678.75,630.37C692.35,630.37 699.35,648.17 690.05,659.17C687.05,662.67 686.95,664.37 689.35,667.27C690.55,668.67 692.55,669.47 695.85,669.77C698.45,669.97 700.85,670.37 701.15,670.67C702.05,671.57 699.55,678.17 698.15,678.67C697.45,678.97 683.45,679.27 666.95,679.27C639.35,679.37 629.65,678.97 598.55,676.37C589.985,675.654 581.434,675 572.821,674.408C533.996,671.735 493.921,670.294 445.71,669.911C445.652,669.91 445.6,669.874 445.58,669.82C445.559,669.766 445.574,669.704 445.617,669.665C445.659,669.642 445.675,669.606 445.675,669.606ZM645.25,616.37C644.95,615.27 644.25,614.37 643.75,614.37C642.55,614.37 643.65,619.37 644.85,619.37C645.75,619.37 645.85,618.77 645.25,616.37ZM639.55,639.37C639.55,638.77 638.25,638.37 636.55,638.37C633.55,638.37 632.25,640.77 634.85,641.67C636.35,642.17 639.55,640.67 639.55,639.37ZM541.05,447.37C529.85,446.27 457.45,445.17 447.55,445.97C445.05,446.17 439.25,446.57 434.65,446.97L426.35,447.57L426.85,451.57C427.15,453.77 427.55,455.77 427.85,455.97C428.05,456.27 443.55,456.97 462.15,457.57C487.35,458.27 503.25,458.27 524.05,457.37C539.45,456.77 552.35,455.97 552.75,455.77C553.15,455.47 553.55,454.67 553.55,453.97C553.55,452.87 550.15,452.37 539.55,451.87C531.85,451.47 525.25,450.77 524.95,450.27C524.65,449.77 530.95,449.67 539.75,449.97C558.25,450.77 558.95,449.17 541.05,447.37ZM499.55,568.87C494.85,568.07 490.35,567.47 489.55,567.47C483.05,568.07 475.35,569.47 473.55,570.37C470.65,571.97 471.35,575.47 474.95,577.17C479.15,579.27 498.25,581.07 499.75,579.57C500.65,578.67 499.95,578.37 496.75,578.37C494.45,578.37 492.55,577.87 492.55,577.37C492.55,576.77 493.75,576.37 495.15,576.37C496.55,576.37 497.45,575.97 497.05,575.37C496.75,574.77 497.45,574.37 498.75,574.27C501.05,574.17 500.95,574.17 498.55,573.47L496.05,572.77L498.55,572.07C499.95,571.67 502.55,571.37 504.45,571.37C506.95,571.37 507.65,571.67 507.15,572.87C506.85,573.67 507.05,574.37 507.65,574.37C508.25,574.37 508.45,575.17 508.15,576.07C507.65,577.67 507.75,577.57 509.05,575.97C510.05,574.57 510.15,573.57 509.45,572.27C508.95,571.17 508.35,570.37 508.25,570.37C508.15,570.37 504.25,569.67 499.55,568.87ZM539.05,478.07C539.45,475.47 539.65,473.37 539.45,473.47C537.85,473.77 535.35,475.27 536.35,475.27C538.05,475.37 537.85,478.27 536.05,478.97C535.25,479.37 534.55,479.97 534.55,480.47C534.55,480.97 535.25,481.37 536.05,481.37C538.35,481.37 537.85,483.17 535.05,484.97C532.25,486.77 531.75,488.37 534.05,488.37C536.35,488.37 535.85,490.17 533.05,491.97C530.15,493.87 529.75,496.37 532.35,496.37C533.65,496.47 533.45,496.87 531.35,498.67C528.35,501.07 527.85,502.87 529.85,503.77C530.65,504.07 530.15,504.97 528.35,506.37C525.15,508.77 524.55,511.67 527.25,511.17C530.05,510.67 537.35,490.17 539.05,478.07ZM499.55,552.47C499.55,552.17 495.45,551.87 490.45,551.87C481.95,551.87 481.45,551.97 481.95,553.87C482.25,554.97 482.55,557.67 482.55,559.87L482.55,563.87L490.55,563.57C494.95,563.37 498.55,562.87 498.55,562.47C498.55,562.07 497.75,561.77 496.85,561.67C493.45,561.37 485.55,558.77 484.35,557.57C482.65,555.87 484.85,554.37 489.05,554.37C493.35,554.37 499.55,553.17 499.55,552.47ZM526.55,515.47C527.35,513.77 527.35,513.37 526.25,513.37C524.55,513.37 520.95,517.17 521.85,517.97C522.85,518.97 525.35,517.67 526.55,515.47ZM682.75,637.47C675.05,633.37 669.25,640.27 675.15,646.57C677.75,649.17 677.75,649.37 676.15,651.77C675.25,653.17 673.25,654.97 671.65,655.77C667.35,658.07 657.45,659.27 650.95,658.47C646.05,657.77 644.65,657.97 641.75,659.67L638.25,661.77L640.65,662.67C644.95,664.37 665.55,663.87 671.75,661.87C683.15,658.37 689.35,649.67 686.15,641.97C685.35,640.07 683.85,638.07 682.75,637.47ZM642.55,633.37C642.55,632.77 640.95,632.37 639.05,632.37C636.55,632.37 635.55,632.77 635.55,633.87C635.55,634.77 636.15,635.67 636.95,635.97C638.65,636.57 642.55,634.77 642.55,633.37ZM576.05,612.47C575.75,611.87 574.95,611.37 574.35,611.37C573.75,611.37 573.75,611.97 574.55,612.87C575.95,614.57 577.15,614.17 576.05,612.47ZM609.05,660.37C606.15,659.07 599.65,659.07 601.55,660.37C602.35,660.87 604.85,661.27 607.05,661.27C610.15,661.27 610.65,661.07 609.05,660.37ZM487.45,463.77C458.15,463.57 433.35,463.17 432.35,462.77C430.45,462.17 430.15,463.07 431.15,465.77C431.55,466.77 432.95,467.37 434.95,467.27C436.65,467.27 437.45,466.97 436.85,466.67C433.75,465.47 435.95,464.27 440.85,464.57C444.05,464.77 445.95,465.27 445.85,466.07C445.45,467.97 466.65,468.67 506.05,467.97C545.05,467.37 549.55,466.97 549.55,464.77C549.55,463.17 547.95,462.87 547.05,464.37C546.35,465.47 542.25,465.77 541.35,464.77C540.95,464.47 516.75,464.07 487.45,463.77ZM651.55,637.47C652.65,635.37 651.25,634.37 650.05,636.37C649.75,636.87 648.55,637.37 647.55,637.37C645.85,637.37 642.05,641.27 642.95,642.07C643.85,642.97 650.45,639.37 651.55,637.47ZM474.45,646.47C466.35,645.77 458.15,644.87 456.25,644.37C452.35,643.57 450.55,644.57 450.55,647.57C450.55,649.07 451.45,649.37 456.35,649.37C459.45,649.37 468.85,649.67 477.05,649.97C490.25,650.57 491.85,650.47 490.55,649.17C489.55,648.17 484.55,647.27 474.45,646.47ZM519.85,474.87C513.85,474.47 491.95,473.97 470.95,473.87L432.85,473.47L433.65,477.77C439.55,509.27 451.95,530.37 470.55,540.37C476.75,543.67 477.55,543.87 489.25,544.17C501.15,544.57 501.65,544.47 508.05,541.57C519.55,536.17 527.85,527.57 534.55,514.37C540.35,502.87 542.75,495.47 547.05,475.57C547.45,474.17 547.15,473.37 546.25,473.37C545.35,473.37 544.45,475.97 543.65,481.07C540.75,498.07 530.35,520.87 521.15,530.37C518.15,533.37 513.55,537.17 510.85,538.87C506.35,541.67 505.25,541.87 494.65,542.27C485.35,542.57 482.95,542.27 482.15,541.07C481.55,540.27 478.95,539.27 476.55,538.87C470.75,537.97 465.55,535.77 465.55,534.27C465.55,533.47 466.75,533.37 469.25,533.87C471.35,534.27 479.35,534.57 487.25,534.47C499.15,534.47 501.95,534.17 504.25,532.67L506.95,530.87L504.55,530.57C493.65,529.37 492.95,527.37 503.45,527.37C509.35,527.37 510.45,527.07 512.55,524.87L514.85,522.37L508.15,522.37C503.95,522.37 501.65,521.97 502.05,521.37C502.35,520.77 505.55,520.37 509.05,520.37C514.55,520.37 515.65,520.07 517.05,518.07L518.55,515.87L512.55,515.57C509.25,515.37 506.55,514.87 506.55,514.47C506.55,513.97 509.55,513.37 513.15,513.07C519.25,512.67 521.45,511.57 521.55,509.07C521.55,508.67 518.85,508.37 515.55,508.37C507.95,508.37 507.75,506.67 515.35,505.87C521.95,505.17 523.95,504.37 524.35,502.07C524.65,500.67 524.05,500.47 520.15,500.97C514.85,501.77 511.25,500.77 513.55,499.37C514.35,498.77 516.95,498.37 519.35,498.37C522.35,498.37 524.15,497.77 525.85,496.07L528.05,493.87L520.75,493.57C513.05,493.27 511.55,491.47 518.85,491.27C524.85,491.17 527.95,490.07 528.35,487.97C528.75,486.37 528.25,486.27 523.75,486.87C518.15,487.57 512.85,485.97 517.55,484.97C518.95,484.77 522.05,484.27 524.45,483.97C526.85,483.77 529.25,482.97 529.65,482.17C530.35,481.17 529.05,480.77 523.55,480.57C519.65,480.37 516.55,479.87 516.55,479.47C516.55,478.97 519.75,478.27 523.55,477.97C527.45,477.57 530.55,476.87 530.55,476.47C530.55,476.07 525.75,475.37 519.85,474.87ZM652.55,629.17C652.55,627.67 652.35,626.37 652.15,626.37C651.95,626.37 650.35,627.97 648.65,629.97C644.95,634.17 645.45,636.17 649.65,633.67C651.75,632.37 652.55,631.17 652.55,629.17ZM560.55,580.57C563.05,580.07 563.95,579.57 562.55,579.57C559.35,579.57 555.95,580.57 551.55,582.87L548.05,584.77L551.85,585.57C560.35,587.37 569.55,593.57 574.45,600.77C579.45,608.07 583.55,622.37 580.65,622.37C580.25,622.37 576.25,619.07 571.95,615.07C557.25,601.67 545.95,594.47 535.45,591.97C529.25,590.57 511.75,599.07 503.05,607.87C492.95,617.87 490.25,627.17 494.55,636.47C497.45,642.67 498.25,642.07 496.05,635.47C495.15,632.67 494.55,629.37 494.85,628.17C495.25,625.47 495.65,626.37 497.45,633.87C499.05,640.77 501.65,645.67 504.15,646.87C505.35,647.47 507.15,648.57 508.15,649.37C509.75,650.77 509.85,650.67 509.15,648.87C507.05,643.37 504.45,634.07 504.95,633.67C505.55,633.07 508.85,640.37 509.95,644.67C510.65,647.47 516.45,654.67 516.55,652.77C516.55,652.17 515.95,651.07 515.15,650.47C513.25,648.87 509.25,638.97 509.75,636.77C509.95,635.67 511.45,637.87 513.75,642.47C517.25,649.47 522.65,656.37 524.75,656.37C525.25,656.37 524.85,655.17 523.75,653.57C521.45,650.37 517.15,641.77 516.15,638.57C514.65,634.07 517.25,636.57 520.95,643.47C525.25,651.47 530.05,657.37 532.15,657.37C534.15,657.37 533.95,656.97 530.05,651.07C526.25,645.27 523.05,638.37 524.25,638.37C524.75,638.37 527.35,642.07 530.25,646.67C536.25,656.27 537.85,657.97 542.05,658.97L545.05,659.67L542.35,656.77C539.55,653.77 532.55,642.57 532.55,641.17C532.55,639.07 534.65,640.87 537.65,645.57C542.75,653.57 549.45,660.37 552.25,660.37C554.45,660.37 554.15,659.87 549.15,653.97C543.15,646.87 541.25,643.77 541.75,642.17C541.95,641.57 544.55,644.17 547.55,647.87C553.75,655.67 561.75,662.37 564.85,662.37L567.05,662.27L564.95,661.07C562.45,659.57 552.15,648.37 550.55,645.37C548.15,640.87 550.65,642.47 557.75,649.87C564.55,657.07 569.05,660.27 570.45,658.77C570.75,658.47 569.85,657.37 568.45,656.27C565.45,654.07 557.05,643.57 557.75,642.87C558.05,642.57 561.75,645.77 566.15,649.97C573.65,657.17 578.05,660.17 579.45,658.87C579.75,658.57 577.65,656.17 574.85,653.57C569.65,648.77 565.55,643.37 567.25,643.37C567.75,643.37 569.95,645.17 572.05,647.47C578.35,653.87 584.95,658.37 588.15,658.37L591.05,658.27L588.05,656.07C582.55,652.07 575.55,645.07 575.55,643.67C575.55,642.87 577.95,644.27 581.35,647.17C588.85,653.67 594.95,657.37 598.05,657.37C601.65,657.37 601.15,656.17 596.45,653.57C591.75,650.87 584.55,644.57 584.55,643.17C584.55,642.67 586.25,643.57 588.35,645.17C593.15,648.97 602.55,654.17 606.55,655.37C612.45,657.07 611.85,655.17 605.25,651.47C597.65,647.17 592.95,643.57 593.95,642.67C594.25,642.27 595.85,642.97 597.35,644.07C601.75,647.27 612.25,652.37 614.65,652.37C617.85,652.37 616.45,650.17 611.45,647.57C606.75,645.07 603.55,642.57 603.55,641.37C603.55,640.97 606.85,642.37 610.85,644.47C619.55,649.17 624.35,649.67 621.75,645.77C621.35,645.17 618.95,643.67 616.35,642.57C613.65,641.47 611.55,639.97 611.55,639.47C611.55,638.87 611.75,638.37 612.05,638.37C613.15,638.37 621.05,642.57 622.65,643.97C624.05,645.27 624.45,645.27 625.45,643.97C626.35,642.87 625.75,642.07 622.35,640.07C617.45,637.07 618.35,636.67 624.65,638.87C628.45,640.27 629.15,640.27 630.45,638.97C631.95,637.37 631.55,637.07 623.55,634.27C621.85,633.67 622.95,633.47 627.35,633.87C632.25,634.27 633.55,634.07 633.55,632.97C633.55,632.17 632.35,631.07 630.85,630.57C628.45,629.67 629.25,629.47 635.35,629.47C641.85,629.37 642.55,629.17 642.55,627.37C642.55,625.67 641.85,625.37 637.65,625.37C634.85,625.37 632.35,624.87 632.05,624.37C631.35,623.27 631.95,623.17 637.55,622.97C640.05,622.87 641.15,622.37 641.35,620.97C641.95,618.27 640.15,616.97 637.85,618.47C635.65,619.77 630.15,618.87 631.05,617.37C631.35,616.77 633.15,616.37 635.05,616.37C638.95,616.37 640.25,614.97 638.45,612.77C637.65,611.77 636.35,611.47 634.45,611.87C632.85,612.27 631.05,612.17 630.35,611.67C629.45,611.17 630.05,610.77 632.05,610.37C634.25,609.97 634.95,609.27 634.75,608.07C634.45,606.57 634.75,606.47 636.25,607.17C637.25,607.67 638.75,607.87 639.55,607.67C640.65,607.37 640.75,607.47 639.85,608.07C638.85,608.77 638.95,609.47 640.15,611.27C641.25,612.77 642.05,613.17 642.55,612.37C643.45,610.87 648.55,617.47 648.55,620.27C648.55,622.97 649.55,625.37 650.75,625.37C651.45,625.37 651.55,623.77 651.15,621.17C650.35,616.07 643.45,606.17 636.85,600.47C631.45,595.87 618.05,588.97 611.75,587.57C607.85,586.67 605.85,587.47 608.95,588.67C611.35,589.67 616.75,598.47 618.75,604.57C620.65,610.87 621.15,617.87 619.65,618.77C618.85,619.37 615.45,615.27 607.15,603.67C595.85,587.87 579.55,579.87 564.05,582.37C560.75,582.87 557.15,583.37 556.15,583.37C552.85,583.37 555.65,581.67 560.55,580.57ZM572.85,579.07C574.05,578.87 572.85,578.67 570.05,578.67C567.35,578.67 566.25,578.87 567.85,579.07C569.35,579.27 571.55,579.27 572.85,579.07ZM492.05,584.27C486.25,583.07 481.65,583.17 483.55,584.37C484.35,584.87 487.55,585.27 490.55,585.27L496.05,585.17L492.05,584.27ZM550.05,590.37C550.45,589.77 548.95,589.37 546.35,589.37C543.25,589.37 542.45,589.67 543.55,590.37C545.55,591.67 549.25,591.67 550.05,590.37ZM522.55,522.17C522.55,521.77 521.95,521.37 521.15,521.37C519.25,521.37 516.15,525.77 517.55,526.17C518.75,526.57 522.55,523.57 522.55,522.17ZM597.55,585.37C593.55,583.27 592.55,582.97 592.55,583.87C592.55,584.07 594.85,585.47 597.65,586.97C600.45,588.37 602.45,588.97 602.05,588.47C601.75,587.87 599.65,586.47 597.55,585.37ZM493.25,591.97C490.15,591.67 487.05,591.07 486.15,590.77C484.75,590.27 484.55,591.17 484.55,597.07C484.55,605.77 482.45,613.77 478.35,621.07C474.25,628.27 469.55,632.87 461.05,637.87C454.85,641.47 454.45,641.87 456.65,642.47C457.95,642.87 465.35,643.17 473.05,643.17C487.75,643.07 488.05,642.87 475.05,641.47L467.05,640.67L476.55,640.47L486.05,640.37L485.75,632.97C485.35,625.07 487.45,615.27 490.25,612.07C491.75,610.57 491.75,610.37 490.25,610.37C489.25,610.37 488.55,609.87 488.55,609.37C488.55,608.77 489.35,608.37 490.35,608.37C491.25,608.37 492.75,607.87 493.55,607.37C494.75,606.67 494.35,606.27 491.75,605.77C487.65,604.97 488.75,603.67 494.05,603.17L498.05,602.77L493.85,601.97C489.35,601.07 487.95,599.37 491.85,599.37C495.15,599.37 498.55,598.27 498.55,597.27C498.55,596.77 496.55,596.37 494.15,596.37C491.65,596.37 489.35,595.87 489.05,595.37C488.65,594.77 489.95,594.37 492.25,594.37C498.65,594.37 499.35,592.77 493.25,591.97ZM506.55,538.37C507.75,537.57 507.55,537.37 505.55,537.37C504.15,537.37 502.35,537.87 501.55,538.37C500.35,539.17 500.55,539.37 502.55,539.37C503.95,539.37 505.75,538.87 506.55,538.37ZM515.05,531.37C516.55,529.67 516.65,529.37 515.35,529.37C514.45,529.37 512.75,530.27 511.45,531.37C509.15,533.27 509.15,533.27 511.15,533.37C512.25,533.37 514.05,532.47 515.05,531.37ZM607.65,594.97C605.85,593.07 603.35,591.27 602.15,590.97C600.55,590.57 600.85,591.17 603.65,593.67C605.65,595.47 609.15,599.87 611.55,603.57C613.85,607.37 615.95,610.37 616.15,610.37C617.05,610.37 613.25,602.67 611.35,600.67C610.15,599.37 609.55,598.37 610.05,598.37C610.55,598.37 609.45,596.87 607.65,594.97ZM562.85,595.57C557.45,591.77 553.25,590.37 551.85,591.87C550.15,593.67 551.25,594.37 555.65,594.37C559.65,594.37 561.85,595.97 558.85,596.67C557.55,596.97 557.95,597.27 560.05,597.77C565.75,599.17 566.25,599.47 564.05,600.37C562.35,601.07 562.75,601.47 566.85,603.27C571.85,605.57 573.15,606.97 569.35,606.07C567.05,605.47 567.05,605.47 569.05,606.97C575.05,611.57 575.95,610.77 571.95,604.77C568.95,600.37 567.45,598.77 562.85,595.57ZM621.05,658.37C620.75,657.77 618.85,657.37 616.95,657.37C614.85,657.37 613.65,657.77 614.05,658.37C614.35,658.87 616.25,659.37 618.15,659.37C620.25,659.37 621.45,658.97 621.05,658.37ZM629.05,649.37C629.45,648.77 628.35,648.37 626.55,648.37C624.75,648.37 623.65,648.77 624.05,649.37C624.35,649.87 625.55,650.37 626.55,650.37C627.55,650.37 628.75,649.87 629.05,649.37ZM676.55,672.47C672.85,670.47 598.85,670.67 596.85,672.77C596.45,673.07 614.65,673.37 637.15,673.37C659.75,673.37 677.35,672.97 676.55,672.47ZM586.05,662.47C585.45,661.97 583.95,661.27 582.55,660.97C580.15,660.27 580.15,660.37 581.95,661.77C584.05,663.47 587.65,664.07 586.05,662.47ZM640.05,651.37C640.45,650.77 639.05,650.37 636.65,650.37C634.45,650.37 632.35,650.77 632.05,651.37C631.65,651.97 633.05,652.37 635.45,652.37C637.65,652.37 639.75,651.87 640.05,651.37ZM632.05,655.37C632.45,654.77 631.05,654.37 628.65,654.37C626.35,654.37 624.55,654.77 624.55,655.37C624.55,655.87 626.05,656.37 627.95,656.37C629.85,656.37 631.75,655.87 632.05,655.37ZM598.35,661.87C598.05,661.57 596.15,660.97 594.15,660.67C589.35,659.87 589.35,662.07 594.05,662.97C597.45,663.57 599.55,663.07 598.35,661.87ZM620.45,652.27C618.55,651.07 617.85,651.17 617.05,652.47C616.05,654.07 617.15,654.67 619.65,653.87C621.35,653.27 621.55,652.97 620.45,652.27ZM574.55,661.87C571.25,659.97 569.55,660.07 571.95,661.87C573.05,662.67 574.65,663.37 575.45,663.37C576.45,663.27 576.15,662.77 574.55,661.87ZM680.25,665.97C680.65,665.67 680.05,665.37 678.95,665.47C677.85,665.47 677.55,665.77 678.35,666.07C679.05,666.37 679.95,666.27 680.25,665.97ZM634.95,644.87C635.35,643.77 634.75,643.37 632.65,643.37C629.85,643.37 628.55,644.07 628.55,645.57C628.55,647.07 634.35,646.47 634.95,644.87ZM647.55,644.87C647.55,644.57 645.85,644.37 643.65,644.37C639.15,644.37 635.95,646.97 639.75,647.57C641.85,647.97 647.55,645.97 647.55,644.87ZM647.25,625.37C647.15,624.27 646.75,623.37 646.35,623.37C645.95,623.37 645.55,624.27 645.55,625.37C645.55,626.47 645.95,627.37 646.45,627.37C647.05,627.37 647.35,626.47 647.25,625.37Z" style="fill:#5b2333;"/>
        </g>
        <path d="M5623,5833C5591,5827 5594,5810 5628,5809C5644,5808 5648,5806 5638,5803C5610,5796 5617,5783 5651,5776C5705,5766 6130,5769 6130,5780C6130,5786 6069,5790 5968,5791C5878,5792 5780,5795 5750,5799L5695,5806L5745,5813C5773,5817 5902,5821 6032,5822C6163,5824 6270,5828 6270,5833C6270,5840 5663,5841 5623,5833Z" style="fill:#5b2333;fill-rule:nonzero;"/>
        <path d="M6590,5670L6505,5664L6598,5662C6658,5661 6689,5664 6685,5670C6682,5676 6678,5679 6677,5678C6676,5677 6637,5673 6590,5670Z" style="fill:#5b2333;fill-rule:nonzero;"/>
        <path d="M5660,5561C5660,5544 5722,5520 5765,5520C5814,5520 5812,5546 5763,5553C5742,5556 5710,5562 5693,5565C5670,5570 5660,5569 5660,5561Z" style="fill:#5b2333;fill-rule:nonzero;"/>
        <path d="M5676,5502C5665,5484 5718,5460 5770,5460C5806,5460 5820,5464 5820,5474C5820,5482 5808,5491 5793,5494C5717,5508 5682,5511 5676,5502Z" style="fill:#5b2333;fill-rule:nonzero;"/>
        <path d="M5730,5445C5730,5436 5813,5419 5829,5425C5843,5431 5843,5433 5825,5440C5804,5449 5730,5453 5730,5445Z" style="fill:#5b2333;fill-rule:nonzero;"/>
        <path d="M5700,5422C5700,5396 5743,5378 5824,5372C5880,5368 5892,5370 5888,5381C5885,5389 5863,5398 5834,5401C5807,5405 5768,5415 5746,5424C5698,5444 5700,5444 5700,5422Z" style="fill:#5b2333;fill-rule:nonzero;"/>
        <path d="M5715,5350C5711,5344 5725,5333 5746,5324C5789,5306 5898,5300 5902,5315C5905,5324 5874,5332 5753,5355C5735,5358 5719,5356 5715,5350Z" style="fill:#5b2333;fill-rule:nonzero;"/>
        <path d="M5740,5279C5740,5264 5797,5243 5863,5235C5910,5229 5920,5230 5920,5242C5920,5253 5896,5262 5838,5274C5740,5293 5740,5293 5740,5279Z" style="fill:#5b2333;fill-rule:nonzero;"/>
        <path d="M5775,5209C5765,5194 5839,5168 5909,5162C5960,5158 5972,5160 5968,5171C5964,5183 5935,5191 5813,5213C5795,5217 5778,5215 5775,5209Z" style="fill:#5b2333;fill-rule:nonzero;"/>
        <path d="M5822,5129C5832,5100 6000,5066 6015,5090C6026,5107 6005,5118 5945,5125C5918,5128 5878,5133 5856,5136C5828,5141 5819,5139 5822,5129Z" style="fill:#5b2333;fill-rule:nonzero;"/>
        <path d="M5872,5059C5879,5036 5969,5011 6044,5010C6101,5010 6111,5012 6101,5024C6095,5032 6052,5043 6007,5050C5962,5056 5912,5064 5896,5067C5874,5072 5868,5070 5872,5059Z" style="fill:#5b2333;fill-rule:nonzero;"/>
        <path d="M6565,4346C6600,4328 6629,4325 6614,4340C6609,4345 6589,4352 6570,4355L6535,4360L6565,4346Z" style="fill:#5b2333;fill-rule:nonzero;"/>
        <path d="M6480,4322C6480,4310 6558,4275 6566,4283C6569,4286 6554,4298 6531,4309C6486,4332 6480,4334 6480,4322Z" style="fill:#5b2333;fill-rule:nonzero;"/>
        <path d="M7603,4283C7578,4278 7571,4260 7594,4260C7616,4260 7640,4271 7640,4281C7640,4286 7637,4289 7633,4289C7628,4288 7615,4285 7603,4283Z" style="fill:#5b2333;fill-rule:nonzero;"/>
        <path d="M6425,4271C6432,4258 6500,4236 6507,4244C6510,4247 6497,4257 6477,4265C6436,4282 6416,4284 6425,4271Z" style="fill:#5b2333;fill-rule:nonzero;"/>
        <path d="M6360,4236C6360,4229 6406,4205 6438,4196C6450,4192 6460,4193 6460,4198C6460,4203 6443,4212 6423,4219C6402,4226 6379,4234 6373,4236C6366,4239 6360,4239 6360,4236Z" style="fill:#5b2333;fill-rule:nonzero;"/>
        <path d="M6320,4180C6320,4176 6332,4167 6348,4162C6363,4157 6383,4149 6393,4145C6402,4141 6410,4142 6410,4147C6410,4152 6390,4163 6365,4172C6340,4182 6320,4185 6320,4180Z" style="fill:#5b2333;fill-rule:nonzero;"/>
        <path d="M6290,4131C6290,4121 6370,4087 6377,4094C6382,4098 6308,4140 6295,4140C6292,4140 6290,4136 6290,4131Z" style="fill:#5b2333;fill-rule:nonzero;"/>
        <path d="M6300,4065C6314,4057 6332,4051 6340,4051C6349,4051 6344,4057 6330,4065C6316,4073 6298,4079 6290,4079C6281,4079 6286,4073 6300,4065Z" style="fill:#5b2333;fill-rule:nonzero;"/>
        <g transform="matrix(10,0,0,-10,1304.5,10323.7)">
            <path d="M435.653,663.568L435.653,663.613C435.639,663.63 435.625,663.646 435.611,663.663C435.627,663.629 435.641,663.598 435.653,663.568Z" style="fill:#5b2333;"/>
        </g>
        <g transform="matrix(10,0,0,-10,1304.5,10323.7)">
            <path d="M435.689,656.731L435.689,656.767C435.687,656.767 435.685,656.767 435.682,656.767L435.689,656.731Z" style="fill:#5b2333;"/>
        </g>
    </g>
</svg>
