<svg xmlns="http://www.w3.org/2000/svg" xmlns:serif="http://www.serif.com/" xmlns:xlink="http://www.w3.org/1999/xlink" height="100%" style="fill-rule:evenodd;clip-rule:evenodd;stroke-linejoin:round;stroke-miterlimit:2;" version="1.1" viewBox="0 0 768 768" width="100%" xml:space="preserve"><path d="M373.25,87.67c-4.7,4.8-9.7,11.2-11.3,14.1l-2.8,5.4 -6.4,.5c-10.4,.8-18.2,7.6-19.6,17 -.9,5.7 1.5,11.9 5.6,14.8 6.1,4.4 16.8,3.1 16.8-2 0-2.2-2.1-3.3-4.1-2 -2.4,1.5-4.9,1-7.4-1.6 -1.9-1.9-2.5-3.5-2.5-7.1 0-3.9 .5-5.1 3.3-7.9 4.8-4.8 10.2-5.5 17-2.1 8.2,4 12.7,12.7 12.7,24.8 0,5.4-.1,5.8-2.4,5.8 -2,0-2.4-.6-2.9-4.9 -1.1-9.3-5.6-15.3-12.3-16.7 -4.1-.8-8,2.3-6.9,5.5 .6,2 1.2,2.2 3.8,1.7 4.9-1 7.7,2.3 7.7,9.1v5.3l-13.2,.1c-7.3,0-18.6,0-25-.1 -10.8-.1-11.8,0-11.8,1.7 0,1 1.8,9.8 4,19.6 2.2,9.8 4,18.3 4,18.8s-1.3,.3-3-.6c-5.5-2.9-11.8-.9-14,4.4 -2.1,5.1-.9,15.1 2.3,20 1.5,2.2 2.7,4.3 2.7,4.6s-1.4,.5-3,.5c-4.6,0-9.4,2.4-11.9,5.8 -4.3,6-2,16.6 4.4,20.8 3.4,2.2 10.3,2.2 13.6,.1 2.4-1.6 2.6-1.6 4.7,.6 1.9,2 5.2,8.6 5.2,10.3 0,.4-.8,0-1.7-.8 -6-5.1-14.5-3.9-17.7,2.6 -2,4-1.9,4.8 1.1,13.8 .8,2.7-2.4,2.3-6.3-.7 -4.2-3.2-6.4-3.2-6.4,0s5,8.8 10.3,11.4l4.2,2 -6-.5c-3.3-.3-10.3-1.2-15.5-2.1 -19.3-3.1-26.7-5.8-31.4-11.3 -6.8-8.2 .3-20.2 10.1-16.9 6.7,2.2 7.4,11.1 .9,11.1 -4.6,0-3.1,5 2.4,7.8 9.2,4.7 27.7,7.9 26.4,4.6 -.3-.8-2.2-1.7-4.2-2 -6.1-1.1-13.6-3.5-15.5-5 -1.8-1.4-1.8-1.6-.1-4 5.6-8.7-1.8-19.6-13.4-19.6 -12.3,0-20.5,12.1-15.8,23.4 .9,2.2 1.4,4.1 1.2,4.4 -.3,.2-7.1-1-15.3-2.7 -8.1-1.7-15.4-3.1-16-3.1 -1,0-1.3,6.1-1.3,27v27l-3.7-1.5c-4.5-1.9-5.1-2.4-3.6-3.3 2.3-1.5 3.4-6.3 2.2-9.9 -3-9.2-18.8-9.8-25.1-1 -1.3,1.8-2.3,5.1-2.6,8.3 -.4,5-.6,5.2-3.8,5.8 -4.2,.8-13.7,7.2-19.4,13.1l-4.5,4.7 7,6.5c6.7,6.3 15,11.3 18.8,11.3 1.3,0 1.7,.9 1.7,4 0,11 10.6,19.3 20.4,16 2-.6 4.5-2.3 5.6-3.7 2.7-3.4 2.7-9.6 0-12.3l-2.1-2.1 3.5-1.4c2-.8 4-1.5 4.6-1.5s1,7.9 1,23c0,19.5 .2,23 1.5,23 .8,0 7.8-1.4 15.5-3 7.7-1.7 14.3-3 14.6-3s-.2,1-1,2.2c-3.9,5.5-.1,13.8 6.3,13.8 4.2,0 4.9-1.9 1.7-4.5 -3.8-3-3.2-6.2 1.9-9.7 5.1-3.5 5.8-3.5 3.8,0 -3.8,6.6 3.3,14.8 11.2,12.8 3.1-.8 4.7-3.8 3.7-6.7 -.6-1.5-1.1-1.8-1.6-1.1 -1,1.7-5.1,1.5-6.6-.3 -1.8-2.1-.5-6 2.8-8.3 6.5-4.7 28.1-7.6 38-5.2 13.3,3.1 20.3,14.9 13.7,22.9 -3.2,3.7-8.6,5.7-11.4,4.1 -3.3-1.7-4.4-4.6-2.9-7.8 1.1-2.1 2-2.7 4.8-2.8 4.2,0 4.8-1.7 2.1-6 -6-9.8-27.7-11.3-35.5-2.5 -1.8,2-1.9,2.3-.3,3.8 1.5,1.6 1.8,1.5 4.1-.6 1.3-1.2 3-2.1 3.7-2 .8,.1 3.9-.1 7-.5 4.1-.6 6.5-.4 9.2,.8 4.1,1.7 4.6,3 1.8,4.5 -5.2,2.8-5.3,13.7-.1,18.3 4.2,3.8 12,3.9 17.4,.3 2-1.3 3.6-2.3 3.6-2.1 0,.2-1.3,3.6-3,7.6 -3.4,8.3-3.6,9.4-1.5,8.6 1.2-.4 1.5,.3 1.5,3 0,5.6 2.7,10.2 7.4,12.6 2.2,1.1 4.2,2.1 4.3,2.2 .9,.8-4.6,60.5-5.8,62.7 -.5,.9-3.3,3.1-6.4,4.8 -6.6,3.8-11.2,9.7-12.1,15.7 -.6,3.9 .7,13.8 2.2,17.9 .4,1-.4,1.2-3.5,.8 -3.5-.5-4.4-.2-7.1,2.5 -4.5,4.6-4,5.5 2.8,4.7 3.2-.3 6.9-.2 8.4,.4 3.4,1.3 8.8,6.6 8.8,8.7 0,1.9 6.7,9.7 7.4,8.6 .6-1 5.8-40 8-59.7 3.1-27.6 3.6-32.3 5.1-52 2.3-31.1 3.4-50.6 4-67.5 .3-8.5 .8-18.2 1.1-21.4l.5-5.9 -9.3,.7c-31.9,2.4-70.7,8.5-110.5,17.3l-2.3,.5v-113.4l2.3,.5c27.6,6.8 82.4,15.1 106.8,16.4l13.1,.6 -.6-8.4c-3.7-45.2-8.7-79.8-15.7-109.5 -1.6-7.1-3.2-14.4-3.6-16.2l-.6-3.2h60.8c57.4,0 60.7,.1 60,1.7 -1.7,4.5-7.8,33.6-10.5,49.8 -4,24.4-5.7,37.7-7.5,59 -.8,9.9-1.7,19.9-1.9,22.3 -.2,2.3-.1,4.4 .3,4.6 .7,.5 35.9-2.7 48.1-4.4 12.8-1.7 35.5-5.6 55-9.4 9.6-1.9 17.7-3.2 17.9-3 .7,.7 .7,111.2 0,111.8 -.4,.4-4.9-.3-10-1.4 -32.7-7.3-74.1-13.7-100.8-15.6l-10.4-.7 .8,22.9c.4,12.6 1,26.9 1.4,31.9l.6,9 4-.3c2.2-.2 4.2-.5 4.3-.7 .2-.2-.1-6.6-.7-14.2 -.6-7.7-1.1-19.7-1.1-26.7 0-12.8 0-12.8 2.3-12.2 1.2,.3 3.1,.6 4.2,.6 1.2,0 1.6,.3 .9,.8 -1.8,1.2-3.4,4.9-3.4,7.8 0,2.4 .4,2.1 4.2-3.1l4.3-5.7 4.4,.6c2.4,.3 6,.6 8,.7 2.9,0 3.2,.2 1.6,.9 -1.1,.5-4.2,1.2-6.8,1.5 -12.9,1.7-17.3,14.7-13,38.7l1.8,9.8h5.2c2.9,0 5.3-.2 5.3-.4s-1.5-3.7-3.4-7.7c-1.9-4.1-3.3-7.5-3.1-7.7 .1-.2 1.8,.6 3.6,1.7 2.3,1.4 5.1,2.1 8.6,2.1 4.3,0 5.8-.5 8.4-2.8 5.5-5 4.8-16-1.3-19.3l-2.1-1.2 2.4-1.3c3.7-2 9.3-2.7 13.2-1.6 1.9,.5 4.1,.6 4.8,.1 .9-.5 2.3,0 4.1,1.8 2.8,2.7 5.8,2.6 5.8-.2 0-4.3-8.7-8.5-17.6-8.5 -9.2,0-18.1,4.4-20.4,10 -1.5,3.7-.8,4.8 2.8,4.2 3-.4 4.5,.8 5.6,4.5 .5,1.7 0,2.9-1.9,4.9 -3.5,3.5-7.8,2.7-12.2-2.1 -9.4-10 1.8-23.2 20.5-24.3 8.7-.5 22.3,1.7 28,4.5 4.6,2.2 7.2,6.5 5.6,9 -1.3,2.2-5,2.9-6.8,1.4 -1-.9-1.5-.6-1.9,1 -.8,2.9 0,4.4 2.9,5.8 3.2,1.4 4.7,1.4 7.9-.1 4.6-2.1 7.3-10.6 4.3-13.6 -2.2-2.2 .3-1.2 4.8,1.8 5.2,3.6 5.9,7 1.9,9.6 -3.5,2.3-3.2,4.4 .5,4.4 6.2,0 10.2-8 7-14.1 -.6-1-.9-1.9-.8-1.9 .2,0 6.6,1.3 14.3,3 7.7,1.6 14.5,3 15.2,3 1,0 1.3-5.2 1.3-23.1 0-22.6 0-23 2-22.5 1.1,.3 2.9,.9 4,1.2 2.4,.6 2.6,2.7 .5,4.4 -.9,.7-1.5,2.9-1.5,5.2 0,7.2 7.8,12 16,9.8 7.6-2 12-7.7 12-15.2 0-4.4 0-4.4 4.7-5.7 5-1.3 12.2-6.3 18.8-13l3.9-4.1 -4.4-4.6c-6.6-6.7-13.1-11.2-18.3-12.6l-4.7-1.2v-4.6c0-5.4-2.7-10.2-7.2-13.1 -2.6-1.6-4.5-1.9-9.1-1.6 -4.9,.3-6.3,.8-8.9,3.5 -3.8,3.7-4.3,8.9-1.3,12.2 2.2,2.4 1.3,3.7-3.3,4.6l-3.2,.6v-26.6c0-23-.2-26.6-1.5-26.6 -.8,0-6.1,1.1-11.8,2.4 -5.6,1.3-12.4,2.7-15,3.1l-4.8,.6 1.6-3.2c2.3-4.3 1.6-13.9-1.2-17.7 -5.1-6.9-14.2-9.2-21.9-5.6 -6.6,3.1-9.3,11.4-5.6,17.6 1.6,2.8 1.6,3-.2,4.3 -2.2,1.7-9.4,4.1-14.9,5 -3.3,.5-5.8,2.7-4.5,4 .8,.9 13.4-1.6 20.3-4 6.9-2.4 12-6.5 11.2-8.9 -.2-.6-1.7-1.3-3.3-1.6 -4.3-.8-5.6-5.1-2.5-8.4 1.3-1.3 3.4-2.7 4.7-3 3.6-.9 9,1.8 10.9,5.4 3.2,6.1-.2,12.8-8.5,17 -10.8,5.4-53.2,11.1-59.2,7.9 -2.2-1.2-4.8-6.6-4.8-10.1 0-6.8 8.6-16.1 12.9-13.9 2.8,1.6 3.4,4.5 1.6,8.1 -1,2-2.3,3-3.8,3 -6.1,0-6.6,8.5-.6,11.5 4,2.1 7.8,1.9 13.5-1 5-2.5 8.4-6.7 8.4-10.3 0-3.2-1.5-3.4-4.4-.7 -2.7,2.5-7.2,4.2-8.2,3.2 -.3-.3 .2-1.9 1-3.6 4.2-8.1-.1-17.4-8.2-17.4 -2.3,0-5.6,.9-7.6,2.1s-3.6,2-3.6,1.7c0-1.5 4.1-9.3 5.7-10.7 1.8-1.7 2.1-1.7 5.8,.2 2.2,1.1 4.8,2 5.8,2 3.7,0 8.4-3.1 10.5-6.9 5.7-10.1-.3-22.1-11.1-22.1h-3.4l3.1-6.2c2.4-4.8 3.1-7.4 3-11.9 -.1-9.9-5.3-14.4-13.8-12.1 -2.3,.6-4.2,1-4.3,.9 -.1-.1 1.6-8.1 3.8-17.7 2.2-9.6 4-18.4 4.2-19.5 .2-1.9-.5-2-25-2.3l-25.3-.2v-5.4c0-6.4 2.3-9.1 7.8-9.1 4.3,0 5.4-2.5 2.6-5.6 -2.2-2.4-6-2.4-10.1,.1 -3.9,2.3-5.2,4.7-7.2,13 -1.3,5.4-2,6.6-3.8,6.8 -2.1,.3-2.3-.1-2.3-4.5 0-6.8 2.6-16.1 5.7-20.1 2.8-3.7 11.2-8.2 15.3-8.2 3.2,0 8.4,3.2 10.5,6.3 2.1,3.3 2.2,9 .1,12.1 -1.6,2.5-3.2,3-8.9,2.6 -3.8-.2-4.8,2.7-1.8,5.2 4.4,3.5 13.8,1.6 17.9-3.7 4.3-5.4 4.1-13.2-.5-20.2 -3.5-5.5-9-8.4-16.8-9.1l-6.3-.5 -1.7-4.3c-1.1-2.9-4.9-7.8-11-14.1l-9.4-9.8 -8.4,8.8Zm19.9,16.4c2,4.6 1.8,6.4-1.5,10.9 -4.6,6.1-7.2,14-7.9,23.3 -.4,4.8-1.2,8.6-1.8,8.8 -1.3,.4-2.4-4.2-2.4-10.1 0-5.9-2.3-13.1-6.5-19.9 -5.5-9.1-4.9-12.4 4.4-22l4.6-4.8 4.8,5.3c2.7,2.9 5.5,6.7 6.3,8.5Zm-74.1,90.7c2.4,2.4 4.9,9.5 4.3,12.4 -.6,3.1-4.2,1.9-6.1-2.1 -1.9-3.8-3.7-4.1-3.7-.7 0,1 2.7,5.8 6,10.7 3.3,4.8 6,9.4 6,10.2 0,3.6-16.2-17-17.5-22.2 -2.1-8.4 5.3-14 11-8.3Zm134.5-.4c2.5,2.5 2.6,7.2 .2,12.2 -1.7,3.7-15.3,21-16,20.4 -.8-.8 2.9-7.7 7.2-13.5 2.5-3.5 4.6-7.4 4.6-8.7 0-3.2-1.1-3-3.5,.9 -2.4,3.8-4.9,4.2-5.3,.8 -1.4-9.9 7-17.9 12.8-12.1Zm-138.2,31.7c5.3,3 9.7,9 11.8,15.7 2,7 4.4,23.6 4.4,31.9 0,3.8 .5,7.7 1,8.8 1,1.7 .7,1.9-3.5,1.9 -4.7,0-5.6-.9-3-3 1.1-.9 1.5-3.2 1.5-7.9 0-17.1-5.4-32.6-13.2-38.5l-2.8-2 -2,2.2c-5.5,5.9-14.9-1.8-10.5-8.5 3.2-4.9 8.6-5.1 16.3-.6Zm148.2-.5c2.7,2.9 2.5,6.4-.5,9.3 -2.7,2.8-6.2,3.2-9.1,1 -2.9-2.2-5-1.8-8,1.7 -5.9,7-9.4,19.2-9.6,32.5 0,6.9 .4,9.9 1.5,11.7 1.6,2.4 1.6,2.4-2.8,2.8 -3.6,.2-4.5,0-4.5-1.3 0-.9 .3-1.9 .7-2.3 .4-.3 .8-4.6 1-9.4 .9-26 6.6-41.2 17.5-46.5 4.9-2.4 11.3-2.2 13.8,.5Zm-146.3,35.3c5.9,6.2 6.3,16.5 .8,20.1 -2.3,1.5-12,2.2-13.3,1 -.3-.3 .6-.6 2.1-.6 5.9,0 10.2-4.2 9.5-9.1 -.2-1.7-1.3-2.7-3.7-3.5 -5.7-1.8-8-7.4-4.5-10.9 2.2-2.1 5.1-1.1 9.1,3Zm-118.3,47.5c2,1.9 2,2-.2,4.3 -1.2,1.3-2.2,3-2.2,3.8 0,2.8 8.6,8.9 12.5,8.9 .8,0 1.5,.9 1.5,2 0,1.7-.7,2-4.2,2 -15.2,0-25.3-10.5-19.3-20.1 2.6-4.2 8.2-4.6 11.9-.9Zm374-2c1.4,.5 3.2,2.3 4.1,4.1 4.7,9.1-5.5,18.9-19.7,18.9 -3.9,0-4.8-.3-4.8-1.8 0-1.3 1.3-2.1 4.3-2.9 7.6-2.1 12-8.1 8.2-11.3 -2.2-1.8-1.8-4.6 .7-6.4 2.6-1.9 3.7-1.9 7.2-.6Zm15.6,20.5c1.9,.6 9.9,5.9 14,9.3 .3,.3 0,.7-.7,.9 -.7,.2-2.9,1.8-5,3.5 -2.1,1.7-5.7,3.9-8,5 -4.1,1.8-4.2,1.8-9.2-.2 -2.8-1.1-7.4-2.9-10.2-4 -2.8-1.1-7.7-2.3-11-2.7 -4.7-.5-5.9-.9-5.9-2.3 0-1.4 1.2-1.8 6.4-2.2 4.6-.4 8.9-1.7 15.3-4.7 4.8-2.2 9.5-3.9 10.3-3.7 .8,.3 2.6,.8 4,1.1Zm-401.8,1.6c6.8,3.5 14.8,5.9 19.5,5.9 3.6,0 4.3,.3 4.3,2s-.7,2-3.8,2c-4.7,0-13.1,2.4-19.4,5.6 -5.1,2.6-10.7,3.1-14.1,1.2 -1.2-.6-4.6-2.9-7.5-5.1 -4.6-3.5-5.1-4.2-3.6-5 1-.6 4-2.7 6.8-4.8 6.1-4.6 11.3-5.1 17.8-1.8Zm23.8,16.8c0,1.2-1,2.1-2.7,2.6 -4.1,.9-10,5.1-10.8,7.6 -.5,1.4 0,3.1 1.5,5.2l2.3,3 -2.3,1.9c-3.2,2.6-7.3,2.3-10.4-.8 -5-5.1-2.7-13.8 4.7-17.5 5.6-2.9 8.4-3.7 13.5-3.8 3.5-.1 4.2,.2 4.2,1.8Zm358.7,.9c5.6,2.9 8.3,6.6 8.3,11.3 0,5.1-.8,6.7-4.1,8.4 -3.9,2.1-6.5,1.9-9-.6l-2.1-2.1 2.1-2.2c1.2-1.2 2.1-3.2 2.1-4.3 0-2.7-4.5-6.5-9.8-8.2 -3.1-1-4.2-2-4.2-3.4 0-1.8 .5-1.9 6.3-1.5 3.5,.3 8.1,1.5 10.4,2.6Zm-237.2,41.4c-.3,4-1,17.4-1.6,29.8 -.6,12.4-1.3,22.7-1.5,22.9 -.8,.9-3.5-1.1-4.6-3.5 -1-2.1-.9-4.6 .5-12.7 2.3-13.5 2.2-24-.2-29.2 -3.1-6.6-8.6-10.5-15.1-10.5 -4.8,0-4.6-2 .2-2.2 8.3-.3 9.2,0 13.6,4.7l4.2,4.7v-2.9c0-1.6-.7-3.8-1.5-5 -1.7-2.4-.9-3.1 3.7-3.2l2.8-.1 -.5,7.2Zm-11.8,143.6c-1.7,5.2-3.7,18-3.8,24.5v4.2l-2-5.5c-2.7-7.7-4-16.3-2.9-20.1 1.1-3.6 4.5-7.7 7.5-8.9 2.7-1 3,.2 1.2,5.8Z" fill="#5b2333" fill-rule="nonzero"/><path d="M378.65,111.07c.2,11.6 1.6,14 1.8,3 .1-5.9-.3-9.7-.9-9.7 -.6,0-1,2.8-.9,6.7Zm5-1.7c-.1,2.5-.4,7-.7,10 -.3,4.1-.2,5.1 .6,3.8 .6-1 .9-5.4 .7-10 -.1-4.6-.4-6.3-.6-3.8Zm185.2,227.7c3.7,.2 9.7,.2 13.5,0 3.7-.2 .6-.3-6.8-.3 -7.4,0-10.5,.1-6.7,.3Zm-387,0c3.7,.2 9.7,.2 13.5,0 3.7-.2 .6-.3-6.8-.3s-10.5,.1-6.7,.3Z" fill="#5b2333" fill-rule="nonzero"/><path d="M337.35,167.97c-.3,.3 .3,4.4 1.3,9.1 7.4,33.9 15.8,99.2 15.9,123.1 0,7-.1,7.2-2.2,6.8 -1.3-.3-7.7-.7-14.3-1.1 -14-.7-42.2-3.7-60.9-6.6 -13.6-2.1-41-7.3-43.9-8.5 -1.6-.6-1.7,2.4-1.7,41.6v42.2l2.3-.6c11.8-3.2 48.1-9.2 73.2-12 14.6-1.7 46.6-3.9 47.2-3.2 .6,.6-1.5,46.5-3.3,73.1 -4.2,62.2-11.8,134.8-16.1,153.8 -.8,3.7-1.2,7.4-.9,8.2 .5,1.3 7.4,1.5 48.1,1.5h47.5v-2.8c0-1.5-.5-4.7-1.1-7.1 -5.7-24.9-15-121.4-17.8-184.6 -.6-12.7-1.3-27.4-1.5-32.8 -.3-6.1-.1-9.7 .5-9.7 8.4,0 40.6,2.8 58.7,5.1 19.2,2.4 54.3,8.4 61.5,10.5 1.6,.5 1.7-1.9 1.7-41.6s-.1-42.1-1.7-41.6c-19.3,5.9-89.7,15.6-114.1,15.6h-7.4l.6-9.8c2.8-42 8.6-86.2 16.1-120.7 .8-3.9 1.5-7.3 1.5-7.8 0-.8-88.4-1-89.2-.1Zm48.7,8.9c2.2,2.2 3.5,4.5 3.5,6.1 0,2.1 .4,2.4 2,1.9 2.7-.8 2.7,2.2 .1,9.8 -1.9,5.6-1.6,7.2 .9,4.2 2.2-2.6 7.9-3.6 11.1-1.9 6.3,3.2 8.3,12.3 3.7,17.1 -2.7,2.9-9.1,3-9.6,0 -.3-1.3 .3-1.7 2.3-1.7 3,0 4.3-2.4 2.4-4.6 -2.1-2.6-7-1.4-9.2,2.3 -3.9,6.8-4.7,18-4.7,68.7v47.9l36.8-.6c29.7-.4 38.1-.8 44.2-2.2 11.3-2.6 17-6.1 17-10.4 0-1.4-4.3-1.4-5.6-.1 -.8,.8-1.5,.6-2.5-.6 -1.2-1.4-1-1.9 1.4-4 8.2-7 18.3,2.9 11.8,11.6 -2.4,3.3-1.8,3.6 4.3,1.9 6.3-1.7 11.7-.3 20.2,5.2l7.7,5 -3.8,3.9c-7.2,7.3-18.3,10.1-26.7,6.6 -5.6-2.4-6.3-1.9-2.9,1.9 3.9,4.5 4,7.8 .2,11.6 -4.8,4.7-13.1,3-13.1-2.7 0-2.6 1.1-3 3.9-1.2 2.8,1.7 5.4,.3 4.6-2.4 -2.6-8.9-21.5-12.1-69.3-11.6l-28.2,.3v90.4c0,90.1 .3,100.1 3.5,107.8 1.9,4.4 5.5,6.6 8.9,5.4 3.7-1.4 3.3-4.9-.6-6.4 -2.2-.8-2.4-4.3-.3-5.1 3.5-1.3 8.8,2.7 10,7.6 .9,3.6-1.1,9.3-3.8,11.1 -3.4,2.2-7.5,2.9-9.8,1.6 -1.1-.6-2.3-.8-2.6-.5 -1.3,1.3 1.9,5.8 5.2,7.2 4.7,1.9 6.1,4.8 4,8 -3.4,5.2-7.8,4-12.6-3.3l-3.1-4.8 .6,3.9c.3,2.2 1.8,6.4 3.3,9.4l2.8,5.5 -5.8,5.3c-5.8,5.4-5.8,5.4-8.7,3.9 -1.7-.9-3.7-2.7-4.7-4.1 -.9-1.4-2.7-3-3.9-3.4l-2.3-.9 2.6-4.6c2.8-5.1 5.6-13.5 4.5-13.5 -.4,0-1.6,1.6-2.7,3.6 -3.3,6.2-10,8-12.6,3.2 -1.7-3.3-.3-6.2 3.9-8.1 3.1-1.4 6.2-4.9 6.2-7.1 0-.2-2-.1-4.5,.2 -2.5,.2-5.8-.1-7.4-.8 -2.9-1.2-6.1-6.1-6.1-9.5 0-2.5 2.8-7.3 4.9-8.5 2.4-1.2 6.8-1.3 7.5-.1 1,1.6-.5,4-2.7,4.3 -2.7,.4-3,4.5-.6,6.1 3,1.9 6.9-.1 8.9-4.6 4.1-9.2 4.3-13.9 4.7-108.6l.4-91.3 -36.8,.5c-36.1,.5-46.3,1.4-54.5,4.5 -6.1,2.5-9.5,10.2-4.4,10.2 1.4,0 2.8-.5 3.1-1 .9-1.5 2.2-1.2 2.9,.6 .9,2.3-3.7,6.4-7.3,6.4 -3.8,0-7.9-3.6-8.7-7.6 -.5-2.6 0-3.8 2.8-6.9 3.2-3.7 3.2-3.8 .8-3.1 -10.3,3.2-12,3.4-15.7,2.4 -5.7-1.6-12.5-5.3-15.6-8.5l-2.7-2.9 5.5-4.1c8.5-6.4 13.5-7.9 20.4-6.5 8.1,1.7 8.6,1.6 6.2-1.4 -3-3.8-2.8-8.9 .5-11.9 3.6-3.4 8.7-3.3 12,0s2.3,4.8-2.6,4c-9.1-1.5-3.8,6 6.7,9.4 8.9,2.9 25,4 59.2,4.1h28.4l-.6-49.8c-.6-51.5-1.4-61-5.2-66.9 -2.3-3.4-5.7-4.8-8.4-3.3 -3.2,1.7-2.4,5.4 1.2,5.8 4.1,.5 3.2,3.6-1.2,4 -6.1,.6-9.9-5.3-8-12.4 2-6.9 9.8-9.5 16.5-5.3 1.9,1.1 3.4,1.9 3.4,1.6 0-.2-.9-3-2-6.2 -1.1-3.2-2-6.7-2-7.8 0-1.4 .5-1.8 2-1.4s2,0 2-1.4c0-1.9 6.5-9.9 8.1-9.9 .5,0 2.4,1.6 4.4,3.5Zm-28.6,.1c3.6,3 4,6.2 1.1,9.5 -2,2.4-2,2.4-3.5,.5 -.8-1.1-1.5-3.7-1.5-5.7 0-2.1-.3-4.4-.6-5.3 -.9-2.4 1-1.9 4.5,1Zm52.6-1.6c-.4,.6-.8,3.4-1.1,6.2 -.5,5.8-1.3,7.2-3.7,6.2 -4-1.5-3.3-8.9 1-11.6 3.2-2 4.7-2.3 3.8-.8Zm5.5,14.2c0,1.8-2.6,4.8-4.1,4.8 -.6,0-.5-.9 .1-2.1 .7-1.1 .9-3.2 .6-4.5 -.6-2.3-.5-2.3 1.4-1.2 1.1,.7 2,2 2,3Zm-64.2,.5c.6,2 .9,3.9 .7,4.2 -1,1-4.5-3.3-4.5-5.6 0-3.6 2.5-2.7 3.8,1.4Zm10.7,32.1c2.1-.4 2.5-.1 2.5,1.8 0,2.8-.1,2.8-4.5,1 -1.9-.8-4.1-2.8-4.9-4.5 -2.3-4.4-2-4.7 1.4-1.1 2.3,2.4 3.6,3.1 5.5,2.8Zm46.7-2.1c-1.5,2.7-4.4,5-7.3,5.7 -2.4,.5-2.7,.3-2.5-1.8 .1-2.1 .5-2.4 2.6-1.9 1.8,.3 3.2-.3 4.9-2.1 2.7-2.9 3.8-2.8 2.3,.1Zm.7,10c-.6,1.6-1.9,3.8-3,4.9 -1.3,1.4-1.7,2.4-1,2.9 .6,.3 1.1,1.3 1.1,2.2 0,1.2-.7,1.4-3.4,.9 -2.8-.5-3.7-.3-4.5,1.3 -1.8,3.3-1.2,5.9 1.9,8.3 4.8,3.5 3.8,8.7-1.5,7.4 -4.9-1.2-5.8-13.3-1.5-20.3 1.7-2.9 10.5-10.2 12.2-10.3 .4,0 .3,1.2-.3,2.7Zm-49.7,1.6c6.2,4.7 9.1,10.7 8.4,17.7 -.4,4-1.1,6-2.7,7.3 -2.5,2-3.8,1.8-5.3-.6 -.8-1.3-.4-2.3 2.2-5 1.7-1.8 3.2-4.2 3.2-5.3 0-3.1-3.4-5.8-6.5-5 -2.3,.6-2.5,.4-1.9-1.8 .4-1.7-.1-3.5-1.5-5.5 -4.2-5.8-2.3-6.7 4.1-1.8Zm42.6,33.3c1,.8-2.1,4.3-4.4,4.8 -3.3,.9-3.3,.8-2.7-3.1 .5-3 .7-3.2 3.7-2.6 1.7,.3 3.2,.7 3.4,.9Zm-33.5,2.6c.2,1.8 .3,3.4 .2,3.6 -.2,.2-1.9-.4-3.9-1.2 -2.5-1-3.6-2.1-3.6-3.5 0-1.7 .6-2.1 3.4-2.1 3,0 3.4,.3 3.9,3.2Zm-.3,33v18.8h-14.4c-11.9,0-15-.3-17.5-1.8 -1.7-.9-3.1-1.9-3.1-2.2s7.2-.4 16-.2l16,.3 -.3-16.3c-.2-9.7-.8-17.1-1.5-18.4 -.8-1.6-.8-2.4 0-3.2 .9-.9 1.6-.5 3,1.6 1.6,2.4 1.8,5.1 1.8,21.4Zm31.2-19.7c-.8,1.6-1.2,8.5-1.2,18.6v16l16-.3c8.8-.2 16,0 16,.3s-1.6,1.3-3.5,2.2c-2.8,1.4-6.5,1.7-18,1.7h-14.5v-18.6c0-17.3 .1-18.8 2.1-21.6 2.7-3.7 4.9-2.4 3.1,1.7Zm-154.5,22.9c4.3-2.5 8.4-.3 9.5,5 .5,2.1 .7,4.1 .5,4.2 -.2,.2-2.6-.3-5.3-1.2 -4.6-1.5-10.4-6.5-10.4-8.9 0-.5 .7-.2 1.4,.8 1.3,1.6 1.5,1.7 4.3,.1Zm272.3,.1c1.7,.9 2.9,1 3.7,.3 .8-.6 .7,.2-.3,2.1 -1.8,3.7-1.6,3.5-8,5.4 -4.8,1.4-5.1,1.4-4.8-.1 1.2-6.3 1.7-7.4 3.7-8.2 2.9-1.1 2.8-1.2 5.7,.5Zm-17,3.4c0,4.1-1.2,4.5-2.7,.9 -1.1-2.5-1.1-3.3-.1-3.9 1.8-1.1 2.8-.1 2.8,3Zm-234-2.5c0,.2-.7,1.9-1.5,3.7l-1.4,3.4 -.1-3.8c0-2.6 .4-3.7 1.5-3.7 .8,0 1.5,.2 1.5,.4Zm30.4,8.4c.7,2.1 5.9,4.9 6.4,3.4 1.4-4.2 7-6.4 13.2-5.1 3.6,.8 9.5,6.3 8.5,7.9 -1.1,1.8-6.1,1.1-8.1-1.1 -3.9-4.3-9.1-4.8-8-.7 .4,1.8 .1,1.9-3.2,1.4 -6.3-1.1-13-3.9-13.5-5.5 -.3-.9-.8-2.4-1.2-3.5 -.8-1.7-.6-1.7 2.3-.2 1.7,.9 3.3,2.4 3.6,3.4Zm175.8-2.6c-.7,.7-1.2,2-1.2,3s-.7,1.8-1.5,1.8c-.9,0-2.8,.6-4.3,1.4 -1.5,.7-4.6,1.6-6.9,1.9 -3.7,.4-4.3,.2-4.3-1.3 0-3.1-2.9-3.1-7.4,.2 -3.4,2.3-5,2.9-7.1,2.4l-2.6-.7 2.2-3c4.7-6.7 14.7-7.5 19.3-1.7 2,2.6 2.6,2.9 4.4,1.9 1.1-.6 2.4-2 2.7-3.1 .4-1.1 2.1-2.7 3.8-3.4 3.5-1.5 4.7-1.2 2.9,.6Zm-224.5,6.2c.1,.1-1.3,.9-3.2,1.8 -3.3,1.4-3.5,1.4-3.5-.2 0-2.4 1-3 3.9-2.3 1.4,.3 2.7,.7 2.8,.7Zm273.1,1.4c.3,2.2 .3,2.2-2.7,.5 -2-1.2-2.6-2-1.8-2.5 2-1.3 4.2-.4 4.5,2Zm-196.9,30.8c-4.6,4.8-7.9,6.4-13.3,6.4 -3.9,0-4.8-.5-7.3-3.5l-2.9-3.5 -3.4,2.5c-1.9,1.4-3.8,3.2-4.3,4 -1.5,2.8-2.5,1.5-1.5-2 1-3.2 1.5-3.5 7.9-5 8.3-1.8 7.9-1.8 7.9,0 0,3.9 6.4,3.3 9.9-.9 .9-1 3-1.6 5.9-1.6h4.6l-3.5,3.6Zm122.1-1.1c1.9,1.4 4.7,2.5 6.3,2.5 2.4,0 2.8-.3 2.4-2 -.6-2.2 .5-2.5 3.4-1 2.6,1.5 2.4,3.5-.7,5.9 -5.4,4.2-14.5,2-19.3-4.8l-2.2-3.1h3.3c2.1,0 4.8,1 6.8,2.5Zm-200,2.1c0,.2-1.1,.4-2.5,.4 -1.8,0-2.5-.5-2.5-2 0-2 .1-2 2.5-.4 1.4,.9 2.5,1.8 2.5,2Zm122,25.9c0,28.5-.1,29.6-2.1,31.6 -2.2,2.2-3.7,2.1-5.3-.4 -.8-1.2-.5-2.2 1.2-4 2.2-2.3 2.2-2.9 2.2-27.6v-25.3l-16,.4c-8.8,.1-16,.2-16,0 0-.1 1.5-1.1 3.3-2.2 2.8-1.7 5-2 18-2h14.7v29.5Zm59.3-27.2 3.7,2.3 -33-.8v24.9c0,23.5 .1,25.2 2,27.6 2.4,3 2.5,4.1 .6,5.6 -1,.9-1.9,.7-3.7-.8l-2.4-1.9 -.6-59.2h14.8c13.6,0 15.1,.2 18.6,2.3Zm94.3-.7c-.3,.9-.6,1.8-.6,2 0,.9-3.9,.4-4.5-.6 -.3-.6 .3-1 1.4-1 1.2,0 2.1-.5 2.1-1 0-.6 .5-1 1.1-1 .6,0 .8,.7 .5,1.6Zm-54.7,.8c2.2,.8 3.8,2.2 4.7,4.4 1.6,4 1.1,4-3.6-.1 -2-1.7-4.5-3.7-5.6-4.4 -2.6-1.6 0-1.6 4.5,.1Zm-211.9,4.8c0,.7-.9,2.8-2,4.5 -2.4,4-6.4,4.4-9.9,1.2 -2.8-2.6-1.9-3.7 4.6-5.5 6.2-1.6 7.3-1.7 7.3-.2Zm263.1,1.4c1.5,.7 2.9,2.2 3.2,3.4 .3,1.1 .1,1.8-.4,1.5 -.4-.3-2.1,.1-3.7,.9 -3.9,2-7.1,.3-8.8-4.7l-1.4-3.9 4.3,.7c2.3,.4 5.4,1.3 6.8,2.1Zm-18.1,3.1c0,1.6-.6,2.3-2,2.3 -2.1,0-2.7-1.5-1-2.5 .6-.3 1-1.6 1-2.8 0-1.8 .2-1.9 1-.7 .5,.8 1,2.5 1,3.7Zm-234.8-1.2c.3,1.4 .4,2.5 .2,2.5 -.1,0-.9,.2-1.7,.5 -1,.5-1.3-.1-.9-2.5 .5-3.6 1.8-3.9 2.4-.5Zm100,58.7c.9,.7 1.9,2.4 2.3,3.7 .6,2 .4,2.3-1,1.8 -.9-.4-2.8-.7-4.1-.7 -1.8,0-2.4-.5-2.4-2.3 0-3.8 2.2-4.8 5.2-2.5Zm36.6,1.9c.3,2.4-.1,2.7-3.3,3.1 -3.4,.4-3.6,.3-3-2.1 1.2-4.8 5.8-5.5 6.3-1Zm2.7,10.9c.9,1.5-2.2,6-4,6 -3.1,0-4.5,9-2.5,15.9 .5,1.8 2.7,5.6 4.9,8.5 5.3,6.9 6.9,12.3 4.8,16.2l-1.6,2.9 -.1-4.6c0-3.7-.7-5.7-3.5-9.5 -8.1-11.2-9.5-16.9-7.7-30.9 .6-3.9 1.2-5.2 3.1-6.2 2.5-1.2 5.3-.5 6.6,1.7Zm-38.1,.2c2.1,3 2.2,18.5 .2,23.3 -.8,1.9-3.4,6.2-5.8,9.7 -3.6,5.2-4.3,7.1-4.3,11 0,4.8-.8,6.1-1.9,3.2 -1-2.6-.7-8.4 .6-10.7 .6-1.2 2.9-4.6 5.2-7.5 3.4-4.6 4.1-6.3 4.4-11.3 .6-7.8-.3-10.6-3.8-12.4 -2.9-1.5-4.1-5.1-2.3-6.8 1.5-1.6 6.2-.6 7.7,1.5Zm36.6,16.1c0,.8 1.1,2.4 2.5,3.7 1.7,1.6 2.5,3.4 2.5,5.7 0,4.1-1.1,4.2-4.4,.2 -1.8-2.1-2.6-4.2-2.6-7 0-2.1 .5-3.9 1-3.9 .6,0 1,.6 1,1.3Zm-42,2.9c0,3.9-3.3,9.8-5.5,9.8 -1.1,0-1.5-1.1-1.5-3.8 0-3.2 .5-4.1 2.5-5 1.4-.6 2.5-1.8 2.5-2.7 0-.8 .5-1.5 1-1.5 .6,0 1,1.5 1,3.2Zm6.6,21.3c-.4,2.7-.3,5.3 .4,6.5 1.6,3 .8,3.4-2.9,1.3s-3.8-3.3-.9-8.4c2.9-5.2 4.2-5 3.4,.6Zm30.8-.4c3.2,5.5 3,5.9-4.6,9.7 -.4,.2-.3-1.1 .3-2.8 .6-1.7 .9-4.9 .5-7.1 -.8-5.1 .6-5 3.8,.2Zm-34.6,16.5c5.4,3.8 6.8,13.5 3.2,23.8 -2.5,7.3-4.6,10.2-12.1,16.7l-6.1,5.3 .7-3.4c.4-1.9 1.7-5.1 3.1-7 2.1-3 2.2-3.6 .8-5.1 -.8-.9-1.2-2.3-.8-3.2 .5-1.5 .8-1.5 3,0 3,1.9 4.9,.7 7.5-5.2 3.3-7.1 2-13.5-2.7-13.5 -2.1,0-2.4,.4-1.9,2 .4,1.3 .2,2-.7,2 -2.1,0-3.6-1.4-4.7-4.3 -2.6-6.8 4.7-12.4 10.7-8.1Zm44.5,1.6c2.1,2.5 2.2,5.7 .1,8.6 -1.9,2.7-4,2.8-4.7,.2 -.6-2.4-2.9-2.6-4.7-.5 -1.9,2.3-.7,10.4 2.1,14.7 2.7,4.2 3.5,4.5 6.1,2.2 1.6-1.6 1.8-1.6 2.4,0 .3,.9 .1,2.3-.6,3.1 -1,1.2-.8,2.6 1.5,7.6 1.5,3.3 2.4,6.3 2.1,6.6 -.8,.8-9.1-6.1-12.1-10.1 -6.8-8.9-9.2-21-5.7-28.9 3-6.9 9.3-8.5 13.5-3.5Zm-55.6,72.6c-2.3,2.5-2.1,4.2 .9,8.3 3.9,5.1 6.4,11.2 5.7,14 -1.6,6.6-7.9,8.8-12.7,4.4 -3.1-2.9-3.2-3.9-.6-6.5 3.6-3.6 6.6,.1 4,5.1 -.9,1.5-.7,1.9 .6,1.9 3.1,0 5.4-3.1 5.4-7.2 0-3.4-.7-4.6-4.5-8.4 -2.5-2.4-4.5-5.2-4.5-6.2 0-2.5 3.7-7.2 5.7-7.2 1.4,0 1.4,.2 0,1.8Zm60,.4c3.4,3.2 2.9,5.9-2.2,11 -3.5,3.6-4.5,5.3-4.5,8 0,4.3 2.4,7.8 5.5,7.8 2.4,0 2.4,0 .7-3 -1.6-2.7-1.6-3.1-.1-4.6 1.6-1.5 1.8-1.5 3.8,.5 2.7,2.7 2.7,3.7-.5,6.6 -3.7,3.5-7.6,3.2-10.8-.6 -1.4-1.7-2.6-3.8-2.6-4.7 .1-2.6 3.4-9.3 6.9-13.6 3.1-3.8 3.1-4.6 .3-7.9 -2.3-2.6 .6-2.2 3.5,.5Z" fill="#5b2333" fill-rule="nonzero"/><path d="M432.35,440.77c-7,.7-13.1,1.6-13.5,2 -1.1,1.1 2.5,20 4,21.1 .8,.6 2,4.4 2.7,8.5 2.5,15.1 7,31.1 11.3,40.2 7.8,16.5 19.3,29.2 31.8,35.1l6.9,3.2v5.7c0,5.4-.2,5.8-3.1,7.3 -5.2,2.8-6.9,5.1-6.9,9.9 0,5 3,8.7 8.6,10.8l3.4,1.2v8.1c0,8.9-2,18.6-5,24.4 -2.5,4.9-9.2,10.9-17.1,15.1 -6.6,3.5-13.9,9.5-13.9,11.4 0,1.6-7.4,4.6-13.1,5.3 -7.4,.9-14.3-1.8-22.1-8.7 -9.5-8.3-13.9-8.7-20.2-2.1 -1.7,1.7-3.5,3.1-4.1,3.1 -.6,0-2.8-2-4.8-4.5 -3.7-4.4-7.6-6.2-6.3-2.9 .3,.9 .6,2.5 .6,3.7s2.3,4.8 5,8c2.8,3.2 5,6.7 5,7.8 0,1.8 1.2,1.9 38.3,1.9 44.9,0 81.7,1 81.7,2.2 0,.4-1.7,.8-3.8,.8 -7.6,0-19.2,1.3-19.2,2.1 0,.5 3,.9 6.8,1 3.7,.1 7.8,.4 9.2,.8 1.4,.4-27.4,.8-64,.8 -36.6,0-64.1-.2-61.2-.4 4.6-.4 5.4-.8 6.2-2.9 1.8-4.6 1.1-6.6-3.9-11.4 -4.7-4.5-7.1-9.4-7.1-14.3 0-1.1-6-8.3-13.2-16.1 -15.8-16.8-36.5-40-42.8-47.8l-4.5-5.6 -8.6,.5c-6.5,.4-11.4,0-20.5-1.7 -21.8-4.2-34.6-2.9-45.8,4.6l-5,3.2 -5.8-2.9c-15.2-7.7-25.4-7.6-49.4,.2 -12.8,4.1-17.7,5.2-25,5.6l-9.1,.6 -1.3,3.6c-3.1,8.7-6.2,14.1-8.2,14.1 -2.8,0-7.4,2.6-9.2,5.2 -3.6,5.1-1.9,8.5 15.4,30.8 4.9,6.3 8.8,11.6 8.6,11.7 -.2,.2-2.3-.6-4.9-1.7 -6.9-3-12.9-3.6-18.1-1.6 -5.8,2.2-8,5.6-7.3,11.3l.5,4.3 -3.7-.6c-2-.4-4.6-1-5.8-1.5 -2.1-.8-2.2-1-.8-4.3 1.9-4.5 1.9-7 0-10.6 -4.2-8-18.5-7.9-23.5,.2 -5.5,9-4.8,14.9 3.2,26 2,2.7-2,6.1-7.9,6.8 -4.7,.5-4.8,.6-5.1,4.2 -.3,2.9 .1,3.9 1.9,4.8 1.5,.9 13.2,1.1 42.9,.9 40.6-.4 53.6,.2 29.4,1.4 -12.9,.6-15.4,1.4-15.4,4.8 0,3.7 4.6,4.3 13.7,1.9l8.2-2.2 471.6-.2 8.2,2.4c6.8,1.9 8.7,2.2 10.8,1.2 2.1-1 2.6-1.8 2.3-3.9 -.3-2.4-.9-2.9-4.3-3.4 -12.5-2.2-59.8-2.7-196.5-2.2 -81.1,.3-171.8,.2-201.5-.2l-54-.9 21-1.7c42.6-3.7 76.1-5 148-6 107.6-1.4 176.1,.3 245.5,6.1 31.1,2.6 40.8,3 68.4,2.9 16.5,0 30.5-.3 31.2-.6 1.4-.5 3.9-7.1 3-8 -.3-.3-2.7-.7-5.3-.9 -3.3-.3-5.3-1.1-6.5-2.5 -2.4-2.9-2.3-4.6 .7-8.1 9.3-11 2.3-28.8-11.3-28.8 -5.6,0-9.6,2.1-11.2,5.9 -1.2,3-1,9 .4,12.3 .6,1.4-.1,1.9-4.1,3.1 -2.6,.8-6.2,1.2-8,1l-3.2-.5 2.4-3.7c6.6-10.1 7.1-23.3 1.4-34.9 -3.7-7.6-13.4-17.8-22.6-23.9 -8.4-5.5-22-10.4-30.6-10.8 -3.9-.2-9.2-1.4-12.5-2.7 -4.9-1.9-7.6-2.2-18.7-2.2 -11.6-.1-13.8,.2-20.3,2.6 -4,1.4-8.8,3.8-10.7,5.2 -1.8,1.4-4.4,2.6-5.7,2.6 -5.8,0-25.4,7.9-27.3,11 -1.4,2.3-2.5,.7-2.5-3.5 0-4.1 .3-4.8 3.1-6.3 5.6-3 8-5.6 8.5-9.2 .9-5.4-.9-8.7-6.1-11.2 -4.1-2-4.5-2.5-4.5-5.7 0-6.7 .9-7.9 8-11.6 7-3.7 17.2-13 22-20 4.1-5.9 10.4-19 12.9-26.5 1.1-3.6 3.1-12.7 4.4-20.2 1.4-8.2 2.9-14.4 3.9-15.5 1.6-1.8 4.8-14.2 4.8-18.7 0-3-3.3-4.2-14.5-5.1 -3.8-.4-9-.8-11.5-1.1 -11.7-1.2-92.1-1.2-104.2,0Zm108.7,6.6c17.9,1.8 17.2,3.4-1.3,2.6 -8.8-.3-15.1-.2-14.8,.3s6.9,1.2 14.6,1.6c10.6,.5 14,1 14,2.1 0,.7-.4,1.5-.8,1.8 -.4,.2-13.3,1-28.7,1.6 -20.8,.9-36.7,.9-61.9,.2 -18.6-.6-34.1-1.3-34.3-1.6 -.3-.2-.7-2.2-1-4.4l-.5-4 8.3-.6c4.6-.4 10.4-.8 12.9-1 9.9-.8 82.3,.3 93.5,1.4Zm-53.6,16.4c29.3,.3 53.5,.7 53.9,1 .9,1 5,.7 5.7-.4 .9-1.5 2.5-1.2 2.5,.4 0,2.2-4.5,2.6-43.5,3.2 -39.4,.7-60.6,0-60.2-1.9 .1-.8-1.8-1.3-5-1.5 -4.9-.3-7.1,.9-4,2.1 .6,.3-.2,.6-1.9,.6 -2,.1-3.4-.5-3.8-1.5 -1-2.7-.7-3.6 1.2-3 1,.4 25.8,.8 55.1,1Zm32.4,11.1c5.9,.5 10.7,1.2 10.7,1.6 0,.4-3.1,1.1-7,1.5 -3.8,.3-7,1-7,1.5 0,.4 3.1,.9 7,1.1 5.5,.2 6.8,.6 6.1,1.6 -.4,.8-2.8,1.6-5.2,1.8 -2.4,.3-5.5,.8-6.9,1 -4.7,1 .6,2.6 6.2,1.9 4.5-.6 5-.5 4.6,1.1 -.4,2.1-3.5,3.2-9.5,3.3 -7.3,.2-5.8,2 1.9,2.3l7.3,.3 -2.2,2.2c-1.7,1.7-3.5,2.3-6.5,2.3 -2.4,0-5,.4-5.8,1 -2.3,1.4 1.3,2.4 6.6,1.6 3.9-.5 4.5-.3 4.2,1.1 -.4,2.3-2.4,3.1-9,3.8 -7.6,.8-7.4,2.5 .2,2.5 3.3,0 6,.3 6,.7 -.1,2.5-2.3,3.6-8.4,4 -3.6,.3-6.6,.9-6.6,1.4 0,.4 2.7,.9 6,1.1l6,.3 -1.5,2.2c-1.4,2-2.5,2.3-8,2.3 -3.5,0-6.7,.4-7,1 -.4,.6 1.9,1 6.1,1h6.7l-2.3,2.5c-2.1,2.2-3.2,2.5-9.1,2.5 -10.5,0-9.8,2 1.1,3.2l2.4,.3 -2.7,1.8c-2.3,1.5-5.1,1.8-17,1.8 -7.9,.1-15.9-.2-18-.6 -2.5-.5-3.7-.4-3.7,.4 0,1.5 5.2,3.7 11,4.6 2.4,.4 5,1.4 5.6,2.2 .8,1.2 3.2,1.5 12.5,1.2 10.6-.4 11.7-.6 16.2-3.4 2.7-1.7 7.3-5.5 10.3-8.5 9.2-9.5 19.6-32.3 22.5-49.3 .8-5.1 1.7-7.7 2.6-7.7s1.2,.8 .8,2.2c-4.3,19.9-6.7,27.3-12.5,38.8 -6.7,13.2-15,21.8-26.5,27.2 -6.4,2.9-6.9,3-18.8,2.6 -11.7-.3-12.5-.5-18.7-3.8 -18.6-10-31-31.1-36.9-62.6l-.8-4.3 38.1,.4c21,.1 42.9,.6 48.9,1Zm19.2,3.2c-1.7,12.1-9,32.6-11.8,33.1 -2.7,.5-2.1-2.4 1.1-4.8 1.8-1.4 2.3-2.3 1.5-2.6 -2-.9-1.5-2.7 1.5-5.1 2.1-1.8 2.3-2.2 1-2.3 -2.6,0-2.2-2.5 .7-4.4 2.8-1.8 3.3-3.6 1-3.6s-1.8-1.6 1-3.4 3.3-3.6 1-3.6c-.8,0-1.5-.4-1.5-.9s.7-1.1 1.5-1.5c1.8-.7 2-3.6 .3-3.7 -1,0 1.5-1.5 3.1-1.8 .2-.1 0,2-.4,4.6Zm-12.5,37.4c-1.2,2.2-3.7,3.5-4.7,2.5 -.9-.8 2.7-4.6 4.4-4.6 1.1,0 1.1,.4 .3,2.1Zm-4,6.7c0,1.4-3.8,4.4-5,4 -1.4-.4 1.7-4.8 3.6-4.8 .8,0 1.4,.4 1.4,.8Zm-7.5,9.2c-1,1.1-2.8,2-3.9,2 -2-.1-2-.1 .3-2 1.3-1.1 3-2 3.9-2 1.3,0 1.2,.3-.3,2Zm-8.5,7c-.8,.5-2.6,1-4,1 -2,0-2.2-.2-1-1 .8-.5 2.6-1 4-1 2,0 2.2,.2 1,1Zm-7,14.1c0,.7-6.2,1.9-10.5,1.9 -4.2,0-6.4,1.5-4.7,3.2 1.2,1.2 9.1,3.8 12.5,4.1 .9,.1 1.7,.4 1.7,.8s-3.6,.9-8,1.1l-8,.3v-4c0-2.2-.3-4.9-.6-6 -.5-1.9 0-2 8.5-2 5,0 9.1,.3 9.1,.6Zm-221.6,17.9c8,1.3 14.8,1.9 18,1.5l5.1-.5 7,8.6c3.9,4.8 15.7,18.2 26.4,29.8l19.3,21.1 -4.8,.3c-2.7,.2-13-.7-22.9-1.9 -15.4-1.9-19.1-2.1-25.6-1.1 -8,1.1-19.4,5.6-21.8,8.5 -.7,.9-1.9,1.7-2.5,1.7 -1.1,0-4.6-5.3-4.6-7 0-.4-2-3-4.5-5.6 -2.5-2.7-4.5-5.3-4.5-5.7 0-.4-1.3-2.2-3-4 -1.6-1.8-3-4-3-5s-.5-1.5-1-1.2c-1.3,.8-4.9-3.4-5-5.8 0-.9-.6-1.7-1.3-1.7 -1.5,0-5.7-5.3-5.7-7.2 0-.7-1-1.8-2.2-2.3 -1.3-.6-2.9-2.5-3.7-4.3 -.8-1.7-2.1-3.2-2.8-3.2 -.8,0-1.6-.8-2-1.8 -.3-.9-1.8-2.7-3.2-3.9 -2.6-2.3-2.6-2.3-.6-3.9 3.4-2.7 9.8-5.7 15-7.1 6.3-1.6 16.9-1.1 33.9,1.7Zm221.6-1.5c4.7,.8 8.6,1.5 8.7,1.5s.7,.8 1.2,1.9c.7,1.3 .6,2.3-.4,3.7 -1.3,1.6-1.4,1.7-.9,.1 .3-.9 .1-1.7-.5-1.7 -.6,0-.8-.7-.5-1.5 .5-1.2-.2-1.5-2.7-1.5 -1.9,0-4.5,.3-5.9,.7l-2.5,.7 2.5,.7c2.4,.7 2.5,.7 .2,.8 -1.3,.1-2,.5-1.7,1.1 .4,.6-.5,1-1.9,1 -1.4,0-2.6,.4-2.6,1 0,.5 1.9,1 4.2,1 3.2,0 3.9,.3 3,1.2 -1.5,1.5-20.6-.3-24.8-2.4 -3.6-1.7-4.3-5.2-1.4-6.8 1.8-.9 9.5-2.3 16-2.9 .8,0 5.3,.6 10,1.4Zm-286.7,4.4c3.7,1.8 7.7,4.2 8.8,5.4s10,12.2 19.7,24.5c9.7,12.3 19.4,24.4 21.4,27 3.5,4.4 4.3,6.7 1.6,4.5 -2.3-1.9-11.6-3.3-21.1-3.3 -7.2,0-11.7,.7-20.7,3.1 -15.5,4.2-22.3,5.7-29.7,6.5 -6,.6-6.3,.6-8.6-2.2 -5.5-6.6-37.5-47.3-40.7-51.6 -1.8-2.7-3.1-5.1-2.7-5.4 .3-.3 4.2-1 8.6-1.5 4.5-.5 14.3-2.9 21.8-5.3 7.6-2.4 14.7-4.6 15.8-4.9 1.1-.3 5.8-.5 10.5-.3 7.2,.2 9.5,.7 15.3,3.5Zm360,5.8c-1.3,.2-3.5,.2-5,0 -1.6-.2-.5-.4 2.2-.4 2.8,0 4,.2 2.8,.4Zm-12.3,1.5c-4.9,1.1-7.7,2.8-4.4,2.8 1,0 4.6-.5 7.9-1 15.5-2.5 31.8,5.5 43.1,21.3 8.3,11.6 11.7,15.7 12.5,15.1 1.5-.9 1-7.9-.9-14.2 -2-6.1-7.4-14.9-9.8-15.9 -3.1-1.2-1.1-2 2.8-1.1 6.3,1.4 19.7,8.3 25.1,12.9 6.6,5.7 13.5,15.6 14.3,20.7 .4,2.6 .3,4.2-.4,4.2 -1.2,0-2.2-2.4-2.2-5.1 0-2.8-5.1-9.4-6-7.9 -.5,.8-1.3,.4-2.4-1.1 -1.2-1.8-1.3-2.5-.3-3.2 .9-.6 .8-.7-.3-.4 -.8,.2-2.3,0-3.3-.5 -1.5-.7-1.8-.6-1.5,.9 .2,1.2-.5,1.9-2.7,2.3 -2,.4-2.6,.8-1.7,1.3 .7,.5 2.5,.6 4.1,.2 1.9-.4 3.2-.1 4,.9 1.8,2.2 .5,3.6-3.4,3.6 -1.9,0-3.7,.4-4,1 -.9,1.5 4.6,2.4 6.8,1.1 2.3-1.5 4.1-.2 3.5,2.5 -.2,1.4-1.3,1.9-3.8,2 -5.6,.2-6.2,.3-5.5,1.4 .3,.5 2.8,1 5.6,1 4.2,0 4.9,.3 4.9,2 0,1.8-.7,2-7.2,2.1 -6.1,0-6.9,.2-4.5,1.1 1.5,.5 2.7,1.6 2.7,2.4 0,1.1-1.3,1.3-6.2,.9 -4.4-.4-5.5-.2-3.8,.4 8,2.8 8.4,3.1 6.9,4.7 -1.3,1.3-2,1.3-5.8-.1 -6.3-2.2-7.2-1.8-2.3,1.2 3.4,2 4,2.8 3.1,3.9 -1,1.3-1.4,1.3-2.8,0 -1.6-1.4-9.5-5.6-10.6-5.6 -.3,0-.5,.5-.5,1.1 0,.5 2.1,2 4.8,3.1 2.6,1.1 5,2.6 5.4,3.2 2.6,3.9-2.2,3.4-10.9-1.3 -4-2.1-7.3-3.5-7.3-3.1 0,1.2 3.2,3.7 7.9,6.2 5,2.6 6.4,4.8 3.2,4.8 -2.4,0-12.9-5.1-17.3-8.3 -1.5-1.1-3.1-1.8-3.4-1.4 -1,.9 3.7,4.5 11.3,8.8 6.6,3.7 7.2,5.6 1.3,3.9 -4-1.2-13.4-6.4-18.2-10.2 -2.1-1.6-3.8-2.5-3.8-2 0,1.4 7.2,7.7 11.9,10.4 4.7,2.6 5.2,3.8 1.6,3.8 -3.1,0-9.2-3.7-16.7-10.2 -3.4-2.9-5.8-4.3-5.8-3.5 0,1.4 7,8.4 12.5,12.4l3,2.2 -2.9,.1c-3.2,0-9.8-4.5-16.1-10.9 -2.1-2.3-4.3-4.1-4.8-4.1 -1.7,0 2.4,5.4 7.6,10.2 2.8,2.6 4.9,5 4.6,5.3 -1.4,1.3-5.8-1.7-13.3-8.9 -4.4-4.2-8.1-7.4-8.4-7.1 -.7,.7 7.7,11.2 10.7,13.4 1.4,1.1 2.3,2.2 2,2.5 -1.4,1.5-5.9-1.7-12.7-8.9 -7.1-7.4-9.6-9-7.2-4.5 1.6,3 11.9,14.2 14.4,15.7l2.1,1.2 -2.2,.1c-3.1,0-11.1-6.7-17.3-14.5 -3-3.7-5.6-6.3-5.8-5.7 -.5,1.6 1.4,4.7 7.4,11.8 5,5.9 5.3,6.4 3.1,6.4 -2.8,0-9.5-6.8-14.6-14.8 -3-4.7-5.1-6.5-5.1-4.4 0,1.4 7,12.6 9.8,15.6l2.7,2.9 -3-.7c-4.2-1-5.8-2.7-11.8-12.3 -2.9-4.6-5.5-8.3-6-8.3 -1.2,0 2,6.9 5.8,12.7 3.9,5.9 4.1,6.3 2.1,6.3 -2.1,0-6.9-5.9-11.2-13.9 -3.7-6.9-6.3-9.4-4.8-4.9 1,3.2 5.3,11.8 7.6,15 1.1,1.6 1.5,2.8 1,2.8 -2.1,0-7.5-6.9-11-13.9 -2.3-4.6-3.8-6.8-4-5.7 -.5,2.2 3.5,12.1 5.4,13.7 .8,.6 1.4,1.7 1.4,2.3 -.1,1.9-5.9-5.3-6.6-8.1 -1.1-4.3-4.4-11.6-5-11 -.5,.4 2.1,9.7 4.2,15.2 .7,1.8 .6,1.9-1,.5 -1-.8-2.8-1.9-4-2.5 -2.5-1.2-5.1-6.1-6.7-13 -1.8-7.5-2.2-8.4-2.6-5.7 -.3,1.2 .3,4.5 1.2,7.3 2.2,6.6 1.4,7.2-1.5,1 -4.3-9.3-1.6-18.6 8.5-28.6 8.7-8.8 26.2-17.3 32.4-15.9 10.5,2.5 21.8,9.7 36.5,23.1 4.3,4 8.3,7.3 8.7,7.3 2.9,0-1.2-14.3-6.2-21.6 -4.9-7.2-14.1-13.4-22.6-15.2l-3.8-.8 3.5-1.9c4.4-2.3 7.8-3.3 11-3.3 1.4,0 .5,.5-2,1Zm-68.5,3.7 4,.9 -5.5,.1c-3,0-6.2-.4-7-.9 -1.9-1.2 2.7-1.3 8.5-.1Zm105.5,1.1c2.1,1.1 4.2,2.5 4.5,3.1 .4,.5-1.6-.1-4.4-1.5 -2.8-1.5-5.1-2.9-5.1-3.1 0-.9 1-.6 5,1.5Zm-451.3,13.8c4.5,5.9 12.5,16.1 17.8,22.7 18.8,23.5 18.7,23.3 18,25.5 -.3,1.1-.9,2-1.3,1.9 -.4,0-10.4-12.6-22.2-27.9 -19.1-24.7-24.5-33.2-21.3-32.9 .4,0 4.5,4.8 9,10.7Zm403.8-8.8c-.8,1.3-4.5,1.3-6.5,0 -1.1-.7-.3-1 2.8-1 2.6,0 4.1,.4 3.7,1Zm-56.8,1.6c6.1,.8 5.4,2.4-1,2.4 -2.3,0-3.6,.4-3.2,1 .3,.5 2.6,1 5.1,1 2.4,0 4.4,.4 4.4,.9 0,1-3.4,2.1-6.7,2.1 -3.9,0-2.5,1.7 2,2.6l4.2,.8 -4,.4c-5.3,.5-6.4,1.8-2.3,2.6 2.6,.5 3,.9 1.8,1.6 -.8,.5-2.3,1-3.2,1 -1,0-1.8,.4-1.8,1 0,.5 .7,1 1.7,1 1.5,0 1.5,.2 0,1.7 -2.8,3.2-4.9,13-4.5,20.9l.3,7.4 -9.5,.1 -9.5,.2 8,.8c13,1.4 12.7,1.6-2,1.7 -7.7,0-15.1-.3-16.4-.7 -2.2-.6-1.8-1 4.4-4.6 8.5-5 13.2-9.6 17.3-16.8 4.1-7.3 6.2-15.3 6.2-24 0-5.9 .2-6.8 1.6-6.3 .9,.3 4,.9 7.1,1.2Zm69.6,3.6c4.6,3.2 6.1,4.8 9.1,9.2 4,6 3.1,6.8-2.9,2.2 -2-1.5-2-1.5 .3-.9 3.8,.9 2.5-.5-2.5-2.8 -4.1-1.8-4.5-2.2-2.8-2.9 2.2-.9 1.7-1.2-4-2.6 -2.1-.5-2.5-.8-1.2-1.1 3-.7 .8-2.3-3.2-2.3 -4.4,0-5.5-.7-3.8-2.5 1.4-1.5 5.6-.1 11,3.7Zm44.8-.6c1.8,1.9 2.9,3.4 2.4,3.4s.1,1 1.3,2.3c1.9,2 5.7,9.7 4.8,9.7 -.2,0-2.3-3-4.6-6.8 -2.4-3.7-5.9-8.1-7.9-9.9 -2.8-2.5-3.1-3.1-1.5-2.7 1.2,.3 3.7,2.1 5.5,4Zm-465.3,7.9c7.1,9.4 14,18.3 27.5,35.9 6.4,8.2 9.7,13.2 9.3,14.2 -.3,.9-1,1.4-1.5,1.2 -1.7-.6-40.1-48.9-44.1-55.5 -1.2-1.8-1.2-2.4 0-3.8 1.5-1.9 1.1-2.2 8.8,8Zm26.1,44c3.1,3.8 6.2,7.4 6.8,7.8 1.4,.9 1.8,4.8 .6,4.6 -.5,0-5.8-6.4-12-14.2 -6.1-7.8-15.9-20.3-21.8-27.7 -11.7-14.7-12.9-16.6-12-18 .3-.5 7.9,8.3 16.7,19.8 8.9,11.4 18.6,23.8 21.7,27.7Zm-29.5-24.3c7.2,9 16.7,21 21.2,26.8 4.6,5.8 9.5,12 11.1,13.8l2.8,3.3 10.5-1.6c5.8-.8 15.9-2.4 22.5-3.5 6.6-1 18.3-2.8 26-4 7.7-1.1 17-2.6 20.6-3.2 6.2-1 6.8-.9 9.6,1.1 2.7,2 3.6,2.1 12.6,1.5 8.8-.6 9.8-.9 11.3-3.2l1.6-2.5 23.7,.7c62.3,1.8 56.6,1.4 56.9,3.6 .3,1.9-.2,2-10.5,2 -5.9,0-23.4-.5-38.8-1 -25.2-.9-28.1-.8-29,.6 -2.7,4.2-3,4.3-14,5 -6,.3-11.3,.8-11.7,1 -.4,.3-2.2-.8-4-2.4 -1.8-1.6-3.7-2.8-4.3-2.6 -1,.3-23.6,3.9-60,9.5 -10.4,1.6-20.4,2.9-22.2,2.9 -3.5,0-.3,3.8-35.8-42.2 -9.6-12.4-17.5-23.3-17.5-24.1 0-2.6 1.3-2.7 2.9-.2 .9,1.3 7.4,9.7 14.5,18.7Zm437.1-10.1c1.1,1.7-.1,2.1-1.5,.4 -.8-.9-.8-1.5-.2-1.5 .6,0 1.4,.5 1.7,1.1Zm69.2,3.9c.6,2.4 .5,3-.4,3 -1.2,0-2.3-5-1.1-5 .5,0 1.2,.9 1.5,2Zm2,9c.1,1.1-.2,2-.8,2 -.5,0-.9-.9-.9-2s.4-2 .8-2c.4,0 .8,.9 .9,2Zm5.3,3.8c0,2-.8,3.2-2.9,4.5 -4.2,2.5-4.7,.5-1-3.7 1.7-2 3.3-3.6 3.5-3.6 .2,0 .4,1.3 .4,2.8Zm-327.5,5.3c9.4,1.1 20.6,1.9 25.1,1.7l8.1-.3 1,4.5c.6,2.5 1.3,5.3 1.8,6.2 .7,1.7-.2,1.8-11.6,1.7 -6.8,0-22.7-.6-35.4-1.3 -21.3-1.1-22.7-1.2-19.1-2.5 3.9-1.4 10.2-1.3 47.9,.5 8.7,.4 13.7,.3 13.7-.3 0-1.1-29.7-2.7-51-2.8 -10.9,0-14.1,.3-16.9,1.8 -3.8,1.9-5.5,2.2-4.6,.8 .9-1.6 11-5 17.9-6.1 4.9-.8 9.8-.7 19.8,.4 21.5,2.4 34.8,3.1 34.8,1.7 0-.7-2.4-1.1-7-1.1 -3.9,0-13.3-.7-20.8-1.6 -8.3-1-17.9-1.4-24.2-1.1 -10,.4-11.4,.7-22.5,5.3 -1.7,.7-1.8,.6-.7-.8 2.8-3.5 13.8-7.2 25.7-8.7 .6,0 8.7,.8 18,2Zm317.5-1.1c0,1.4-3.9,3.2-5.6,2.6 -.8-.3-1.4-1.2-1.4-2.1 0-1.1 1-1.5 3.5-1.5 1.9,0 3.5,.4 3.5,1Zm9,4.1c-1.1,1.9-7.7,5.5-8.6,4.6 -.9-.8 2.9-4.7 4.6-4.7 1,0 2.2-.5 2.5-1 1.2-2 2.6-1 1.5,1.1Zm-557.8,.6c2.5,2.2 2.3,4.6-.8,8.3l-2.7,3.1 2,2.7c1.1,1.5 3.1,3.3 4.6,4 4.2,2 13.8,3.5 19.7,2.9 5.9-.6 19.9-6.5 20-8.4 0-1.4-5.3-3.3-9.6-3.3 -2.3,0-3.4,.5-3.4,1.4 0,2.4-4,4.7-6.1,3.6 -3.2-1.8-3.4-5.1-.5-7.7 3.1-2.6 8.2-3 13.7-1.1 4.1,1.4 13.9,7.5 13.9,8.7 0,1.6-19.6,10-25.8,11 -14.1,2.3-30.9-2.3-35.9-9.8 -3.5-5.2-2.8-12.4 1.6-15.8 2.3-1.8 7.1-1.6 9.3,.4Zm167.1,.3c6.1,1.9 9.7,4.3 8.4,5.7 -.4,.3-3-.5-5.9-1.8 -4.6-2-6.8-2.3-16.3-2.2 -6,0-13.9,.8-17.5,1.6 -8.3,2-34.3,7.4-39.3,8.2 -2.1,.3-3.5,1-3.3,1.4 .3,.5 1.8,.6 3.3,.4 10.1-1.7 24.4-4.6 33.8-6.9 18.6-4.7 41.5-3.5 41.5,2 0,1.9 .4,1.9-4.5,.1 -6.7-2.4-15.7-1.7-46.9,3.5 -16.5,2.7-30.1,4.8-30.3,4.7 -.5-.6 2.6-6.4 4-7.5 .6-.5 4.2-1.2 7.9-1.6 3.7-.4 14.5-2.6 24-5.1 20.5-5.2 30.3-5.8 41.1-2.5Zm421.9-.9c1.1,.6 2.6,2.6 3.4,4.5 3.2,7.7-3,16.4-14.4,19.9 -6.2,2-26.8,2.5-31.1,.8l-2.4-.9 3.5-2.1c2.9-1.7 4.3-1.9 9.2-1.2 6.5,.8 16.4-.4 20.7-2.7 1.6-.8 3.6-2.6 4.5-4 1.6-2.4 1.6-2.6-1-5.2 -5.9-6.3-.1-13.2 7.6-9.1Zm-43.2,1.9c0,1.3-3.2,2.8-4.7,2.3 -2.6-.9-1.3-3.3 1.7-3.3 1.7,0 3,.4 3,1Zm-240.2,5.2c-.3,2.6-3.6,3.7-4.9,1.7 -1-1.7 .8-3.9 3.3-3.9 1.4,0 1.9,.6 1.6,2.2Zm75.1,1.9c10.1,.8 15.1,1.7 16.1,2.7 1.3,1.3-.3,1.4-13.5,.8 -8.2-.3-17.6-.6-20.7-.6 -4.9,0-5.8-.3-5.8-1.8 0-3 1.8-4 5.7-3.2 1.9,.5 10.1,1.4 18.2,2.1Zm160.5-1.6c-.6,1.6-6.4,2.2-6.4,.7s1.3-2.2 4.1-2.2c2.1,0 2.7,.4 2.3,1.5Zm12.6,0c0,1.1-5.7,3.1-7.8,2.7 -3.8-.6-.6-3.2 3.9-3.2 2.2,0 3.9,.2 3.9,.5Zm-390,3.5c1.2,.7 .8,1-1.5,1 -3.3,0-17.1,2-51.4,7.5 -12.3,1.9-22.8,3.5-23.3,3.5 -.4,0-.3-.9 .4-2 .9-1.4 2.4-2 4.8-2.1 1.9,0 14.5-2 28-4.4 24.3-4.2 39.9-5.5 43-3.5Zm371.5,1c-.3,.5-1.5,1-2.5,1s-2.2-.5-2.5-1c-.4-.6 .7-1 2.5-1s2.9,.4 2.5,1Zm11,2c-.3,.5-2.4,1-4.6,1 -2.4,0-3.8-.4-3.4-1 .3-.6 2.4-1 4.6-1 2.4,0 3.8,.4 3.4,1Zm-19.6,.9c1.1,.7 .9,1-.8,1.6 -2.5,.8-3.6,.2-2.6-1.4 .8-1.3 1.5-1.4 3.4-.2Zm11.6,3.1c-.3,.5-2.2,1-4.1,1 -1.9,0-3.4-.5-3.4-1 0-.6 1.8-1 4.1-1 2.4,0 3.8,.4 3.4,1Zm-11,3c.4,.6-.8,1-2.9,1 -1.9,0-3.8-.5-4.1-1 -.4-.6 .8-1 2.9-1 1.9,0 3.8,.4 4.1,1Zm-472.7,2.5 2.2,2.5h-7.8l-7.7-.1 4.5-2.3c5.9-3 6.3-3 8.8-.1Zm460.7-.5c1.6,.7 1.1,.9-2,.9 -2.2,0-4.7-.4-5.5-.9 -1.9-1.3 4.6-1.3 7.5,0Zm-34.5,1.5c1.6,.9 1.9,1.4 .9,1.5 -.8,0-2.4-.7-3.5-1.5 -2.4-1.8-.7-1.9 2.6,0Zm11.5,.6c1.6,1.6-2,1-4.1-.7 -1.8-1.4-1.8-1.5 .6-.8 1.4,.3 2.9,1 3.5,1.5Zm12.3-.6c1.2,1.2-.9,1.7-4.3,1.1 -4.7-.9-4.7-3.1 .1-2.3 2,.3 3.9,.9 4.2,1.2Zm-510.3,4.5c.3,.5 .1,1-.4,1 -.6,0-1.1-.5-1.1-1 0-.6 .2-1 .4-1 .3,0 .8,.4 1.1,1Zm592.2-.4c-.3,.3-1.2,.4-1.9,.1 -.8-.3-.5-.6 .6-.6 1.1-.1 1.7,.2 1.3,.5Zm-516.2,6.3c.6,.3-3.3,.8-8.5,1.1 -12.5,.7-67.3-.1-66.5-.9 1.7-1.7 72.4-1.9 75-.2Zm512.5,.2c.8,.5-16.8,.9-39.4,.9 -22.5,0-40.7-.3-40.3-.6 2-2.1 76-2.3 79.7-.3Z" fill="#5b2333" fill-rule="nonzero"/><path d="M431.85,449.07c-3.2,.6-2.9,2.3 .5,2.4 1.6,.1 2,.3 1,.6 -2.8,.7-2.1,2 1.3,2.7 5.4,1 47.9,.7 47.9-.4 0-.6-6.1-1-16.2-1.1 -9-.1-18.8-.4-21.8-.8l-5.5-.7 5-.7c2.8-.4 15.7-.8 28.7-.9 13.1-.2 23.8-.6 23.8-1.1 0-.7-60.7-.8-64.7,0Zm96.7,16.3 -8.5,.6 9.3,.2c6,.1 9.1-.2 8.7-.8 -.3-.6-.7-.9-.8-.8 -.1,.1-4,.5-8.7,.8Zm-93,10.9c0,1.7 6.2,4.1 10.5,4.1 4.9,0 4.7-2.6-.2-3.3 -2.1-.3-5.3-.9-7-1.2 -2.3-.5-3.3-.4-3.3,.4Zm1.6,5.9c-1.1,1.8 4.2,4.2 9.4,4.2 3.6,0 5-.4 5-1.4 0-.8-1.2-1.7-2.7-2 -7.6-1.4-11.1-1.7-11.7-.8Zm5.4,5.7c0,.9 8.3,2.6 9.9,2 1.4-.6 1.4-.8-.4-1.5 -2.1-.9-9.5-1.3-9.5-.5Zm-3,2.3c0,2.6 4.3,4.4 12.4,5 5.6,.4 6.8,.2 6.4-.9 -.3-.8-2.5-1.7-5.4-2 -2.7-.4-6.6-1.4-8.8-2.3 -4.8-2-4.6-2-4.6,.2Zm1.5,7.2c-.4,.6 1,1.7 3.1,2.6 4.3,1.8 15.2,2.4 15.6,.9 .3-.9-2.8-1.7-14.9-4 -1.8-.3-3.4-.1-3.8,.5Zm2.5,7.1c0,1.5 5.7,3.6 12.3,4.4 4.7,.6 5.7,.5 5.7-.7 0-1.1-2.4-2-8.2-3.2 -9.8-1.9-9.8-1.9-9.8-.5Zm3.5,7c-1,1.5 6.4,4.1 13.4,4.7 5.1,.4 6.3,.2 5.9-.9 -.4-1.2-3.3-2-15.5-4.2 -1.8-.4-3.5-.2-3.8,.4Zm4.7,8c1,2.9 17.8,6.3 19.3,3.9 1.1-1.7-1-2.8-7-3.5 -2.7-.3-6.7-.8-8.9-1.1 -2.8-.5-3.7-.3-3.4,.7Zm5,7c.7,2.3 9.7,4.8 17.2,4.9 5.7,0 6.7-.2 5.7-1.4 -.6-.8-4.9-1.9-9.4-2.6 -4.5-.6-9.5-1.4-11.1-1.7 -2.2-.5-2.8-.3-2.4,.8Zm-198.3,50.9c-6.2,.8-15.9,4.6-17.4,7 -.9,1.5 0,1.2 3.7-.9 7.2-4.2 14.3-5.4 27.7-4.7 6.9,.4 13.5,.9 14.6,1.2 1.5,.4 1.7,.3 .6-.4 -.8-.6-5.5-1.3-10.5-1.7 -5-.3-9.8-.8-10.6-.9 -.8-.2-4.5,0-8.1,.4Zm1.5,8.4c-5.5,1.3-11.5,4.4-12.1,6.2 -.2,.6 2.4-.3 5.9-2 5.8-2.9 6.9-3.1 17.3-3.1 6,0 15.4,.6 20.7,1.3 5.4,.7 10.3,1 11,.6 1.4-.9-25.7-4.3-33.2-4.3 -2.5,.1-6.8,.6-9.6,1.3Zm4.7,8.2c-5.5,1.5-11.1,4.3-11.1,5.6 0,.4 2.6-.5 5.8-1.9 7.6-3.5 19.2-4.1 37.1-1.9 11.6,1.5 15.6,1.5 14,.3 -.9-.7-29.7-3.7-34.9-3.6 -3,0-7.9,.7-10.9,1.5Zm5.9,8.3c-6.6,2.1-10,3.8-10,5.1 0,.5 2.4-.2 5.3-1.5 10.7-4.9 17.7-5.2 41-1.8 9.4,1.3 13.1,1.3 11.6-.1 -.9-.9-27.3-3.6-34.6-3.5 -4.6,0-10.1,.7-13.3,1.8Zm7,7.5c-5.5,1.6-11,4.3-11,5.6 0,.5 2.4-.2 5.3-1.5 8.7-4 16.6-4.7 32.8-3 7.9,.8 15.8,1.8 17.6,2.1 2.1,.4 3.3,.2 3.3-.5 0-.6-.3-1.1-.7-1.1 -.5,0-6.6-.7-13.8-1.5 -15.5-1.8-27.3-1.8-33.5-.1Zm6.5,7.9c-5.3,1.4-12,4.5-11.2,5.3 .2,.2 2.6-.5 5.2-1.6 8.6-3.7 17.1-4.6 30.7-3.1 20.5,2.1 25.3,2.4 24.5,1.5 -2.2-2.3-41.9-4-49.2-2.1Zm-94-38.8c-2.7,.7-9.2,3-14.3,4.9 -5.2,2-11.2,3.9-13.3,4.2 -2.2,.4-4.2,1.1-4.6,1.7 -1,1.7 6.5-.1 22.2-5.5 15.7-5.4 22.6-6.3 33.5-4.6l4.5,.7 -4-1.4c-5.1-1.7-17.6-1.8-24,0Z" fill="#5b2333" fill-rule="nonzero"/><path d="M203.45,585.37c-4.8,.6-38.5,11.4-39.9,12.8s9.2-1.5 22.5-6.1c14.5-5 15.4-5.2 25.7-5.2 5.9,0 10-.2 9-.6 -3.2-1.1-11.6-1.6-17.3-.9Zm.6,9.5c-11.9,3.4-33.8,11.4-31.3,11.5 1.5,0 10.3-2.6 19.5-5.7 17.4-5.8 26-7.1 33.8-5 2.4,.7 2.8,.6 1.8-.4 -1.9-1.9-17.7-2.2-23.8-.4Zm9,7.6c-2.2,.5-10.5,3.2-18.5,5.9 -8,2.8-15.3,5-16.3,5 -.9,0-1.7,.5-1.7,1.1 0,1.5 4.2,.5 23-5.8 16.4-5.5 16.5-5.5 26.3-5.1 5.4,.3 9.4,.1 9-.3 -1.3-1.3-17.4-1.9-21.8-.8Zm8.5,8c-3,.5-12.2,3.2-20.5,6 -19.4,6.5-18.4,6.1-16.4,6.6 .9,.2 9.3-2.2 18.5-5.4 16.1-5.4 17.4-5.7 27.1-5.8 5.6,0 9.9-.3 9.5-.7 -1.3-1.3-12.4-1.7-18.2-.7Zm2.5,9c-2.2,.5-9.2,2.7-15.5,4.9 -6.3,2.1-13.2,4.2-15.2,4.6 -2.1,.3-3.8,1.1-3.8,1.6 0,1.3 4,.4 19-4.4 16.3-5.2 26-7 33.5-6.4 4.1,.4 5.2,.2 3.5-.3 -3.3-1.2-16.5-1.1-21.5,0Zm396.1-23.9c5.2,5.9 6.7,6.2 2,.4 -2.1-2.5-4.3-4.6-4.8-4.6 -.6,0 .7,1.9 2.8,4.2Z" fill="#5b2333" fill-rule="nonzero"/><path d="M586.55,596.27c0,.6 .4,1.1 .8,1.1 .5,0 2.8,1.7 5.3,3.7 3.2,2.7 3.7,2.9 1.9,.9 -3.3-3.7-8-7-8-5.7Zm-60.5,1.5c3.5,1.8 6.4,2.1 4.9,.6 -.5-.5-2.5-1.2-4.4-1.5l-3.5-.5 3,1.4Zm-8.5,2.4c0,1.2 7.8,4.7 8.6,3.9 .3-.3-1.2-1.5-3.5-2.6 -4.5-2.3-5.1-2.5-5.1-1.3Zm112.3,3.9c-2.5,.5-3.2,2.3-.9,2.3 2.2,0 4.6-1.1 4.6-2.1 0-.5-.3-.8-.7-.8 -.5,.1-1.8,.4-3,.6Zm-117.8,1.2c.7,1.3 7.5,3.5 8.2,2.7 .3-.3-1-1.3-3-2.1 -4.1-1.7-6.1-1.9-5.2-.6Zm-6.5,3.5c0,.7 4.6,3.1 7.8,4 1.2,.4 2.2,.3 2.2-.2s-1.7-1.4-3.7-2.1c-2.1-.7-4.4-1.5-5-1.7 -.7-.3-1.3-.3-1.3,0Zm-4,5.6c0,.4 1.2,1.3 2.8,1.8 1.5,.5 3.5,1.3 4.5,1.7 .9,.4 1.7,.3 1.7-.2s-2-1.6-4.5-2.5c-2.5-1-4.5-1.3-4.5-.8Zm-3,4.9c0,1 8,4.4 8.7,3.7 .5-.4-6.9-4.6-8.2-4.6 -.3,0-.5,.4-.5,.9Zm1,6.6c1.4,.8 3.2,1.4 4,1.4 .9,0 .4-.6-1-1.4 -1.4-.8-3.2-1.4-4-1.4 -.9,0-.4,.6 1,1.4Zm.1,6c0,3.8 2.2,10.1 4.5,12.6 3.4,3.7 3,2.2-3.6-13.6 -.7-1.7-.9-1.5-.9,1Zm-67.1-111.4c-.1,3.8 7.2,58.7 9.5,71 1.4,7.5 2.5,14.2 2.5,14.8 0,.8-13.5,1.1-48.2,1.1h-48.2l7.8,8h53.3c52.8,0 53.4,0 54.1,2 .8,2.1 .8,2.1 2.8-.2 1.2-1.3 2.6-3.9 3.3-5.8 1-3 .9-3.7-.6-4.7 -.9-.7-2.3-1.3-3-1.3 -1.9,0-1.6-1.3 .6-2.7 2.4-1.5 4.1-7 3.4-10.7 -.6-3.1-5-6.9-7.3-6.3 -1.7,.4-2-1.3-2.3-12.6 -.1-3.7-.5-6.7-.8-6.7 -1.7,0-5.9,5.6-6.5,8.5 -1.2,6.4 2.4,14.7 7.1,16.5 3,1.1 3.3,4.5 .7,5.9 -5.1,2.7-11.1-6.3-12-17.8 -.8-12.2 3.6-19.1 12.3-19.1 5.8,0 7.4-.7 6.8-3 -.8-3.1-5-5.3-8.8-4.6l-3.4,.7 .9-3.2c.6-1.8 .9-3.3 .7-3.3 -.1-.1-1.7-1.1-3.4-2.4l-3.3-2.2 -.4,2.2c-.3,1.3-1,5.2-1.7,8.8l-1.3,6.5 -.8-4c-.4-2.2-1-7.5-1.4-11.7 -.5-7-.9-8.2-4.3-12.5 -2.1-2.7-4.8-6.6-5.9-8.8 -1.2-2.2-2.1-3.3-2.2-2.4Z" fill="#5b2333" fill-rule="nonzero"/><path d="M459.05,621.37c-1.6,.4-24.1,.8-49.8,.9l-46.9,.1 3.2,3.4c1.8,1.9 4.6,3.7 6.2,4 1.7,.3 4.3,2 5.9,3.7l2.9,3.1v-3.1c0-2.6 .4-3.1 2.4-3.1 1.9,0 2.3,.4 1.9,2 -.7,2.6-.4,2.5 5.4-.6 7.8-4.2 14.8-2.3 25.6,6.9 3.4,2.8 4.6,3.2 9,3 2.9-.1 5.8,.3 6.5,.9 1.7,1.4 5.2-1.7 5.2-4.7s-1.9-4.5-5.7-4.5c-2,0-3.3-.5-3.3-1.3 0-4.3 10.1-5.3 14.6-1.4l2.7,2.3 6.6-4.2c6.2-4 12.2-8.4 11.1-8.2 -.3,0-1.8,.4-3.5,.8Zm-36.5,17.3c0,.6-4.2,0-4.6-.7 0,0-.5-1.9-1.2-4.1l-1.1-4 3.4,4c1.9,2.2 3.5,4.4 3.5,4.8Z" fill="#5b2333" fill-rule="nonzero"/></svg>