<svg xmlns="http://www.w3.org/2000/svg" xmlns:serif="http://www.serif.com/" xmlns:xlink="http://www.w3.org/1999/xlink" height="24" style="fill-rule:evenodd;clip-rule:evenodd;stroke-linejoin:round;stroke-miterlimit:2;" version="1.1" viewBox="0 0 2917 2917" width="24" xml:space="preserve">
    <path d="M2914.25,1459.69c0-779.687-651.875-1411.75-1456-1411.75 -804.125,0-1456,632.063-1456,1411.75 0,662.082 470.084,1217.618 1104.266,1370.177v-938.768H806.277V1459.69h300.239v-185.894c0-480.514 224.271-703.232 710.807-703.232 92.24,0 251.405,17.534 316.517,35.073v391.077c-34.367-3.507-94.052-5.263-168.209-5.263 -238.743,0-330.99,87.687-330.99,315.667v152.571h475.582l-81.699,431.408h-393.883V2861.1c720.93-84.428 1279.608-679.622 1279.608-1401.411" fill="currentcolor" fill-rule="nonzero"/>
</svg>
