<svg xmlns="http://www.w3.org/2000/svg" fill="none" height="24" viewBox="0 0 98 96" width="24"><g clip-path="url(#clip0_730_27126)"><path d="M41.439,69.385C28.807,67.854 19.906,58.762 19.906,46.99c0-4.785 1.723-9.953 4.594-13.398 -1.244-3.158-1.053-9.857 .383-12.633 3.828-.479 8.996,1.531 12.059,4.307 3.637-1.148 7.465-1.723 12.154-1.723s8.518,.574 11.963,1.627c2.967-2.68 8.23-4.689 12.059-4.211 1.34,2.584 1.531,9.283 .287,12.537 3.063,3.637 4.689,8.518 4.689,13.494 0,11.771-8.9,20.672-21.725,22.299 3.254,2.105 5.455,6.699 5.455,11.963v9.953c0,2.871 2.393,4.498 5.264,3.35C84.41,87.951 98,70.629 98,49.191 98,22.107 75.988,0 48.904,0 21.82,0 0,22.107 0,49.191 -0,70.438 13.494,88.047 31.678,94.65c2.584,.957 5.072-.766 5.072-3.35v-7.656c-1.34,.574-3.063,.957-4.594,.957 -6.316,0-10.049-3.445-12.729-9.857 -1.053-2.584-2.201-4.115-4.402-4.402 -1.148-.096-1.531-.574-1.531-1.148 0-1.148 1.914-2.01 3.828-2.01 2.775,0 5.168,1.723 7.656,5.264 1.914,2.775 3.924,4.019 6.316,4.019 2.393,0 3.924-.861 6.125-3.063 1.627-1.627 2.871-3.063 4.02-4.019" fill="currentColor"/></g><defs><clipPath id="clip0_730_27126"><rect fill="white" height="96" width="98"/></clipPath></defs></svg>